<?xml version='1.0' encoding='utf-8'?>
<svg xmlns="http://www.w3.org/2000/svg" viewBox="0 0 2066 1652"> <path transform="scale(1.6141)" d="m183.31 389.86c9.042-2.129 17.782-2.166 26.966-1.057-1.161 1.424-1.531 2.157-3.277 2.813-8.436-0.317-17.961-0.252-26.163 1.894-8.487 1.074-18.592 7.895-23.858 14.517-2.162 2.719-3.037 5.771-4.553 8.813-1.406 6.898-1.484 11.59 2.6 17.719 3.314 4.974 7.288 6.67 11.73 10.161 1.979 2.415 5.914 4.536 8.687 6.025l0.787 1.64-13.121-6.623c-8.045 14.218-12.414 33.498-14.55 49.676l-0.596-0.312c0.878-18.094 6.415-34.454 13.367-50.966l-6.347-6.358c-5.806-6.58-6.013-13.41-5.472-21.802 0.79-1.209 1.123-2.712 1.555-4.079l0.056-0.145c5.456-9.731 13.864-15.455 23.878-19.837 0.727 0.22 2.128 0.445 2.684 0.907 1.796-1.327 3.563-2.15 5.627-2.986z"/> <path transform="scale(1.6141)" d="m151.07 411.92c-0.432 1.367-0.765 2.87-1.555 4.079l-4.39 1.469c-6.979 2.534-13.806 6.603-20.161 10.421-20.14 12.1-38.993 27.094-50.45 48.059-3.1288 5.725-5.9022 11.695-8.1456 17.823-1.2054 3.292-1.8967 6.853-3.3864 10.012l-0.396-0.219c2.9893-11.49 6.6885-22.588 12.437-33.03 15.865-28.819 44.762-49.513 76.047-58.614z" fill="#373131"/> <path transform="scale(1.6141)" d="m154.43 378.54c-39.383-4.807-87.162 6.43-119.43 29.732l-0.6498-0.362 12.824-9.287c32.312-19.956 75.862-31.004 113.48-22.113l13.871 2.379c-0.583 0.766-1.352 1.574-1.724 2.459l-18.369-2.808z" fill="#373131"/> <path transform="scale(1.6141)" d="m212.32 229.03c-3.356-0.373-6.295-1.507-9.315-2.956-18.114-8.69-28.784-23.018-35.372-41.708-10.309-29.251-6.081-65.023 7.167-92.623 10.128-21.101 31.474-42.953 53.847-50.696 13.656-4.7268 30.044-0.9468 42.628 5.2755 35.834 17.72 62.842 56.298 75.575 93.449l32.357-3.301-9.396-3.73-0.124-0.843c3.644-1.495 7.151-1.28 11.015-1.273 7.153 0.014 14.039 0.724 21.124 1.595 4.824 1.495 7.895 4.525 11.424 7.992-3.636-0.083-7.996 0.16-11.51-0.746-3.141-0.809-5.997-3.007-8.929-4.363-2.909-1.345-7.49-1.394-10.663-1.137l11.695 4.539c-13.793 1.199-27.669 1.881-41.34 4.172-13 2.179-26.764 6.362-38.915 11.467l-20.387 9.293c-2.896 1.458-6.319 4.081-9.271 5.064-0.831-0.292-1.056-0.205-1.913-0.024-1.387 0.291-1.899 0.34-3.247-0.164 1.209-2.497 0.813-6.552 0.887-9.334 0.178-6.726 0.433-13.49-0.029-20.208-0.402-5.837-1.428-11.654-1.438-17.508l1.678 0.356c1.199 3.159 0.937 6.453 1.148 9.778 0.339 5.331 0.959 10.639 0.947 15.981-0.011 4.612-0.851 10.002-0.318 14.475 0.26 2.18-0.218 3.585 1.166 5.465 0.942-0.813 0.217-1.076 0.65-1.967 0.203-0.417 1.742-1.41 2.181-1.765 18.08-11.488 37.782-18.169 58.467-23.196-16.395-39.014-41.662-77.408-82.45-93.882-9.822-3.9671-22.188-6.7328-32.271-2.2773-5.187 2.292-9.965 5.6715-14.605 8.9021-19.466 13.551-33.899 31.88-42.184 54.153-10.1 27.155-8.497 58.012 3.577 84.248 5.675 12.331 13.923 24.144 26.056 30.738 3.056 2.752 7.28 4.006 10.088 6.759z" fill="#373131"/> <path transform="scale(1.6141)" d="m218.2 279.53c0.191-0.654 0.545-1.282 0.574-1.963 0.036-0.861-1.439-3.618-1.8-4.555-1.351-3.511-2.508-6.911-2.945-10.666-0.979-8.413 0.16-15.987 2.32-24.05l0.855 1.386 1.405-0.779c-3.726 14.213-3.282 27.844 4.378 40.751 5.284 8.904 14.256 15.059 24.23 17.61 1.752 0.448 4.281 1.174 5.983 0.447l0.17 3.028c-9.462 9.552-19.027 18.44-27.388 29.049-9.477 12.025-17.327 25.341-26.397 37.679-5.238 7.125-12.608 13.897-16.67 21.714l0.395 0.673c-2.064 0.836-3.831 1.659-5.627 2.986-0.556-0.462-1.957-0.687-2.684-0.907 0.404-3.323 0.556-6.45 0.44-9.796l-2.641-0.788c0.372-0.885 1.141-1.693 1.724-2.459l0.646 0.231 0.275-0.319c0.117-0.18 5.11-27.409 5.042-28.119-24.807-11.772-52.216-18.176-79.551-20.237-8.4786-0.639-16.933-1.199-25.438-0.741l-18.721 1.529c-4.2547 0.548-9.8318 2.809-13.967 2.385 39.462-10.858 80.566-10.481 119.23 4.01 6.717 2.518 13.201 5.963 19.596 9.199 1-0.258 0.712-0.554 0.983-1.45 5.257-17.393 15.497-35.729 25.103-51.063 3.119-4.98 6.355-10.598 10.482-14.785z" fill="#2B2B2B"/> <path transform="scale(1.6141)" d="m218.2 279.53c2.318 0.83 3.243 2.552 4.818 4.288 8.056 8.882 15.104 14.425 27.077 16.512l-5.187 4.294c-2.507-1.695-5.79-2.288-8.612-3.367-8.133-3.112-13.173-9.171-18.558-15.704l1.62-4.235-1.158-1.788z" fill="#4F4E4C"/> <path transform="scale(1.6141)" d="m185.63 353.22c4.362 2.99 8.448 5.582 13.146 8.02l-11.267 14.097c-1.532 1.96-2.922 3.992-5.005 5.398l-2.016-1.575 5.142-25.94z" fill="#878785"/> <path transform="scale(1.6141)" d="m217.74 285.55c5.385 6.533 10.425 12.592 18.558 15.704 2.822 1.079 6.105 1.672 8.612 3.367-7.411 6.937-14.481 13.972-20.85 21.897-7.916 9.853-15.017 20.801-22.347 31.122-5.488-2.336-10.377-4.601-15.329-7.992 7.585-23.173 17.802-43.854 31.356-64.098z" fill="#878785"/> <path transform="scale(1.6141)" d="m210.28 388.8c11.82 1.201 25.733 7.699 33.292 17.085 4.767 5.918 7.529 13.628 6.638 21.235-0.953 8.14-4.813 14.213-11.21 19.226-5.874 4.603-13.805 7.212-20.937 9.1 4.578 9.309 16.437 13.608 25.756 16.767 14.012 4.75 27.814 6.037 42.462 7.182-9.5 5.217-20.911 5.422-31.45 4.618-11.912-0.91-22.01-2.814-33.474-6.059l-0.712 0.546c-1.448-0.598-2.856-1.33-4.446-1.374l0.051 0.493c2.001 0.917 4.102 1.285 5.938 2.5 0.727-0.063 1.007-0.238 1.639 0.152 1.367 0.845 3.326 1.407 4.923 1.417l0.358 0.301c0.821 0.547 1.451 0.332 2.355 0.522l1.037 0.428c0.745 0.183 1.383 0.155 2.134 0.411 1.192 0.407 2.853 0.573 4.116 0.839l1.875 0.153 0.584 0.121c2.289 0.461 5.421 0.935 7.697 1.031 1.65 0.069 2.561 0.975 4.427 1.01 1.05 1.762 2.233 3.453 3.089 5.318 0.403 0.878 0.78 1.386 1.427 2.089l-0.106 1.918c-2.008-2.276-3.037-6.276-5.03-8.215-0.735-0.716-21.452-3.592-25.018-4.644-12.578-3.712-30.031-11.09-39.718-20.375-3.931-2.449-8.909-6.542-11.744-10.213l-0.787-1.64c-2.773-1.489-6.708-3.61-8.687-6.025-4.442-3.491-8.416-5.187-11.73-10.161-4.084-6.129-4.006-10.821-2.6-17.719 1.516-3.042 2.391-6.094 4.553-8.813 5.266-6.622 15.371-13.443 23.858-14.517 8.202-2.146 17.727-2.211 26.163-1.894 1.746-0.656 2.116-1.389 3.277-2.813z" fill="#8B5437"/> <path transform="scale(1.6141)" d="m152.43 416.84c-0.064 7.093 1.288 11.64 6.417 16.815 9.735 9.823 27.332 12.678 40.529 12.434 13.128-0.244 30.801-1.426 40.453-11.443 4.483-4.652 5.12-9.852 5.413-16.034 2.196 4.537 2.086 8.752 0.435 13.48-2.04 5.842-6.134 10.098-11.716 12.684-15.749 7.296-33.351 8.588-50.293 5.325-3.121-0.601-6.605-1.066-9.605-2.125l-7.303-3.256c-4.442-3.491-8.416-5.187-11.73-10.161-4.084-6.129-4.006-10.821-2.6-17.719z" fill="#5F3420"/> <path transform="scale(1.6141)" d="m210.28 388.8c11.82 1.201 25.733 7.699 33.292 17.085 4.767 5.918 7.529 13.628 6.638 21.235-0.953 8.14-4.813 14.213-11.21 19.226-5.874 4.603-13.805 7.212-20.937 9.1-11.922 2.589-24.887 0.715-36.746-1.367l5.837 4.255c9.844 8.259 22.325 14.773 34.203 19.62l-0.712 0.546c-1.448-0.598-2.856-1.33-4.446-1.374l0.051 0.493c2.001 0.917 4.102 1.285 5.938 2.5 0.727-0.063 1.007-0.238 1.639 0.152 1.367 0.845 3.326 1.407 4.923 1.417l0.358 0.301c0.821 0.547 1.451 0.332 2.355 0.522l1.037 0.428c0.745 0.183 1.383 0.155 2.134 0.411 1.192 0.407 2.853 0.573 4.116 0.839l1.875 0.153 0.584 0.121c2.289 0.461 5.421 0.935 7.697 1.031 1.65 0.069 2.561 0.975 4.427 1.01 1.05 1.762 2.233 3.453 3.089 5.318 0.403 0.878 0.78 1.386 1.427 2.089l-0.106 1.918c-2.008-2.276-3.037-6.276-5.03-8.215-0.735-0.716-21.452-3.592-25.018-4.644-12.578-3.712-30.031-11.09-39.718-20.375-3.931-2.449-8.909-6.542-11.744-10.213l-0.787-1.64c-2.773-1.489-6.708-3.61-8.687-6.025l7.303 3.256c3 1.059 6.484 1.524 9.605 2.125 16.942 3.263 34.544 1.971 50.293-5.325 5.582-2.586 9.676-6.842 11.716-12.684 1.651-4.728 1.761-8.943-0.435-13.48-1.141-2.755-2.448-5.388-4.127-7.859-7.902-11.629-20.84-16.71-34.111-19.137 1.746-0.656 2.116-1.389 3.277-2.813z" fill="#1D1C1C"/> <path transform="scale(1.6141)" d="m189.8 399.61c7.272-0.743 16.28-0.714 22.846 2.826 3.507 1.891 5.537 4.491 6.675 8.286-0.359 1.451-0.746 2.769-1.684 3.964-4.354 5.55-12.857 6.309-19.317 7.056l-6.713 0.08c-8.247-0.426-16.522-1.504-22.339-7.963-0.537-1.956-0.631-3.183 0.489-5.005 3.935-6.404 13.375-7.903 20.043-9.244z" fill="#DFB09E"/> <path transform="scale(1.6141)" d="m187.15 458.33-5.837-4.255c11.859 2.082 24.824 3.956 36.746 1.367 4.578 9.309 16.437 13.608 25.756 16.767 14.012 4.75 27.814 6.037 42.462 7.182-9.5 5.217-20.911 5.422-31.45 4.618-11.912-0.91-22.01-2.814-33.474-6.059-11.878-4.847-24.359-11.361-34.203-19.62z" fill="#6D6D6B"/> <path transform="scale(1.6141)" d="m202.23 222.27c-12.133-6.594-20.381-18.407-26.056-30.738-12.074-26.236-13.677-57.093-3.577-84.248 8.285-22.273 22.718-40.603 42.184-54.153 4.64-3.2306 9.418-6.6101 14.605-8.9021 10.083-4.4555 22.449-1.6898 32.271 2.2773 40.788 16.474 66.055 54.868 82.45 93.882-20.685 5.027-40.387 11.708-58.467 23.196-0.439 0.355-1.978 1.348-2.181 1.765-0.433 0.891 0.292 1.154-0.65 1.967-1.384-1.88-0.906-3.285-1.166-5.465-0.533-4.473 0.307-9.863 0.318-14.475 0.012-5.342-0.608-10.65-0.947-15.981-0.211-3.325 0.051-6.619-1.148-9.778l-1.678-0.356 0.177-0.818c-1.378-3.468-1.723-7.81-2.58-11.493-2.272-9.7631-5.932-19.365-11.416-27.793-5.723-8.7936-16.234-19.031-26.818-21.143l-0.992-0.194c-3.007-0.6275-5.299-0.6068-8.312-0.2789-14.029 2.7251-23.579 10.038-31.544 21.921-14.652 21.857-22.9 53.706-17.776 79.836 4.075 20.78 15.816 40.628 33.667 52.422 3.972 2.624 8.329 4.355 12.773 5.997l0.923-0.2c-0.546 2.356-0.669 2.631 0.25 4.839l-4.69 7.7-3.24 6.845-1.405 0.779-0.855-1.386c0.663-2.743 1.811-5.287 2.898-7.882l-6.93-1.382c-2.808-2.753-7.032-4.007-10.088-6.759z" fill="#878785"/> <path transform="scale(1.6141)" d="m202.23 222.27c-0.847-3.016-5.688-6.121-7.939-8.401-18.201-18.438-25.091-45.742-24.96-70.955 0.109-20.936 6.969-40.489 17.833-58.248 3.718-6.0784 7.967-12.489 13.094-17.478 8.122-7.9039 19.888-13.168 31.291-12.912 13.834 0.31 23.824 6.914 32.925 16.688 15.838 17.01 21.903 42.445 22.296 65.092 0.158 9.122-0.802 18.402-1.13 27.529-0.439 0.355-1.978 1.348-2.181 1.765-0.433 0.891 0.292 1.154-0.65 1.967-1.384-1.88-0.906-3.285-1.166-5.465-0.533-4.473 0.307-9.863 0.318-14.475 0.012-5.342-0.608-10.65-0.947-15.981-0.211-3.325 0.051-6.619-1.148-9.778l-1.678-0.356 0.177-0.818c-1.378-3.468-1.723-7.81-2.58-11.493-2.272-9.7631-5.932-19.365-11.416-27.793-5.723-8.7936-16.234-19.031-26.818-21.143l-0.992-0.194c-3.007-0.6275-5.299-0.6068-8.312-0.2789-14.029 2.7251-23.579 10.038-31.544 21.921-14.652 21.857-22.9 53.706-17.776 79.836 4.075 20.78 15.816 40.628 33.667 52.422 3.972 2.624 8.329 4.355 12.773 5.997l0.923-0.2c-0.546 2.356-0.669 2.631 0.25 4.839l-4.69 7.7-3.24 6.845-1.405 0.779-0.855-1.386c0.663-2.743 1.811-5.287 2.898-7.882l-6.93-1.382c-2.808-2.753-7.032-4.007-10.088-6.759z" fill="#4F4E4C"/> <path transform="scale(1.6141)" d="m219.25 230.42 5.277-7.798c-3.598-1.016-7.057-2.079-10.362-3.883-17.4-9.497-29.539-26.113-35.05-45.024-8.639-29.642-3.251-59.796 11.53-86.501 6.624-11.966 17.744-25.256 31.451-29.07l0.873-0.2352 0.896-0.2824c7.721-2.3025 15.791-0.366 22.703 3.3419 15.359 8.2403 25.37 24.01 30.215 40.429 0.72 2.438 4.281 16.909 3.256 18.302-0.362 0.493-1.115 0.502-1.672 0.753-1.378-3.468-1.723-7.81-2.58-11.493-2.272-9.7631-5.932-19.365-11.416-27.793-5.723-8.7936-16.234-19.031-26.818-21.143l-0.992-0.194c-3.007-0.6275-5.299-0.6068-8.312-0.2789-14.029 2.7251-23.579 10.038-31.544 21.921-14.652 21.857-22.9 53.706-17.776 79.836 4.075 20.78 15.816 40.628 33.667 52.422 3.972 2.624 8.329 4.355 12.773 5.997l0.923-0.2c-0.546 2.356-0.669 2.631 0.25 4.839l-4.69 7.7-3.24 6.845-1.405 0.779-0.855-1.386c0.663-2.743 1.811-5.287 2.898-7.882z" fill="#373131"/> <path transform="scale(1.6141)" d="m228.25 59.544c3.013-0.3279 5.305-0.3486 8.312 0.2789l0.992 0.194c10.584 2.1125 21.095 12.35 26.818 21.143 5.484 8.4285 9.144 18.03 11.416 27.793 0.857 3.683 1.202 8.025 2.58 11.493l-0.177 0.818c0.01 5.854 1.036 11.671 1.438 17.508 0.462 6.718 0.207 13.482 0.029 20.208-0.074 2.782 0.322 6.837-0.887 9.334-8.713-0.427-16.078 4.164-22.338 9.882-6.789 6.201-13.292 13.732-17.681 21.812l-3.499 7.038c-2.37 4.93-6.076 8.024-8.96 12.473l-0.923 0.2c-4.444-1.642-8.801-3.373-12.773-5.997-17.851-11.794-29.592-31.642-33.667-52.422-5.124-26.13 3.124-57.979 17.776-79.836 7.965-11.882 17.515-19.196 31.544-21.921z" fill="#FBA55A"/> <path transform="scale(1.6141)" d="m228.25 59.544c3.013-0.3279 5.305-0.3486 8.312 0.2789l0.992 0.194c10.584 2.1125 21.095 12.35 26.818 21.143 5.484 8.4285 9.144 18.03 11.416 27.793 0.857 3.683 1.202 8.025 2.58 11.493l-0.177 0.818c0.01 5.854 1.036 11.671 1.438 17.508 0.462 6.718 0.207 13.482 0.029 20.208-0.074 2.782 0.322 6.837-0.887 9.334-8.713-0.427-16.078 4.164-22.338 9.882-6.789 6.201-13.292 13.732-17.681 21.812l-0.74-1.387c-2.516-4.942-2.421-10.96-2.719-16.39-0.642-11.707-1.249-23.627 2.105-35.009 2.338-7.935 6.583-15.08 8.992-22.968 5.026-16.459 1.378-37.612-6.752-52.62-2.292-4.2318-6.566-10.603-11.388-12.091z" fill="#CB885E"/> <path transform="scale(1.6141)" d="m1000.8 650.14-0.09-0.027-19.316-48.887c-8.236-20.674-15.781-40.798-16.252-63.404-0.657-31.524 11.977-61.115 33.768-83.695 20.75-21.502 51.52-33.149 81.11-33.622 38.42-0.614 79.23 18.973 106.5 45.45 24.22 23.52 42.42 52.498 54.63 83.892 5.26 13.516 10.41 28.391 12.16 42.834 0.6 4.944 0.44 10.147 0.52 15.129-1.86-4.388-2.32-9.356-4.07-13.837-9.78-25.115-21.6-49.062-37.6-70.856-18.81-25.642-44.38-51.459-74.81-62.693-8.15-3.009-16.48-4.514-25.03-5.835l-11.59-0.832c-24.23 1.121-49.52 7.728-66.44 26.276-10.7 11.721-15.41 23.926-18 39.376-0.82 0.261-2.21-0.015-3.09-0.067-1.07 7.364-0.81 14.596-0.6 22-2.25-0.902-4.46-1.926-6.88-2.269-8.509 0.086-16.365 1.333-22.607 7.707l-3.092 3.542 1.926 0.552c-3.167 4.27-5.61 8.756-8.094 13.436l8.316 25.749c1.581 4.771 2.841 11.311 5.875 15.227 1.183-0.239 1.755-1.667 2.438-2.646l0.841 0.641c-1.321 1.72-2.404 2.417-2.083 4.679 0.585 4.122 3.449 8.667 5.103 12.503 4.475 10.379 10.057 22.483 12.487 33.502l-1.79-0.205c-1.31-1.446-2.65-2.495-4.24-3.62z" fill="#4F4E4C"/> <path transform="scale(1.6141)" d="m1055.5 454.36c2.01 0.488 4.79-1.208 6.74-1.93 3.39-1.263 6.94-2.235 10.45-3.118 10.08-2.53 22.8-4.212 33.18-2.661l17.77 2.288c0.6 1.703 0.81 2.796 0.66 4.604-3.31 1.476-8.21 4e-3 -11.96 1.042l-11.59-0.832c-2.27-0.306-4.44-0.575-6.64-1.205-2.92-0.837-6.5-0.213-9.48 0.169-11.7 1.501-23.85 5.154-34.09 11.09-8.6 4.989-17.54 11.611-23.54 19.612-4.17 5.551-7.14 12.079-10.21 18.272l-4.31-5.133c5.79-13.248 16.08-25.61 28.22-33.543 4.02-2.63 8.65-4.327 12.37-7.385l0.46-0.391 1.97-0.879z" fill="#784E3E"/> <path transform="scale(1.6141)" d="m1107.1 429.39c25.08 6.685 49.29 18.521 69.19 35.237 20.89 17.544 35.47 39.002 48.58 62.636 2.89 5.225 7.53 12.149 8.06 18.182-2.21-1.164-4.52-6.18-5.85-8.348-8.97-14.58-19.35-28.723-31-41.277-14.65-15.787-29.61-28.245-49.03-37.743-3.04-1.487-6.15-2.934-9.35-4.044-2.34-0.812-10.05-1.912-11.55-3.363-0.81-0.787-1.95-4.837-2.56-6.044-3.58-7.001-10.19-10.995-16.49-15.236z" fill="#DFB09E"/> <path transform="scale(1.6141)" d="m1055.5 454.36-4.32-4.615c-8.32-7.58-18.7-8.553-29.46-8.107l1.66-1.047c22.92-13.595 51.98-17.538 77.65-10.648 9.86 2.648 17.65 10.384 22.61 18.996l-17.77-2.288c-10.38-1.551-23.1 0.131-33.18 2.661-3.51 0.883-7.06 1.855-10.45 3.118-1.95 0.722-4.73 2.418-6.74 1.93z" fill="#DFB09E"/> <path transform="scale(1.6141)" d="m1012.5 496.56c-4.3-3.243-7.92-5.399-13.314-6.205-8.732-1.305-16.58 3.49-23.246 8.495 5.587-16.003 13.483-30.086 25.64-42.02 4.2-4.123 10.76-10.828 16.45-12.554 3.46-1.051 8.65-0.536 12.28-0.488 9.95 0.132 16.54 4.551 23.24 11.453l-0.46 0.391c-3.72 3.058-8.35 4.755-12.37 7.385-12.14 7.933-22.43 20.295-28.22 33.543z" fill="#DFB09E"/> <path transform="scale(1.6141)" d="m980.05 550.32-7.065 10.868-2.415-15.879c-1.14-10.157-0.716-20.771 0.987-30.841 0.837-4.95 1.833-9.642 5.089-13.624 4.197-5.132 13.323-8.253 19.782-8.765 6.291-0.5 10.541 2.486 15.151 6.295 2.27 2.22 3.88 4.732 4.03 7.997 0.19 3.94-1.48 9.097-2.38 12.969-1.07 7.364-0.81 14.596-0.6 22-2.25-0.902-4.46-1.926-6.88-2.269-8.509 0.086-16.365 1.333-22.607 7.707l-3.092 3.542z" fill="#DFB09E"/> <path transform="scale(1.6141)" d="m1011.6 498.38c2.27 2.22 3.88 4.732 4.03 7.997 0.19 3.94-1.48 9.097-2.38 12.969-1.07 7.364-0.81 14.596-0.6 22-2.25-0.902-4.46-1.926-6.88-2.269 0.77-1.568 0.59-3.36 0.66-5.09 0.17-4.18 0.16-8.404 0.58-12.567 0.77-7.751 2.72-15.488 4.59-23.04z" fill="#98786B"/> <path transform="scale(1.6141)" d="m580.51 282.86 1.334 0.436-0.905 0.913c1.781 7.71 4.239 15.717 5.112 23.569 0.502 4.52 0.596 9.261 0.54 13.808-0.015 1.211-0.599 4.82-0.227 5.732 0.783 1.916 3.54 4.663 4.861 6.367 13.038 16.81 28.896 31.242 46.957 42.504 25.65 15.995 54.382 24.077 81.071 37.674 17.02 8.671 32.809 19.589 47.936 31.194 61.929 47.508 88.269 101.98 105.62 176.52 7.561 32.48 12.03 64.82 13.726 98.115 0.821 16.131 1.64 32.756 0.762 48.9-0.919 16.881-3.905 33.876-7.605 50.349 7.164-0.066 14.425 0.058 21.543-0.86 28.677-3.697 55.121-15.903 75.406-36.532 22.715-23.101 31.926-55.608 31.556-87.408l-2.12-22.718-5.25-21.286c1.59 1.125 2.93 2.174 4.24 3.62l1.79 0.205c-2.43-11.019-8.012-23.123-12.487-33.502-1.654-3.836-4.518-8.381-5.103-12.503-0.321-2.262 0.762-2.959 2.083-4.679l-0.841-0.641c-0.683 0.979-1.255 2.407-2.438 2.646-3.034-3.916-4.294-10.456-5.875-15.227l-8.316-25.749c2.484-4.68 4.927-9.166 8.094-13.436l-1.926-0.552 3.092-3.542c6.242-6.374 14.098-7.621 22.607-7.707 2.42 0.343 4.63 1.367 6.88 2.269-0.21-7.404-0.47-14.636 0.6-22 0.88 0.052 2.27 0.328 3.09 0.067-0.53 10.646-0.22 20.926 1.74 31.436 5.36 28.661 19.63 55.146 29.37 82.434 16.27 45.615 21.58 99.107 1.22 144.32-9.34 20.736-24.66 39.874-41.44 55.075-36.46 33.033-89.73 53.935-139.25 51.512-5.238-0.256-10.692-0.623-15.859-1.498-3.9-0.661-9.347-2.614-13.181-2.466-1.419 0.055-4.725 2.533-6.04 3.312l-13.406 7.113-16.299 7.018c-3.336 1.253-8.578 2.403-11.393 4.445 3.035 2.831 6.742 5.646 7.401 9.983-2.039 6.241-7.559 9.811-13.153 12.687-12.686 6.523-26.645 8.743-40.406 11.741-17.577 3.83-35.345 8.089-51.452 16.315-6.835 3.49-13.082 8.186-18.653 13.45-15.974 15.088-27.472 31.969-52.42 26.005l-4.889-6.655c-8.254 3.853-15.262 5.892-24.421 5.987-2.677 0.028-5.457 0.137-8.023-0.732-2.61-0.884-4.491-2.415-5.778-4.833-0.877-2.092-1.382-4.431-2.003-6.615-2.525-0.13-5.69 1.552-8.302 1.962-7.069 1.108-18.206 0.128-22.228-6.834-1.644-2.847-1.611-5.332-4.371-7.314-5.325-3.821-7.483-7.084-8.45-13.601-1.217-8.201 3.918-17.729 8.642-24.068 15.631-20.977 41.803-28.579 66.556-32.168l34.086-4.448c-3.325-2.121-8.54-5.524-12.481-5.93-3.251-0.335-6.867 0.083-10.165 0.173l-17.299 0.127c-20.327-0.184-40.606-1.553-60.693-4.794-18.551-2.993-36.77-7.413-54.668-13.12l-20.149-7.111-28.844 6.904c6.052 3.585 12.343 8.025 14.129 15.312 0.941 3.839-0.646 8.191-2.748 11.396-4.003 6.104-11.367 9.321-18.286 10.63-14.084 2.665-27.409 1.218-41.553 0.713-15.083-0.537-30.579-0.112-45.459 2.621-9.871 1.813-19.322 5.066-28.544 8.989-18.596 7.91-35.844 19.007-56.573 20.276-4.601 0.281-9.139 0.402-13.562-1.103-1.657-0.564-3.42-1.271-4.836-2.318-1.942-1.437-2.48-3.355-3.252-5.515l-0.555-1.445c-9.098 3.164-17.373 5.842-26.65 1.462-3.133-1.479-5.849-4.011-6.951-7.389-0.34-1.044-0.509-2.179-0.473-3.275-0.222-0.551-0.26-1.219-0.666-1.653-0.219-0.234-9.014 0.625-13.468-2.979-2.071-1.675-3.072-5.555-3.14-8.164-0.238-9.107 3.666-16.647 9.727-23.175 17.889-19.263 48.463-29.54 74.367-30.42 13.928-1.612 28.03-0.441 41.998 0.36 8.596 0.493 18.191 1.685 26.721 0.361-2.641-3.024-6.518-4.677-9.759-6.993-5.935-4.241-11.909-8.943-17.059-14.106-13.146-13.181-22.907-30.437-24.132-49.29-0.62-9.535 0.426-19.135 0.454-28.683l-0.578 0.036c-3.09-0.128-7.138-4.958-9.377-7.084 0.899 6.832 0.117 14.27-3.393 20.28-1.629 1.025-2.653 1.951-4.713 1.302-8.283-2.608-13.771-12.475-16.863-19.842-0.836-2.284-1.478-4.757-3.155-6.568l-1.857 2.104c-1.865 1.781-4.347 2.798-6.952 2.614-2.138-0.15-4.131-1.02-5.485-2.709-4.039-5.037-4.165-13.252-3.562-19.364 1.569-15.896 9.714-32.005 22.142-42.128 1.614-1.315-0.585-7.532-0.962-9.776-1.59-9.469-0.798-19.335 0.205-28.829 2.756-26.081 10.19-51.338 18.468-76.126l18.281-49.705c-4.438-2.054-10.195-1.306-14.903-2.935-8.11-2.808-15.075-11.685-18.508-19.362l-0.395-0.919 0.106-1.918c-0.647-0.703-1.024-1.211-1.427-2.089-0.856-1.865-2.039-3.556-3.089-5.318-1.866-0.035-2.777-0.941-4.427-1.01-2.276-0.096-5.408-0.57-7.697-1.031l-0.584-0.121-1.875-0.153c-1.263-0.266-2.924-0.432-4.116-0.839-0.751-0.256-1.389-0.228-2.134-0.411l-1.037-0.428c-0.904-0.19-1.534 0.025-2.355-0.522l-0.358-0.301c-1.597-0.01-3.556-0.572-4.923-1.417-0.632-0.39-0.912-0.215-1.639-0.152-1.836-1.215-3.937-1.583-5.938-2.5l-0.051-0.493c1.59 0.044 2.998 0.776 4.446 1.374l0.712-0.546c11.464 3.245 21.562 5.149 33.474 6.059 10.539 0.804 21.95 0.599 31.45-4.618 15.509-6.142 30.085-18.278 43.366-28.263 5.044-3.792 10.53-7.216 14.955-11.745l-6.607-2.826 0.332-0.452-0.827-0.688c0.853-0.052 1.576-0.057 2.373-0.405l0.439-0.229 7.063 2.398 17.721-15.733c3.7-3.352 9.374-6.938 10.439-12.023 1.988-0.71 3.559-0.447 5.535 0.43 0.807 0.358 1.482 0.933 2.119 1.529-5.625 7.711-12.178 13.83-19.556 19.808-3.601 2.917-7.164 5.194-10.282 8.691 12.799 6.321 24.682 12.322 36.1 21.072-1.105-0.2-2.211-0.673-3.276-1.034-3.024 1.301-6.771 0.165-10.007-0.345-11.728-1.85-20.877 4.282-27.485 13.328l10.104-2.739c-1.322 3.472-7.306 6.426-10.144 9.288-9.542 9.624-18.192 20.571-28.429 29.437-2.038 1.765-4.635 3.398-7.089 4.516-2.983 1.359-6.945 2.086-9.565 3.984 0.949 2.251 1.798 4.64 2.996 6.766 9.444 25.595 10.582 54.242 13.799 81.214 2.96 24.815 6.287 49.503 12.752 73.7 9.503 35.571 26.108 70.772 46.997 101.04 4.649 6.737 9.596 13.46 14.899 19.695 2.853 3.354 6.297 6.16 8.826 9.75 2.614 3.709 6.742 7.08 10.536 9.542 13.743 6.889 26.77 15.329 40.901 21.53 14.195 6.23 28.926 10.575 43.998 14.111 30.8 7.226 66.066 10.711 96.61 0.42l3.169-1.152c-24.176-44.234-25.141-101.53-11.093-149.36 12.742-43.39 40.938-82.128 81.103-103.7 25.721-13.815 57.675-15.131 85.196-6.648 18.874 5.817 35.955 17.292 49.695 31.308 2.236 2.282 5.061 4.687 6.799 7.365-1.488 0-6.829-5.815-8.347-7.108-5.435-4.629-11.807-8.644-17.905-12.37-35.546-21.719-79.93-24.283-116.76-4.232-10.748 5.852-20.312 13.605-28.941 22.224-35.936 35.895-53.902 86.796-53.882 137.2 0.013 33.647 6.483 72.753 31.225 97.488 4.285 4.284 9.294 9.133 15.073 11.257 6.517 1.04 12.388 4.003 18.652 5.898 11.35 3.436 23.326 6.313 35.057 8.074 45.2 6.788 95.018-0.361 132.37-28.27 37.166-27.771 53.229-72.015 58.984-116.62l2.199-21.991c0.282-4.356 0.226-8.654 0.89-12.988l0.126-0.804c0.502-11.329-0.99-23.045-2.578-34.242-2.716-19.164-6.832-37.837-11.448-56.618-14.368-58.448-38.435-115.15-83.582-156.51-7.349-6.732-15.701-12.71-23.841-18.45-9.763-6.886-19.726-13.706-30.39-19.145-28.393-14.483-58.811-25.323-86.611-40.819-11.719-6.532-22.621-14.29-33.333-22.343-3.817 8.046-7.22 16.008-12.149 23.483-18.837 28.563-51.958 55.484-84.308 67.016l-11.2 3.247c-6.292 0.023-12.467-0.325-18.723-0.993-2.49-0.266-5.388-0.351-7.7-1.353-1.676-0.727-3.509-0.668-5.31-0.731-3.597-0.031-7.235 0.073-10.785-0.571l-1.385-0.328c1.879-1.931 13.919-2.463 17.144-3.125 4.375-0.898 8.595-2.005 12.823-3.444 19.834-6.751 37.301-15.831 53.433-29.336 24.402-20.429 38.835-52.161 41.514-83.567 1.117-13.098 0.275-25.803-2.294-38.694-0.621-3.119-1.004-7.262-3.098-9.738l4.841-1.601z" fill="#2B2B2B"/> <path transform="scale(1.6141)" d="m245 932.12-0.877-0.708c-1.312-2.809-0.383-5.343 0.549-8.146 1.437 2.556 2.745 4.272 4.968 6.207l-3.82 0.649c-0.457 0.757-0.665 1.107-0.82 1.998z" fill="#784E3E"/> <path transform="scale(1.6141)" d="m1006.6 540.71c2.07 0.931 4.09 1.688 6.27 2.326 1.65 10.596 3.73 20.895 7.16 31.077 2.04 6.048 5.06 12.166 6.57 18.345-2.21-0.841-3.16-1.724-5.62-1.935l-0.82-0.1c1.18-2.386-1.85-7.612-2.83-10.152-4.95-12.849-8.81-25.915-10.73-39.561z" fill="#98786B"/> <path transform="scale(1.6141)" d="m1023 594.33c2.14 1.051 5.01 2.205 6.43 4.18 2.6 3.597 3.8 8.902 5.37 13.071l8.73 23.161c2.37 6.954 5.44 14.773 6.39 22.04-2.9-2.162-5.7-4.7-9.3-5.509l0.08-0.31 0.99-0.858c-4.14-18.895-12.82-37.302-18.69-55.775z" fill="#98786B"/> <path transform="scale(1.6141)" d="m1043.9 655.25c1.55 1.166 5.28 3.318 6.34 4.771 0.9 1.237 1.64 4.071 2.09 5.581 1.9 6.308 2.85 12.992 3.76 19.502 1.45 10.318 2.97 21.523 1.54 31.917l-7.72-8.881c1.79-2.634 0.74-7.407 0.51-10.603-1.07-14.522-4.05-28.018-6.52-42.287z" fill="#98786B"/> <path transform="scale(1.6141)" d="m582.47 978.32 0.383 0.22c21.319 10.465 32.214-15.665 43.637-28.146 5.201-5.684 11.758-10.541 19.058-13.089l-2.379 2.342c-11.485 7.724-17.738 15.962-21.657 29.298-0.823 2.8-1.316 7.138-2.688 9.616-0.651 1.177-3.191 2.444-4.391 3.097-7.703 4.197-18.509 7.352-27.303 5.349-0.955-0.217-1.804-0.782-2.603-1.319l-0.612-0.404-1.283-0.981-0.162-5.983z" fill="#8B5437"/> <path transform="scale(1.6141)" d="m1050.1 712.28 7.57 9.795c-2.63 21.864-6.61 41.195-16.87 60.92l-0.42 0.269c-1.39-3.616-3.12-10.385-5.54-13.177l0.48-0.249c1.88-1.35 3.35-5.843 4.22-7.972 6.75-16.51 8.83-31.997 10.56-49.586z" fill="#98786B"/> <path transform="scale(1.6141)" d="m279.18 499.6c-3.731-2.591-5.609-6.517-7.701-10.408 19.546-4.749 36.771-14.143 51.919-27.397l-10.857 25.827c-1.384 2.654-1.48 2.749-4.252 3.683-3.702 4.665-8.227 9.892-14.549 10.589l-6.69 0.419-0.671-0.437c-0.887-0.532-1.542-0.503-2.545-0.531-1.909-0.054-3.069-0.763-4.654-1.745z" fill="#C93231"/> <path transform="scale(1.6141)" d="m279.18 499.6c0.754-1.298 1.641-2.556 2.613-3.702 8.317-9.795 19.076-12.581 31.311-13.462l-4.815 8.869c-3.702 4.665-8.227 9.892-14.549 10.589l-6.69 0.419-0.671-0.437c-0.887-0.532-1.542-0.503-2.545-0.531-1.909-0.054-3.069-0.763-4.654-1.745z" fill="#F46262"/> <defs> <linearGradient id="d" x1="1006.7" x2="1020.6" y1="785.38" y2="823.82" gradientUnits="userSpaceOnUse"> <stop stop-color="#946E68" offset="0"/> <stop stop-color="#AA8676" offset="1"/> </linearGradient> </defs> <path transform="scale(1.6141)" d="m1034 773.31c2.07 4.274 3.54 8.293 4.74 12.887-11.8 19.857-27.81 34.131-44.416 49.838l-6.222-13.388c20.088-12.523 33.928-29.295 45.898-49.337z" fill="url(#d)"/> <path transform="scale(1.6141)" d="m716.55 910.31c12.824 0.019 26.359 0.527 39.059-1.284l21.799-3.429c1.296-0.195 4.352-1.024 5.502-0.808 1.823 0.342 5.821 3.146 7.052 4.499 0.864 0.951 1.626 2.124 1.497 3.419-0.242 2.419-2.691 4.496-4.568 5.835-4.512 3.22-10.748 5.509-15.988 7.27-11.476 3.857-23.174 6.228-34.968 8.847-13.839 3.073-28.332 6.811-41.008 13.187-7.646 3.845-15.21 8.48-21.708 14.081-11.602 10-21.102 25.32-37.9 26.448-2.235 0.15-5.003 0.377-7.192-0.14-1.849-0.436-2.927-1.992-4.194-3.303l-0.326-6.414c1.422 0.304 2.817 1.067 4.202 1.554 16.326 5.748 30.145-11.113 41.499-20.444 6.428-5.282 13.641-10.274 21.187-13.847 14.923-7.066 31.864-9.208 46.69-16.19 4.225-1.99 9.028-4.965 10.525-9.675 0.641-2.017-0.134-2.694-1.109-4.418-5.325-2.711-11.423-2.185-17.229-2.849-4.293-0.491-8.592-1.459-12.822-2.339z" fill="#8B5437"/> <path transform="scale(1.6141)" d="m981.98 550.88 3.614-3.185c5.751-4.652 13.445-7.742 20.969-6.976 1.92 13.646 5.78 26.712 10.73 39.561 0.98 2.54 4.01 7.766 2.83 10.152-8.27-1.217-14.85-1.45-21.907 3.806-3.137 2.335-5.599 5.119-7.701 8.408-0.683 0.979-1.255 2.407-2.438 2.646-3.034-3.916-4.294-10.456-5.875-15.227l-8.316-25.749c2.484-4.68 4.927-9.166 8.094-13.436z" fill="#DFB09E"/> <path transform="scale(1.6141)" d="m348.68 472.91c-4.361 3.479-8.87 6.93-12.801 10.895-9.517 9.598-18.265 22.603-31.194 27.741-7.889 3.134-19.225 3.56-27.051-0.102-6.479-3.031-11.286-9.913-15.104-15.685-1.509-2.281-3.26-4.625-4.191-7.198 1.721-0.915 3.814-0.731 5.72-0.779 2.848 2.176 4.063 5.975 6.046 8.906 3.308 4.889 9.288 9.348 15.124 10.533 4.233 0.86 7.749 0.039 11.744-1.373 21.32-7.535 22.49-31.947 34.362-47.92 2.357-3.171 5.522-5.089 8.543-7.528 3.454-2.789 6.787-5.93 10.508-8.35l35.786 17.877c-3.024 1.301-6.771 0.165-10.007-0.345-11.728-1.85-20.877 4.282-27.485 13.328z" fill="#878785"/> <path transform="scale(1.6141)" d="m991.35 603.28c4.15-5.201 10.767-10.852 17.627-11.779 4.43-0.599 10.51 0.041 13.99 2.828 5.87 18.473 14.55 36.88 18.69 55.775l-0.99 0.858c-6.5-3.236-14.2-5.795-21.48-3.172l-0.75 0.299-0.92 0.352c-3.66 1.44-6.4 4.102-9.08 6.889l-1.58-1.366c-2.43-11.019-8.012-23.123-12.487-33.502-1.654-3.836-4.518-8.381-5.103-12.503-0.321-2.262 0.762-2.959 2.083-4.679z" fill="#DFB09E"/> <path transform="scale(1.6141)" d="m1006.9 653.97 1.58 1.366c2.68-2.787 5.42-5.449 9.08-6.889l0.92-0.352 0.75-0.299c7.28-2.623 14.98-0.064 21.48 3.172l-0.08 0.31-0.58 0.826c1.27 0.91 2.97 1.876 3.86 3.151 2.47 14.269 5.45 27.765 6.52 42.287 0.23 3.196 1.28 7.969-0.51 10.603-4.84-3.559-10.2-6.734-16.22-7.627-8.89-1.319-13.27 1.675-20.12 6.748 0.45-10.416 0.1-20.969-1.52-31.27-2.35-2.551-1.72-3.288-2.64-6.457l-0.94-0.315-2.36 2.207-5.25-21.286c1.59 1.125 2.93 2.174 4.24 3.62l1.79 0.205z" fill="#DFB09E"/> <path transform="scale(1.6141)" d="m1006.9 653.97 1.58 1.366c2.68-2.787 5.42-5.449 9.08-6.889l0.92-0.352 0.75-0.299c7.28-2.623 14.98-0.064 21.48 3.172l-0.08 0.31-0.58 0.826c-5.82-2.367-11.83-3.891-18.13-2.654l-0.84 0.152c-4.51 0.909-9.76 4.306-12.8 7.727l3.78 18.667c-2.35-2.551-1.72-3.288-2.64-6.457l-0.94-0.315-2.36 2.207-5.25-21.286c1.59 1.125 2.93 2.174 4.24 3.62l1.79 0.205z" fill="#373131"/> <path transform="scale(1.6141)" d="m1034.8 770.09c-6.7-7.537-12.92-13.605-23.29-15.168-3.49-0.526-6.44-0.151-9.91 0.368 3.4-8.519 6.59-17.09 8.43-26.11 1.15-5.64 1.42-12 3.15-17.442 0.68-2.127 1.79-4.001 3.45-5.507 3.84-3.501 8.9-4.358 13.91-4.2 7.8 0.246 14.33 4.668 19.52 10.252-1.73 17.589-3.81 33.076-10.56 49.586-0.87 2.129-2.34 6.622-4.22 7.972l-0.48 0.249z" fill="#DFB09E"/> <path transform="scale(1.6141)" d="m988.08 822.64c-6.282-10.295-10.439-17.963-21.366-24.006 8.813-8.768 17.914-17.153 25.551-26.998 3.763-4.852 5.752-10.823 9.993-15.282 3.27-0.038 6.92-0.266 10.15 0.326 9.34 1.712 16.37 9.245 21.57 16.623-11.97 20.042-25.81 36.814-45.898 49.337z" fill="#DFB09E"/> <path transform="scale(1.6141)" d="m457.53 452.69c6.204-0.681 12.655 0.336 18.959-0.26 22.218-2.103 43.21-12.446 60.967-25.504 28.953-21.289 43.612-53.665 48.755-88.391 1.182 0.379 4.287 5.515 5.315 6.784 4.733 5.839 9.901 11.884 15.608 16.787l0.571 0.486c-3.817 8.046-7.22 16.008-12.149 23.483-18.837 28.563-51.958 55.484-84.308 67.016l-11.2 3.247c-6.292 0.023-12.467-0.325-18.723-0.993-2.49-0.266-5.388-0.351-7.7-1.353-1.676-0.727-3.509-0.668-5.31-0.731-3.597-0.031-7.235 0.073-10.785-0.571z" fill="#4F4E4C"/> <path transform="scale(1.6141)" d="m414.36 819.1c13.743 6.889 26.77 15.329 40.901 21.53 14.195 6.23 28.926 10.575 43.998 14.111 30.8 7.226 66.066 10.711 96.61 0.42l3.169-1.152c5.746 10.833 14.595 18.97 23.701 26.864-19.429-7e-3 -39.146 0.174-58.506-1.584-17.959-1.63-35.445-4.846-52.921-9.241-30.613-7.699-63.96-22.238-88.202-42.747-3.032-2.566-6.677-4.732-8.75-8.201z" fill="#4F4E4C"/> <path transform="scale(1.6141)" d="m366.95 864.94c13.694 1.636 27.061 4.932 40.864 5.909 4.225 0.3 8.535 0.667 12.769 0.596 3.451-0.058 8.33-1.074 11.639-1e-3 4.214 1.365 9.827 5.643 12.579 9.078 1.984 2.477 3.587 5.901 2.984 9.166-0.621 3.357-2.719 5.492-5.496 7.265-10.124 6.468-24.83 5.771-36.412 5.785l-30.25 0.05c-7.871 0.124-16.258 0.849-24.063 1.985-14.76 2.148-28.404 7.61-42.095 13.207l-21.393 9.939c-8.362 3.525-16.794 5.859-25.795 6.888-3.671 0.42-8.035 0.921-11.676 0.127-1.674-0.366-4.468-1.546-5.602-2.813 0.155-0.891 0.363-1.241 0.82-1.998l3.82-0.649c3.746 1.248 7.478 2.153 11.453 1.757 9.326-0.929 16.352-5.481 24.503-9.438l23.669-10.835c13.55-5.658 28.585-9.543 43.051-11.922 9.099-1.497 25.851-2.711 31.796-10.582 1.337-1.771 1.863-3.895 1.501-6.088-1.232-7.44-12.959-13.364-18.666-17.426z" fill="#8B5437"/> <path transform="scale(1.6141)" d="m879.49 710.72c3.147 6.825 2.25 16.742 2.25 24.17-1e-3 30.484-1.312 63.903-11.898 92.797-10.453 28.534-29.29 46.642-56.715 59.22-39.281 18.015-79.457 20.535-121.56 12.91-11.048-2-22.293-4.416-32.844-8.34-8.579-3.19-20.908-7.518-27.508-14.053 6.517 1.04 12.388 4.003 18.652 5.898 11.35 3.436 23.326 6.313 35.057 8.074 45.2 6.788 95.018-0.361 132.37-28.27 37.166-27.771 53.229-72.015 58.984-116.62l2.199-21.991c0.282-4.356 0.226-8.654 0.89-12.988l0.126-0.804z" fill="#4F4E4C"/> <path transform="scale(1.6141)" d="m260.65 671.08 1.522 7.186c5.716-1.389 11.03-2.493 16.913-1.353 2.783 0.743 5.572 1.399 8.211 2.573 1.415 1.871 2.945 3.699 4.001 5.801l-2.619-0.216c1.708 2.864 3.07 6.324 6.39 7.453l1.276 5.081c2.897-0.982 6.36-0.465 9.074 0.918 2.456 1.253 4.484 3.633 6.366 5.614 1.453 2.865 2.905 6.417 2.015 9.707-0.584 2.161-2.598 3.941-4.42 5.065-4.462 0.401-6.496-0.364-10.335-2.595-0.515-0.3-0.923-0.437-1.505-0.548l-1.91-0.807-1.031 1.154 0.404 3.924c2.999 3.978 3.602 7.739 5.375 12.246 1.219 3.097 2.961 5.966 4.662 8.814 1.185 2.678 2.985 6.465 1.815 9.408-0.817 2.054-3.612 4.304-5.688 4.954-1.496 0.469-3.192 0.163-4.712-0.025l-0.934-0.11-0.559-0.087-3.035-1.39-2.599 0.251 0.027 0.741-0.578 0.036c-3.09-0.128-7.138-4.958-9.377-7.084 0.899 6.832 0.117 14.27-3.393 20.28-1.629 1.025-2.653 1.951-4.713 1.302-8.283-2.608-13.771-12.475-16.863-19.842-0.836-2.284-1.478-4.757-3.155-6.568l-1.602-1.863c1.399-4.06 2.077-9.375 4.654-12.729-0.011-1.479-0.02-1.651-0.826-2.88-1.747 0.917-2.717 3.921-3.407 5.748-1.698 4.498-2.814 9.058-6.524 12.381l-1.691-0.252c-2.456-1.727-3.822-3.982-4.511-6.902-3.28-13.884 5.62-30.276 12.414-41.856l-0.376-0.713c0.457-0.994 0.827-1.784 1.517-2.648l1.9-2.33c0.85-1.139 1.637-1.98 2.806-2.807 1.773-1.253 3.189-3.078 5.156-4.066l0.781-0.31c1.795-1.193 3.393-0.278 5-1.875l1.876 0.306 0.312-1.25-1.031-0.877-3.043 0.898c-1.673 0.256-2.409-0.023-3.732-0.959-0.345-0.898-0.693-1.6-0.598-2.578l0.3-4.321z" fill="#CB885E"/> <path transform="scale(1.6141)" d="m274.2 742.85c-0.517-4.206-0.482-8.136-0.233-12.362 2.311 2.355 3.99 5.506 5.739 8.303l-2.964-1.545-0.437-0.126c-1.769 1.891-1.69 3.238-2.105 5.73z" fill="#41332B"/> <path transform="scale(1.6141)" d="m274.2 742.85c0.415-2.492 0.336-3.839 2.105-5.73-0.204 5.373 2.179 12.78 0.072 17.747l-0.462 1.986-1.715-14.003z" fill="#373131"/> <path transform="scale(1.6141)" d="m254.32 728.37c0.098 7.391 1.201 13.469 3.56 20.509l-3.457 0.651c-0.836-2.284-1.478-4.757-3.155-6.568l-1.602-1.863c1.399-4.06 2.077-9.375 4.654-12.729z" fill="#1D1C1C"/> <path transform="scale(1.6141)" d="m283.4 681.87c2.138 0.835 3.627 1.576 5.27 3.198 1.708 2.864 3.07 6.324 6.39 7.453l1.276 5.081-0.634 11.548c-0.96-1.16-1.432-3.483-1.934-4.922-2.943-8.424-4.769-15.688-11.42-22.022l1.052-0.336z" fill="#5F3420"/> <path transform="scale(1.6141)" d="m276.74 737.25 2.964 1.545c2.145 2.685 4.338 5.237 6.774 7.661 0.735 0.731 2.527 2.075 2.89 2.986 0.776 1.464 1.502 3.129 2.55 4.406l-2.599 0.251 0.027 0.741-0.578 0.036c-3.09-0.128-7.138-4.958-9.377-7.084-1.205-3.307-1.368-7.059-2.651-10.542z" fill="#373131"/> <path transform="scale(1.6141)" d="m260.65 671.08 1.522 7.186c5.716-1.389 11.03-2.493 16.913-1.353 2.783 0.743 5.572 1.399 8.211 2.573 1.415 1.871 2.945 3.699 4.001 5.801l-2.619-0.216c-1.643-1.622-3.132-2.363-5.27-3.198l-1.052 0.336c-6.868-1.778-14.314-2.682-20.852 1.006-3.073 1.734-5.816 4.583-8.121 7.216-0.506 0.577-3.237 4.12-3.601 4.179l-0.376-0.713c0.457-0.994 0.827-1.784 1.517-2.648l1.9-2.33c0.85-1.139 1.637-1.98 2.806-2.807 1.773-1.253 3.189-3.078 5.156-4.066l0.781-0.31c1.795-1.193 3.393-0.278 5-1.875l1.876 0.306 0.312-1.25-1.031-0.877-3.043 0.898c-1.673 0.256-2.409-0.023-3.732-0.959-0.345-0.898-0.693-1.6-0.598-2.578l0.3-4.321z" fill="#373131"/> <path transform="scale(1.6141)" d="m295 720.04c2.999 3.978 3.602 7.739 5.375 12.246 1.219 3.097 2.961 5.966 4.662 8.814 1.185 2.678 2.985 6.465 1.815 9.408-0.817 2.054-3.612 4.304-5.688 4.954-1.496 0.469-3.192 0.163-4.712-0.025l-0.934-0.11-0.559-0.087-3.035-1.39c-1.048-1.277-1.774-2.942-2.55-4.406 1.823 0.681 3.373 1.182 5.316 1.365 2.568-1.548 4.371-3.428 6.408-5.594-2.447-8.487-4.847-16.408-6.098-25.175z" fill="#784E3E"/> <defs> <linearGradient id="c" x1="272.46" x2="264.47" y1="746.99" y2="764.61" gradientUnits="userSpaceOnUse"> <stop stop-color="#221E1C" offset="0"/> <stop stop-color="#423835" offset="1"/> </linearGradient> </defs> <path transform="scale(1.6141)" d="m276.31 737.12 0.437 0.126c1.283 3.483 1.446 7.235 2.651 10.542 0.899 6.832 0.117 14.27-3.393 20.28-1.629 1.025-2.653 1.951-4.713 1.302-8.283-2.608-13.771-12.475-16.863-19.842l3.457-0.651c4.321 6.347 6.892 12.258 14.617 15.076 1.158-0.288 1.284-0.164 1.88-1.197 1.053-1.824 1.043-3.9 1.537-5.903l0.462-1.986c2.107-4.967-0.276-12.374-0.072-17.747z" fill="url(#c)"/> <path transform="scale(1.6141)" d="m888.22 825.3c5.025-0.179 10.161-1.2 15.141-1.945 15.297-2.289 29.467-5.837 43.354-12.855 6.53-3.3 12.687-7.577 18.847-11.517 10.381 6.286 15.731 13.955 21.116 24.512l5.641 13.987c-10.449 7.032-21.152 14.258-32.417 19.94-36.007 18.161-75.518 22.181-115.17 18.269 16.759-14.214 25.999-30.981 33.53-51.304l9.961 0.913z" fill="#98786B"/> <path transform="scale(1.6141)" d="m888.22 825.3c5.025-0.179 10.161-1.2 15.141-1.945 15.297-2.289 29.467-5.837 43.354-12.855 6.53-3.3 12.687-7.577 18.847-11.517 10.381 6.286 15.731 13.955 21.116 24.512-2.437 2.648-6.409 4.343-9.578 5.994-15.384 8.015-31.012 12.372-47.984 15.486-1.771-6.369-3.699-18.023-10.093-21.469l-0.582-0.286-0.386 0.726c4.348 6.932 7.069 12.736 8.068 21.031-10.885-0.628-21.168-1.746-31.26-6.225-3.192-1.416-7.031-3.519-9.233-6.287-0.878-1.104-1.252-2.488-1.603-3.83 0.514-1.723 1.162-2.097 2.825-2.865 0.617-0.286 0.786-0.312 1.368-0.47z" fill="#DFB09E"/> <path transform="scale(1.6141)" d="m260.65 671.08c-2.603-42.5 11.71-85.766 25.834-125.34 3.358-9.408 5.45-19.38 11.243-27.675 5.623 12.239 7.734 26.727 9.211 39.999 3.823 18.271 4.083 37.861 6.304 56.449l2.241 16.873c1.203 6.785 3.045 14.124 2.716 21.027l-8.149 42.3c-2.487-1.228-5.012-2.598-7.701-3.32-1.905-0.512-6.651-0.734-8.072-1.726-0.9-0.628-2.271-3.332-2.98-4.381-1.056-2.102-2.586-3.93-4.001-5.801-2.639-1.174-5.428-1.83-8.211-2.573-5.883-1.14-11.197-0.036-16.913 1.353l-1.522-7.186z" fill="#878785"/> <path transform="scale(1.6141)" d="m306.93 558.06c3.823 18.271 4.083 37.861 6.304 56.449l2.241 16.873c1.203 6.785 3.045 14.124 2.716 21.027l-8.149 42.3c-2.487-1.228-5.012-2.598-7.701-3.32-1.905-0.512-6.651-0.734-8.072-1.726-0.9-0.628-2.271-3.332-2.98-4.381-1.056-2.102-2.586-3.93-4.001-5.801 2.902-5.871 5.589-12.638 7.144-19.005 3.603-14.753 4.873-30.1 6.835-45.139 2.452-18.791 5.985-38.306 5.663-57.277z" fill="#4F4E4C"/> <path transform="scale(1.6141)" d="m271.13 853.19c13.928-1.612 28.03-0.441 41.998 0.36 8.596 0.493 18.191 1.685 26.721 0.361 2.9 3.442 8.969 3.01 12.975 5.933l14.127 5.093c5.707 4.062 17.434 9.986 18.666 17.426 0.362 2.193-0.164 4.317-1.501 6.088-5.945 7.871-22.697 9.085-31.796 10.582-14.466 2.379-29.501 6.264-43.051 11.922l-23.669 10.835c-8.151 3.957-15.177 8.509-24.503 9.438-3.975 0.396-7.707-0.509-11.453-1.757-2.223-1.935-3.531-3.651-4.968-6.207 3.681-8.858 8.794-15.103 16.474-20.907 12.179-9.205 26.659-12.91 41.784-12.153 5.714 0.287 11.617 1.432 17.306 2.193-9.453-5.927-22.926-6.617-33.655-4.747-17.973 3.134-34.244 13.579-44.736 28.512-1.061 2.545-2.009 5.135-3.729 7.322l-3.074 2.055c-5.049 2.77-13.789 4.225-19.305 2.306-4.804-1.671-6.017-3.87-8.19-8.164l-3.241-0.1c-0.222-0.551-0.26-1.219-0.666-1.653-0.219-0.234-9.014 0.625-13.468-2.979-2.071-1.675-3.072-5.555-3.14-8.164-0.238-9.107 3.666-16.647 9.727-23.175 17.889-19.263 48.463-29.54 74.367-30.42z" fill="#CB885E"/> <path transform="scale(1.6141)" d="m241.85 916.16c-1.061 2.545-2.009 5.135-3.729 7.322-2.496-0.349-4.638-0.613-6.879-1.877 3.761-1.418 7.162-3.4 10.608-5.445z" fill="#8B5437"/> <path transform="scale(1.6141)" d="m195.11 893.57c-0.388 3.921-2.086 9.226 0.487 12.565 1.757 2.281 4.452 1.863 7.073 2.085l3.814-0.304-1.243 3.264c-4.531 0.215-8.245-0.365-11.689-3.401-1.765-1.557-1.669-5.504-1.822-7.715 0.96-2.306 2.096-4.365 3.38-6.494z" fill="#784E3E"/> <path transform="scale(1.6141)" d="m202.67 908.22c4.347-9.089 10.605-17.255 20.306-20.914-7.463 6.261-12.59 11.558-16.492 20.61l-3.814 0.304z" fill="#8B5437"/> <path transform="scale(1.6141)" d="m210.49 909.39c0.458 4.149 0.436 8.434 4.087 11.197 3.656 2.767 8.145 2.861 12.455 2.069l4.209-1.054c2.241 1.264 4.383 1.528 6.879 1.877l-3.074 2.055c-5.049 2.77-13.789 4.225-19.305 2.306-4.804-1.671-6.017-3.87-8.19-8.164-0.313-3.985 1.309-6.763 2.939-10.286z" fill="#784E3E"/> <path transform="scale(1.6141)" d="m271.13 853.19c13.928-1.612 28.03-0.441 41.998 0.36 8.596 0.493 18.191 1.685 26.721 0.361 2.9 3.442 8.969 3.01 12.975 5.933-24.974 3.997-50.583-4.92-75.759-3.558l-0.5-2.319-5.435-0.777z" fill="#373131"/> <path transform="scale(1.6141)" d="m204.31 919.58c-0.222-0.551-0.26-1.219-0.666-1.653-0.219-0.234-9.014 0.625-13.468-2.979-2.071-1.675-3.072-5.555-3.14-8.164-0.238-9.107 3.666-16.647 9.727-23.175 17.889-19.263 48.463-29.54 74.367-30.42l5.435 0.777 0.5 2.319c-28 3.455-60.501 9.061-79.022 32.691-1.127 1.438-2.069 2.986-2.926 4.598-1.284 2.129-2.42 4.188-3.38 6.494 0.153 2.211 0.057 6.158 1.822 7.715 3.444 3.036 7.158 3.616 11.689 3.401l1.243-3.264c3.902-9.052 9.029-14.349 16.492-20.61 21.741-13.342 48.042-19.015 73.172-13.034l4.507 1.194c-6.432 0.537-13.315-0.817-19.854-0.723-22.184 0.321-48.781 6.051-63.663 23.899-2.598 3.116-5.042 7.027-6.655 10.748-1.63 3.523-3.252 6.301-2.939 10.286l-3.241-0.1z" fill="#1D1C1C"/> <path transform="scale(1.6141)" d="m205.24 911.18c-0.385 1.468-0.55 3.054-1.807 4.033l-9.817-2.374c-1.538-1.787-3.007-3.723-3.583-6.059-0.657-2.665 0.312-4.512 1.696-6.716 0.153 2.211 0.057 6.158 1.822 7.715 3.444 3.036 7.158 3.616 11.689 3.401z" fill="#5F3420"/> <path transform="scale(1.6141)" d="m609.86 901.4c9.986-0.737 20.017-1.531 29.911-3.125 2.312-0.372 4.436-0.907 6.642-1.697 0.863-0.309 2.951-1.333 3.804-1.2 2.748 0.426 6.78 2.966 9.559 3.986 4.772 1.751 9.674 3.102 14.575 4.434 13.448 3.656 28.339 4.747 42.199 6.512 4.23 0.88 8.529 1.848 12.822 2.339 5.806 0.664 11.904 0.138 17.229 2.849 0.975 1.724 1.75 2.401 1.109 4.418-1.497 4.71-6.3 7.685-10.525 9.675-14.826 6.982-31.767 9.124-46.69 16.19-7.546 3.573-14.759 8.565-21.187 13.847-11.354 9.331-25.173 26.192-41.499 20.444-1.385-0.487-2.78-1.25-4.202-1.554 3.255-15.584 8.523-26.855 21.474-36.928l-1.911-1.939 2.379-2.342c-7.3 2.548-13.857 7.405-19.058 13.089-11.423 12.481-22.318 38.611-43.637 28.146l-0.383-0.22c-1.004 1.94-0.75 3.562-0.591 5.67-0.519 0.823-1.093 1.106-1.729 1.767l-0.165 0.306c-0.877-2.092-1.382-4.431-2.003-6.615-2.525-0.13-5.69 1.552-8.302 1.962-7.069 1.108-18.206 0.128-22.228-6.834-1.644-2.847-1.611-5.332-4.371-7.314-5.325-3.821-7.483-7.084-8.45-13.601-1.217-8.201 3.918-17.729 8.642-24.068 15.631-20.977 41.803-28.579 66.556-32.168l0.03 3.971z" fill="#CB885E"/> <path transform="scale(1.6141)" d="m645.55 937.3c5.535-2.116 14.156-5.949 19.986-3.543-2.962 2.022-8.233 2.448-11.738 3.539-3.161 0.985-5.901 2.571-8.716 4.285l-1.911-1.939 2.379-2.342z" fill="#1D1C1C"/> <path transform="scale(1.6141)" d="m579.99 986.06c-0.877-2.092-1.382-4.431-2.003-6.615-2.525-0.13-5.69 1.552-8.302 1.962-7.069 1.108-18.206 0.128-22.228-6.834-1.644-2.847-1.611-5.332-4.371-7.314-5.325-3.821-7.483-7.084-8.45-13.601-1.217-8.201 3.918-17.729 8.642-24.068 15.631-20.977 41.803-28.579 66.556-32.168l0.03 3.971c-23.033 2.705-46.5 9.702-61.511 28.671-4.859 6.139-7.95 12.264-9.416 19.952l0.68 2.401c1.353-0.542 2.877-3.873 3.694-5.206 2.107-3.439 4.457-6.664 7.002-9.791 3.072-3.774 6.766-6.747 10.699-9.587 7.209-5.207 22.133-13.099 31.186-11.679 6.696-1.646 13.145-2.346 20.041-1.939-22.196 5.39-45.199 12.067-57.828 32.87-2.736 4.507-5.115 10.889-5.365 16.175 1.032 1.22 2.083 2.499 3.326 3.513 3.126 2.551 7.698 3.644 11.674 2.981 7.361-1.229 11.699-12.631 15.672-18.084 6.67-9.153 17.48-19.388 29.102-21.165 7.693-2.707 14.021-4.286 22.129-4.893-3.76 2.342-8.158 3.009-12.188 4.811-16.344 7.309-30.95 18.053-35.136 36.453-0.854 3.752-1.252 7.596-1.15 11.441-1.004 1.94-0.75 3.562-0.591 5.67-0.519 0.823-1.093 1.106-1.729 1.767l-0.165 0.306z" fill="#1D1C1C"/> <path transform="scale(1.6141)" d="m538.94 950.02 0.68 2.401c1.353-0.542 2.877-3.873 3.694-5.206 2.107-3.439 4.457-6.664 7.002-9.791 3.072-3.774 6.766-6.747 10.699-9.587 7.209-5.207 22.133-13.099 31.186-11.679-16.738 6.878-37.128 16.049-44.691 33.762-1.015 2.378-2.565 10.524-4.223 11.358-3.377-2.646-4.144-5.502-4.381-9.795-0.044-0.792-0.025-0.794 0.034-1.463z" fill="#8B5437"/> <path transform="scale(1.6141)" d="m549.04 963.26c1.032 1.22 2.083 2.499 3.326 3.513 3.126 2.551 7.698 3.644 11.674 2.981 7.361-1.229 11.699-12.631 15.672-18.084 6.67-9.153 17.48-19.388 29.102-21.165-3.764 3.376-8.122 6.01-12.01 9.241-10.669 8.865-17.492 19.681-18.302 33.677l-0.026 0.507c-7.887 2.138-17.207 5.383-24.866 1.243-1.783-0.964-3.441-2.545-3.96-4.561-0.587-2.28-0.511-4.997-0.61-7.352z" fill="#8B5437"/> <path transform="scale(1.6141)" d="m318.2 652.41c2.138 3.506 2.132 7.75 3.604 11.571 0.678 1.757 0.839 3.623 1.064 5.48l-0.535 0.762c3.013 17.405 8.453 34.291 14.81 50.732 11.399 29.485 26.773 58.587 48.04 82.236 11.69 13 25.068 24.119 39.293 34.228l36.064 21.026c-37.284 10.35-78.749 5.271-114.49-8.147-18.766-7.044-37.993-24.892-46.051-43.239-1.344-3.059-2.529-6.058-2.743-9.425-2.887-10.641-3.544-19.91-3.61-30.887 0.01-2.822-0.117-5.665 0.67-8.404-0.141-1.24 0.211-1.973 0.647-3.11l0.559 0.087 0.934 0.11c1.52 0.188 3.216 0.494 4.712 0.025 2.076-0.65 4.871-2.9 5.688-4.954 1.17-2.943-0.63-6.73-1.815-9.408-1.701-2.848-3.443-5.717-4.662-8.814-1.773-4.507-2.376-8.268-5.375-12.246l-0.404-3.924 1.031-1.154 1.91 0.807c0.582 0.111 0.99 0.248 1.505 0.548 3.839 2.231 5.873 2.996 10.335 2.595 1.822-1.124 3.836-2.904 4.42-5.065 0.89-3.29-0.562-6.842-2.015-9.707-1.882-1.981-3.91-4.361-6.366-5.614-2.714-1.383-6.177-1.9-9.074-0.918l-1.276-5.081c-3.32-1.129-4.682-4.589-6.39-7.453l2.619 0.216c0.709 1.049 2.08 3.753 2.98 4.381 1.421 0.992 6.167 1.214 8.072 1.726 2.689 0.722 5.214 2.092 7.701 3.32l8.149-42.3z" fill="#4F4E4C"/> <path transform="scale(1.6141)" d="m306.93 739.39c2.063 2.803 4.297 6.381 3.903 10.039-0.272 2.524-2.177 5.153-4.154 6.672-2.483 1.907-6.668 3.282-9.767 2.774l-2.599-0.528c-0.141-1.24 0.211-1.973 0.647-3.11l0.559 0.087 0.934 0.11c1.52 0.188 3.216 0.494 4.712 0.025 2.076-0.65 4.871-2.9 5.688-4.954 1.17-2.943-0.63-6.73-1.815-9.408l1.892-1.707z" fill="#41332B"/> <path transform="scale(1.6141)" d="m318.2 652.41c2.138 3.506 2.132 7.75 3.604 11.571 0.678 1.757 0.839 3.623 1.064 5.48l-0.535 0.762c-2.666 3.007-2.652 11.268-3.491 15.355-0.909 4.43-2.112 8.712-3.467 13.021 3.643 5.439 7.955 11.552 6.345 18.458l-0.88 2.612-0.323 0.856c-1.139 2.827-4.047 6.251-6.933 7.385-2.124 0.835-4.964 0.798-7.017-0.215l-6.433-3.717c1.939 5.378 3.66 10.574 6.798 15.408l-1.892 1.707c-1.701-2.848-3.443-5.717-4.662-8.814-1.773-4.507-2.376-8.268-5.375-12.246l-0.404-3.924 1.031-1.154 1.91 0.807c0.582 0.111 0.99 0.248 1.505 0.548 3.839 2.231 5.873 2.996 10.335 2.595 1.822-1.124 3.836-2.904 4.42-5.065 0.89-3.29-0.562-6.842-2.015-9.707-1.882-1.981-3.91-4.361-6.366-5.614-2.714-1.383-6.177-1.9-9.074-0.918l-1.276-5.081c-3.32-1.129-4.682-4.589-6.39-7.453l2.619 0.216c0.709 1.049 2.08 3.753 2.98 4.381 1.421 0.992 6.167 1.214 8.072 1.726 2.689 0.722 5.214 2.092 7.701 3.32l8.149-42.3z" fill="#1D1C1C"/> <path transform="scale(1.6141)" d="m295.06 692.52c7.704 0.851 11.365 2.842 17.208 7.8l-0.492 3.813c-1.882-1.981-3.91-4.361-6.366-5.614-2.714-1.383-6.177-1.9-9.074-0.918l-1.276-5.081z" fill="#8B5437"/> <path transform="scale(1.6141)" d="m312.27 700.32c3.579 3.932 7.261 7.975 7.098 13.66-0.093 3.233-1.59 5.932-4.01 8.02-2.218 1.913-4.942 2.818-7.864 2.434-2.75-0.362-6.063-2.15-7.681-4.393-0.874-1.21-2.01-2.813-2.28-4.279 0.582 0.111 0.99 0.248 1.505 0.548 3.839 2.231 5.873 2.996 10.335 2.595 1.822-1.124 3.836-2.904 4.42-5.065 0.89-3.29-0.562-6.842-2.015-9.707l0.492-3.813z" fill="#784E3E"/> <path transform="scale(1.6141)" d="m293.64 766.75 0.933 0.322c5.571 1.869 14.317 2.37 19.687-0.431 7.1-3.704 10.612-11.618 14.358-18.241l35.215 80.262c-4.046 9.152-8.885 15.296-17.381 20.797-15.66-9.972-30.416-20.043-40.646-35.978-3.253-5.069-5.243-10.888-8.556-15.844-2.887-10.641-3.544-19.91-3.61-30.887z" fill="#878785"/> <path transform="scale(1.6141)" d="m396.97 126.36c-1.083-1.345-2.094-2.486-2.637-4.145l0.663-0.698c9.722 1.667 19.958 7.335 27.659 13.495 2.232 1.785 4.809 4.71 7.415 5.825 3.457 1.479 8.597 1.677 12.355 2.375 8.369 1.553 16.182 4.173 23.789 7.988 24.891-39.73 61.162-67.233 107.18-77.802 27.181-6.2422 54.208-4.189 78.248 10.957 21.763 13.711 35.265 37.491 40.847 62.165 5.938 26.243 1.436 58.902-12.974 81.845-16.568 26.38-48.25 44.955-78.222 51.604-6.025 1.337-13.318 3.18-19.454 3.326l-1.334-0.436-4.841 1.601c2.094 2.476 2.477 6.619 3.098 9.738 2.569 12.891 3.411 25.596 2.294 38.694-2.679 31.406-17.112 63.138-41.514 83.567-16.132 13.505-33.599 22.585-53.433 29.336-4.228 1.439-8.448 2.546-12.823 3.444-3.225 0.662-15.265 1.194-17.144 3.125l1.385 0.328c3.55 0.644 7.188 0.54 10.785 0.571 1.801 0.063 3.634 4e-3 5.31 0.731 2.312 1.002 5.21 1.087 7.7 1.353 6.256 0.668 12.431 1.016 18.723 0.993-5.442 4.286-11.804 5.944-18.31 7.923-10.769 3.275-21.672 5.865-32.686 8.164-7.161 1.495-14.104 3.205-21.35 4.272-15.02-1.966-30.489-2.469-45.624-3.308-6.064-0.337-12.736-0.053-18.676-1.103-1.804-0.319-3.116-1.118-4.616-2.123l-10.104 2.739c6.608-9.046 15.757-15.178 27.485-13.328 3.236 0.51 6.983 1.646 10.007 0.345 1.065 0.361 2.171 0.834 3.276 1.034-11.418-8.75-23.301-14.751-36.1-21.072 3.118-3.497 6.681-5.774 10.282-8.691 7.378-5.978 13.931-12.097 19.556-19.808-0.637-0.596-1.312-1.171-2.119-1.529-1.976-0.877-3.547-1.14-5.535-0.43-1.065 5.085-6.739 8.671-10.439 12.023l-17.721 15.733-7.063-2.398-0.439 0.229c-0.797 0.348-1.52 0.353-2.373 0.405l0.827 0.688-0.332 0.452 6.607 2.826c-4.425 4.529-9.911 7.953-14.955 11.745-13.281 9.985-27.857 22.121-43.366 28.263-14.648-1.145-28.45-2.432-42.462-7.182-9.319-3.159-21.178-7.458-25.756-16.767 7.132-1.888 15.063-4.497 20.937-9.1 6.397-5.013 10.257-11.086 11.21-19.226 0.891-7.607-1.871-15.317-6.638-21.235-7.559-9.386-21.472-15.884-33.292-17.085-9.184-1.109-17.924-1.072-26.966 1.057l-0.395-0.673c4.062-7.817 11.432-14.589 16.67-21.714 9.07-12.338 16.92-25.654 26.397-37.679 8.361-10.609 17.926-19.497 27.388-29.049l-0.17-3.028c-1.702 0.727-4.231 1e-3 -5.983-0.447-9.974-2.551-18.946-8.706-24.23-17.61-7.66-12.907-8.104-26.538-4.378-40.751l3.24-6.845 4.69-7.7c-0.919-2.208-0.796-2.483-0.25-4.839 2.884-4.449 6.59-7.543 8.96-12.473l3.499-7.038c4.389-8.08 10.892-15.611 17.681-21.812 6.26-5.718 13.625-10.309 22.338-9.882 1.348 0.504 1.86 0.455 3.247 0.164 0.857-0.181 1.082-0.268 1.913 0.024 2.952-0.983 6.375-3.606 9.271-5.064l20.387-9.293c12.151-5.105 25.915-9.288 38.915-11.467 13.671-2.291 27.547-2.973 41.34-4.172l-11.695-4.539c3.173-0.257 7.754-0.208 10.663 1.137 2.932 1.356 5.788 3.554 8.929 4.363 3.514 0.906 7.874 0.663 11.51 0.746-3.529-3.467-6.6-6.497-11.424-7.992l0.328-0.629-5.181-5.231z" fill="#878785"/> <path transform="scale(1.6141)" d="m338 436.56-21.804-6.16-12.704-2.903c-3.593-0.691-9.56-1.179-12.17-3.955l1.183-0.805c6.25 0.466 12.031 2 18.106 3.458 10.037 2.409 19.951 5.213 29.706 8.591l-0.439 0.229c-0.797 0.348-1.52 0.353-2.373 0.405l0.827 0.688-0.332 0.452z" fill="#1D1C1C"/> <path transform="scale(1.6141)" d="m575.67 284.46c-3.399-1.627-6.761-1.732-10.391-2.359-9.431-1.628-16.171-5.9-23.119-12.146 4.701 2.003 9.234 4.443 14.149 5.895 5.299 1.565 10.982 1.932 16.468 2.419l4.831 0.86 0.017 2.5 2.886 1.23-4.841 1.601z" fill="#1D1C1C"/> <path transform="scale(1.6141)" d="m515.1 190.65 0.445-0.25-0.153-0.667 1.695-2.39c15.015 16.501 23.941 33.814 26.571 56.199l0.68 8.364c0.023 0.347 9e-3 2.186 0.15 2.427 0.196 0.337 17.717 3.787 19.551 4.146l10.885 1.205-0.245 1.316-1.418 0.403-0.268 1.511-0.946 0.55c-10.526-0.556-24.389-2.741-34.237-6.631l-0.075-0.834 3.825-1.076 0.227-1.296c0.379-4.541-0.904-9.801-1.896-14.231-4.302-19.22-11.946-33.944-24.791-48.746z" fill="#373131"/> <path transform="scale(1.6141)" d="m375.54 409.43c-9.272-0.141-18.116-2.188-27.292-3.185-11.463-1.245-22.939-1.417-34.455-1.65l-13.195-0.182c-1.316-7e-3 -3.281 0.297-4.343-0.446 4.983-3.123 12.809-2.672 18.514-2.808 21.747-0.517 42.606 1.219 63.82 6.091 28.668 6.585 55.347 18.782 78.965 36.299l-0.674 0.446c-16.312-11.29-34.666-20.035-53.437-26.381-6.728-2.275-13.592-3.63-20.249-6.225-0.637-0.596-1.312-1.171-2.119-1.529-1.976-0.877-3.547-1.14-5.535-0.43z" fill="#1D1C1C"/> <path transform="scale(1.6141)" d="m504.59 195.71c3.496-9.122 10.337-16.856 15.898-24.823 14.882-21.321 28.935-44.873 49.635-61.171 10.132-7.977 20.214-12.069 32.388-15.767 3.911-1.1879 8.536-2.9885 12.696-2.3962l9.447 0.8922c-3.588 0.0429-7.497-0.1514-11.034 0.4254-18.154 2.9611-36.782 13.434-49.54 26.482-14.795 15.131-25.772 34.512-38.111 51.694-6.317 8.796-13.032 17.702-21.379 24.663z" fill="#6D6D6B"/> <path transform="scale(1.6141)" d="m249.38 196.14c2.861 1.211 8.251-1.685 11.559-2.375l0.865-0.186c8.739-1.716 18.742 0.499 26.049 5.534 7.334 5.055 12.753 13.867 14.229 22.677 1.277 7.626-0.672 15.636-3.176 22.822-0.084-5.415-0.088-11.499-1.481-16.742-2.301-8.666-6.923-17.394-14.93-21.975-11.63-6.654-23.592-4.906-35.918-1.589-2.782 0.933-5.528 1.992-8.45 2.365l11.253-10.531z" fill="#6D6D6B"/> <path transform="scale(1.6141)" d="m624.66 92.443c17.121 2.1516 28.968 7.7168 39.724 21.562 2.488 3.202 6.074 7.46 6.664 11.518-0.094 3.089 0.195 5.064 1.394 7.937l-0.875 1.581c-7.08-15.023-16.133-30.091-32.62-36.104-3.421-1.2476-6.645-1.7044-10.196-2.2933-17.616-2.9205-37.482 5.6702-51.379 15.792-20.038 14.594-34.07 38.726-48.328 58.65-3.767 5.265-7.435 11.725-11.952 16.258l-1.695 2.39 0.153 0.667-0.445 0.25c-2.45 1.024-4.033 3.102-6.04 4.776-3.052 2.547-6.382 4.806-9.824 6.789l5.355-6.508c8.347-6.961 15.062-15.867 21.379-24.663 12.339-17.182 23.316-36.563 38.111-51.694 12.758-13.048 31.386-23.521 49.54-26.482 3.537-0.5768 7.446-0.3825 11.034-0.4254z" fill="#1D1C1C"/> <path transform="scale(1.6141)" d="m671.04 125.52c10.154 17.81 12.276 38.869 9.821 58.897-0.503 4.1-0.655 8.315-1.762 12.313-6.143 22.176-21.954 41.514-41.936 52.715-16.658 9.338-34.735 13.435-53.727 13.911-3.815 0.096-7.593 0.611-11.392 0.106l0.946-0.55 0.268-1.511 1.418-0.403 0.245-1.316c0.905 0.018 1.733 0.016 2.631-0.12 2.802-0.424 5.505-0.137 8.322-0.289 6.758-0.364 13.832-0.989 20.37-2.776 6.212-0.446 13.271-2.935 19.041-5.268 19.179-7.755 38.204-25.516 46.272-44.522 9.209-21.693 8.755-49.833 2e-3 -71.669l0.875-1.581c-1.199-2.873-1.488-4.848-1.394-7.937z" fill="#2B2B2B"/> <path transform="scale(1.6141)" d="m427.11 170.8c8.347-0.409 14.84 0.997 22.176 5.07 11.941 6.629 16.749 19.776 20.36 32.147-3.751-4.952-7.388-10.672-11.925-14.923-4.655-4.361-9.929-7.108-15.726-9.619l-5.81-0.974c-15.948-1.042-29.028 11.134-40.129 20.97 2.312-6.655 4.662-13.157 8.697-19.003 5.661-8.204 12.72-11.9 22.357-13.668z"/> <path transform="scale(1.6141)" d="m238.75 200.01c4.389-8.08 10.892-15.611 17.681-21.812 6.26-5.718 13.625-10.309 22.338-9.882 1.348 0.504 1.86 0.455 3.247 0.164 0.857-0.181 1.082-0.268 1.913 0.024 3.317 2.921 6.963 5.851 9.733 9.302 9.066 11.298 13.729 27.206 14.435 41.566v1.512c-6.108-13.287-11.19-33.281-26.439-39.062-5-1.895-11.479 0.167-16.047 2.433-5.705 2.831-11.808 7.298-16.234 11.884l-11.253 10.531-1.568 0.816-1.305-0.438 3.499-7.038z"/> <path transform="scale(1.6141)" d="m403.62 364.75c39.62-1.164 81.498 5.672 117.58 22.401-1.366 0.593-2.092-0.028-3.463-0.502-14.768-5.11-30.732-9.648-46.174-12.189-22.302-3.671-45.456-4.298-68.033-4.2-24.072 0.841-49.347 3.003-72.645 9.394l-24.469 6.935c-5.317 1.675-10.957 4.333-16.422 5.186l-0.938-0.698 0.32-1.294c3.493-3.5 10.395-5.237 14.997-6.931 32.17-11.838 65.187-16.26 99.246-18.102z" fill="#2B2B2B"/> <path transform="scale(1.6141)" d="m468.32 453.26c1.801 0.063 3.634 4e-3 5.31 0.731 2.312 1.002 5.21 1.087 7.7 1.353 6.256 0.668 12.431 1.016 18.723 0.993-5.442 4.286-11.804 5.944-18.31 7.923-10.769 3.275-21.672 5.865-32.686 8.164-7.161 1.495-14.104 3.205-21.35 4.272-15.02-1.966-30.489-2.469-45.624-3.308-6.064-0.337-12.736-0.053-18.676-1.103-1.804-0.319-3.116-1.118-4.616-2.123l-10.104 2.739c6.608-9.046 15.757-15.178 27.485-13.328 3.236 0.51 6.983 1.646 10.007 0.345 1.065 0.361 2.171 0.834 3.276 1.034l0.364-0.123c1.098 0.539 2.363 1.257 3.588 1.399 20.616 2.392 41.435 0.722 61.537-4.211 4.386-1.077 9.652-2.071 13.376-4.757z" fill="#6D6D6B"/> <path transform="scale(1.6141)" d="m396.97 126.36c-1.083-1.345-2.094-2.486-2.637-4.145l0.663-0.698c9.722 1.667 19.958 7.335 27.659 13.495 2.232 1.785 4.809 4.71 7.415 5.825 3.457 1.479 8.597 1.677 12.355 2.375 8.369 1.553 16.182 4.173 23.789 7.988 24.891-39.73 61.162-67.233 107.18-77.802 27.181-6.2422 54.208-4.189 78.248 10.957 21.763 13.711 35.265 37.491 40.847 62.165 5.938 26.243 1.436 58.902-12.974 81.845-16.568 26.38-48.25 44.955-78.222 51.604-6.025 1.337-13.318 3.18-19.454 3.326l-1.334-0.436-2.886-1.23-0.017-2.5-4.831-0.86c5.776 0.297 11.141-0.568 16.831-1.392 23.654-3.425 48.459-14.49 66.736-29.97 21.044-17.824 30.22-42.66 32.26-69.562 1.98-26.111-5.502-52.979-22.751-72.932-12.684-14.672-29.151-23.743-48.144-27.526-6.859-1.3661-14.131-1.7617-21.112-2.2383-7.244-0.4945-14.312 1.1308-21.356 2.6062-36.699 7.6866-72.007 30.319-94.357 60.574-3.939 5.33-7.913 10.765-11.008 16.642-1.52 2.885-2.525 5.986-3.94 8.92-0.883 1.831-1.559 3.246-3.122 4.608l-1.436-0.607c-1.027-3.178 2.523-9.859 3.861-13.103-6.791-2.599-13.579-5.192-20.626-7.028-5.529-1.44-12.412-1.797-17.555-4.258-7.966-3.813-13.823-11.18-21.744-15.416-2.162-1.156-5.981-1.917-8.338-1.227z" fill="#373131"/> <path transform="scale(1.6141)" d="m380.91 234.48-0.056-0.905c-0.411-7.235 2.459-12.658 7.153-17.995 7.666-8.715 23.076-15.588 34.66-16.088 17.318-0.747 35.568 2.943 48.61 15.214 12.69 11.939 20.843 30.917 21.221 48.384 0.382 17.665-4.452 33.302-16.926 46.227-12.743 13.204-31.294 19.888-49.523 20.106-16.186 0.193-35.28-5.94-46.875-17.615-9.517-9.583-13.98-23.137-13.798-36.429 0.121-8.878 2.848-22.343 8.647-29.317 0.963 4.159-1.552 8.606-2.206 12.725-2.21 13.929-0.549 30.009 7.894 41.675 8.974 12.399 21.319 19.089 36.225 21.619 5.38 0.914 12.816 1.211 18.155-0.019 15.652-3.606 29.06-11.899 37.597-25.849 8.377-13.689 11.351-31.292 7.414-46.926-3.23-12.828-10.583-25.531-22.193-32.452-12.865-7.669-27.859-9.547-42.366-5.888-14.021 3.535-24.309 12.983-33.633 23.533z" fill="#6D6D6B"/> <path transform="scale(1.6141)" d="m517.09 187.34c4.517-4.533 8.185-10.993 11.952-16.258 14.258-19.924 28.29-44.056 48.328-58.65 13.897-10.122 33.763-18.713 51.379-15.792 3.551 0.5889 6.775 1.0457 10.196 2.2933 16.487 6.0129 25.54 21.081 32.62 36.104 8.753 21.836 9.207 49.976-2e-3 71.669-8.068 19.006-27.093 36.767-46.272 44.522-5.77 2.333-12.829 4.822-19.041 5.268l0.473-0.381c5.083-3.957 13.092-4.698 19.015-7.689 22.538-11.385 45.396-36.243 49.003-62.017 2.881-20.589 1.323-39.439-8.742-58.01-4.296-7.927-16.071-15.231-24.468-17.533-12.149-3.329-26.721 0.853-37.317 6.977-20.848 12.048-42.186 34.485-48.499 58.197-7.184 26.978 1.85 56.204 8.327 82.436-1.834-0.359-19.355-3.809-19.551-4.146-0.141-0.241-0.127-2.08-0.15-2.427l-0.68-8.364c-2.63-22.385-11.556-39.698-26.571-56.199z" fill="#CB885E"/> <path transform="scale(1.6141)" d="m246.58 204.3c12.326-3.317 24.288-5.065 35.918 1.589 8.007 4.581 12.629 13.309 14.93 21.975 1.393 5.243 1.397 11.327 1.481 16.742-2.895 6.165-5.441 12.124-9.105 17.917-9.313 14.726-23.157 27.147-36.426 38.213l-0.17-3.028c-1.702 0.727-4.231 1e-3 -5.983-0.447-9.974-2.551-18.946-8.706-24.23-17.61-7.66-12.907-8.104-26.538-4.378-40.751l3.24-6.845 4.69-7.7c-0.919-2.208-0.796-2.483-0.25-4.839 2.884-4.449 6.59-7.543 8.96-12.473l1.305 0.438 1.568-0.816c2.922-0.373 5.668-1.432 8.45-2.365z" fill="#FEFEFE"/> <defs> <linearGradient id="b" x1="237.89" x2="234.82" y1="216.64" y2="209.38" gradientUnits="userSpaceOnUse"> <stop stop-color="#0A0C0E" offset="0"/> <stop stop-color="#2F2E30" offset="1"/> </linearGradient> </defs> <path transform="scale(1.6141)" d="m238.13 206.67c2.922-0.373 5.668-1.432 8.45-2.365l1.954 2.174c-9.387 4.58-15.538 9.755-21.987 17.881-0.919-2.208-0.796-2.483-0.25-4.839 2.884-4.449 6.59-7.543 8.96-12.473l1.305 0.438 1.568-0.816z" fill="url(#b)"/> <path transform="scale(1.6141)" d="m218.61 238.9 3.24-6.845 0.053 0.922c0.287 5.779-0.828 11.34-1.117 17.08-0.59 11.7 3.961 24.266 12.572 32.256 7.76 7.199 16.57 9.684 27.009 9.603l-7.166 5.792c-1.702 0.727-4.231 1e-3 -5.983-0.447-9.974-2.551-18.946-8.706-24.23-17.61-7.66-12.907-8.104-26.538-4.378-40.751z" fill="#CBCBC0"/> <path transform="scale(1.6141)" d="m246.58 204.3c12.326-3.317 24.288-5.065 35.918 1.589 8.007 4.581 12.629 13.309 14.93 21.975 1.393 5.243 1.397 11.327 1.481 16.742-2.895 6.165-5.441 12.124-9.105 17.917-9.313 14.726-23.157 27.147-36.426 38.213l-0.17-3.028 7.166-5.792c2.756-1.996 5.032-4.568 7.384-7.009-4.135-0.562-8.053-0.757-11.805-2.794-6.074-3.298-10.686-8.438-12.555-15.133-2.184-7.826-0.448-17.175 3.508-24.17 3.196-5.649 9.692-11.062 16.059-12.628 5.42-1.332 10.561-0.66 15.32 2.305 7.67 4.777 10.132 11.733 12.151 20.116l0.514-0.56c4.231-5.828 4.159-16.917 2.311-23.515-2.46-8.782-7.327-15.754-15.466-20.143-9.419-5.079-19.212-4.938-29.261-1.911l-1.954-2.174z"/> <path transform="scale(1.6141)" d="m265.07 241c1.577-0.437 3.44-0.646 5.057-0.289 2.203 0.486 3.85 2.204 5.04 4.036 1.263 1.946 1.495 4.191 0.927 6.425-0.734 2.887-2.612 4.749-5.161 6.116-1.736 0.249-3.982 0.758-5.711 0.482-1.676-0.268-3.669-2.377-4.545-3.712-1.421-2.163-1.651-4.665-0.939-7.13 0.852-2.945 2.821-4.405 5.332-5.928z" fill="#FEFEFE"/> <path transform="scale(1.6141)" d="m380.91 234.48c9.324-10.55 19.612-19.998 33.633-23.533 14.507-3.659 29.501-1.781 42.366 5.888 11.61 6.921 18.963 19.624 22.193 32.452 3.937 15.634 0.963 33.237-7.414 46.926-8.537 13.95-21.945 22.243-37.597 25.849-5.339 1.23-12.775 0.933-18.155 0.019-14.906-2.53-27.251-9.22-36.225-21.619-8.443-11.666-10.104-27.746-7.894-41.675 0.654-4.119 3.169-8.566 2.206-12.725 0.418-3.67 4.68-8.696 6.887-11.582z" fill="#1D1C1C"/> <path transform="scale(1.6141)" d="m414.63 215.64-0.174 0.387c-1.966 3.844-11.847 8.02-15.708 10.726-14.979 10.496-23.966 29.678-18.597 47.838 4.151 14.044 11.218 25.583 24.49 32.553 10.8 5.671 25.29 7.426 36.994 3.591 12.673-4.154 22.315-14.681 28.073-26.451 5.676-11.604 5.81-25.522 2.797-37.906-0.969-3.985-2.898-7.853-3.385-11.922 2.828 3.903 4.934 7.954 6.412 12.552 4.649 14.455 3.246 30.733-3.779 44.178-6.626 12.683-19.226 22.525-32.807 26.741-13.649 4.237-27.598 2.811-40.196-3.789-11.006-5.766-20.457-17.033-24.068-28.961-4.083-13.483-1.581-29.655 4.948-41.88 7.59-14.211 19.894-23.041 35-27.657z" fill="#CBCBC0"/> <path transform="scale(1.6141)" d="m414.63 215.64c13.418-4.104 27.245-1.992 39.504 4.506 5.595 2.966 12.174 8.539 14.986 14.31 0.487 4.069 2.416 7.937 3.385 11.922 3.013 12.384 2.879 26.302-2.797 37.906-5.758 11.77-15.4 22.297-28.073 26.451-11.704 3.835-26.194 2.08-36.994-3.591-13.272-6.97-20.339-18.509-24.49-32.553-5.369-18.16 3.618-37.342 18.597-47.838 3.861-2.706 13.742-6.882 15.708-10.726l0.174-0.387z" fill="#FEFEFE"/> <path transform="scale(1.6141)" d="m427.39 242.62c5.718-0.336 13.053 0.521 18.224 2.996 6.848 3.277 12.491 9.781 15.063 16.877 3.061 8.448 3.05 17.939-0.856 26.129-4.671 9.793-12.437 13.868-22.14 17.344-6.97 1.394-15.528 0.504-21.624-3.331-5.823-3.663-12.105-11.032-13.474-17.93l-0.162-0.891c-1.396-7.313-0.991-15.927 2.235-22.755 4.746-10.043 12.572-14.868 22.734-18.439z"/> <path transform="scale(1.6141)" d="m428.9 254.75c1.738-0.24 3.368-0.41 5.103-0.041 2.64 0.559 4.281 1.92 5.719 4.174 1.854 2.906 2.327 6.441 1.357 9.757-1.004 3.434-3.912 5.198-6.874 6.74-1.736 0.231-3.63 0.533-5.375 0.233-2.301-0.395-4.917-2.661-6.164-4.564-1.621-2.476-1.953-6.373-1.257-9.246 0.758-3.125 4.841-5.703 7.491-7.053z" fill="#FEFEFE"/> <path transform="scale(1.6141)" d="m564.04 258.48c-6.477-26.232-15.511-55.458-8.327-82.436 6.313-23.712 27.651-46.149 48.499-58.197 10.596-6.124 25.168-10.306 37.317-6.977 8.397 2.302 20.172 9.606 24.468 17.533 10.065 18.571 11.623 37.421 8.742 58.01-3.607 25.774-26.465 50.632-49.003 62.017-5.923 2.991-13.932 3.732-19.015 7.689l-0.473 0.381c-6.538 1.787-13.612 2.412-20.37 2.776-2.817 0.152-5.52-0.135-8.322 0.289-0.898 0.136-1.726 0.138-2.631 0.12l-10.885-1.205z" fill="#FBA55A"/> <path transform="scale(1.6141)" d="m607.71 362.6c10.712 8.053 21.614 15.811 33.333 22.343 27.8 15.496 58.218 26.336 86.611 40.819 10.664 5.439 20.627 12.259 30.39 19.145 8.14 5.74 16.492 11.718 23.841 18.45 45.147 41.356 69.214 98.062 83.582 156.51 4.616 18.781 8.732 37.454 11.448 56.618 1.588 11.197 3.08 22.913 2.578 34.242l-0.126 0.804c-0.664 4.334-0.608 8.632-0.89 12.988l-2.199 21.991c-5.755 44.608-21.818 88.852-58.984 116.62-37.353 27.909-87.171 35.058-132.37 28.27-11.731-1.761-23.707-4.638-35.057-8.074-6.264-1.895-12.135-4.858-18.652-5.898-5.779-2.124-10.788-6.973-15.073-11.257-24.742-24.735-31.212-63.841-31.225-97.488-0.02-50.405 17.946-101.31 53.882-137.2 8.629-8.619 18.193-16.372 28.941-22.224 36.826-20.051 81.21-17.487 116.76 4.232 6.098 3.726 12.47 7.741 17.905 12.37 1.518 1.293 6.859 7.108 8.347 7.108-1.738-2.678-4.563-5.083-6.799-7.365-13.74-14.016-30.821-25.491-49.695-31.308-27.521-8.483-59.475-7.167-85.196 6.648-40.165 21.575-68.361 60.313-81.103 103.7-14.048 47.833-13.083 105.13 11.093 149.36l-3.169 1.152c-30.544 10.291-65.81 6.806-96.61-0.42-15.072-3.536-29.803-7.881-43.998-14.111-14.131-6.201-27.158-14.641-40.901-21.53-3.794-2.462-7.922-5.833-10.536-9.542-2.529-3.59-5.973-6.396-8.826-9.75-5.303-6.235-10.25-12.958-14.899-19.695-20.889-30.269-37.494-65.47-46.997-101.04-6.465-24.197-9.792-48.885-12.752-73.7-3.217-26.972-4.355-55.619-13.799-81.214-1.198-2.126-2.047-4.515-2.996-6.766 2.62-1.898 6.582-2.625 9.565-3.984 2.454-1.118 5.051-2.751 7.089-4.516 10.237-8.866 18.887-19.813 28.429-29.437 2.838-2.862 8.822-5.816 10.144-9.288 1.5 1.005 2.812 1.804 4.616 2.123 5.94 1.05 12.612 0.766 18.676 1.103 15.135 0.839 30.604 1.342 45.624 3.308 7.246-1.067 14.189-2.777 21.35-4.272 11.014-2.299 21.917-4.889 32.686-8.164 6.506-1.979 12.868-3.637 18.31-7.923l11.2-3.247c32.35-11.532 65.471-38.453 84.308-67.016 4.929-7.475 8.332-15.437 12.149-23.483z" fill="#878785"/> <path transform="scale(1.6141)" d="m440.46 768.41c1.373 3.901 4.033 7.2 5.904 10.86 1.358 1.487 2.636 3.413 4.831 3.438l0.646-0.038 0.137 1.083c-3.016-0.321-5.664-1.523-8.454-2.645-2.89-3.726-4.686-7.795-6.315-12.19 1.093-0.323 2.123-0.398 3.251-0.508z" fill="#2B2B2B"/> <path transform="scale(1.6141)" d="m435.62 749.54c1.451-0.549 1.6-0.808 3.034-0.295 0.1 1.626-0.267 9.413 0.501 10.176 0.186 3.111 0.339 6 1.3 8.989-1.128 0.11-2.158 0.185-3.251 0.508-1.763-6.429-1.595-12.775-1.584-19.378z" fill="#373131"/> <path transform="scale(1.6141)" d="m418.65 744.31c-1.132-1.424-1.554-2.93-1.721-4.739-0.599-6.477 3.956-14.248 8.043-18.982l4.198 0.479c-3.405 4.908-5.973 9.438-8.406 14.898-0.265 0.594-0.111 0.401-0.391 0.69-1.53 2.502-1.578 4.483-1.545 7.366l-0.178 0.288z" fill="#373131"/> <path transform="scale(1.6141)" d="m424.97 720.59c4.498-6.698 14.015-14.794 21.344-18.492 0.791 0.801 0.802 0.715 1.096 1.748l0.252 0.414c-6.589 5.066-13.064 10.484-18.494 16.809l-4.198-0.479z" fill="#2B2B2B"/> <path transform="scale(1.6141)" d="m418.95 745.58c5.51 0.591 9.204 1.087 14.301-1.472l2.689-1.329 0.678 0.557-0.387 4.031c1.214 1.14 1.468 0.895 3.077 0.881l-0.147 11.17c-0.768-0.763-0.401-8.55-0.501-10.176-1.434-0.513-1.583-0.254-3.034 0.295-3.431 1.043-7.866 2.087-11.43 1.118-2.8-0.761-3.94-2.655-5.246-5.075z" fill="#4F4E4C"/> <path transform="scale(1.6141)" d="m446.31 702.1c1.07-3.337 0.832-8.238 1.215-11.806l2.377-15.401c6.726-41.282 16.132-81.853 14.069-123.96l0.326 0.344c1.902 2.632 1.951 10.555 2.249 13.984 2.708 31.192-1.763 62.558-6.897 93.271-2.095 12.532-5.358 25.748-5.76 38.448l-0.011 0.492c-1.976 1.868-4.797 4.289-7.568 4.631z" fill="#2B2B2B"/> <defs> <linearGradient id="a" x1="389.04" x2="334.23" y1="518.38" y2="477.96" gradientUnits="userSpaceOnUse"> <stop stop-color="#434243" offset="0"/> <stop stop-color="#565951" offset="1"/> </linearGradient> </defs> <path transform="scale(1.6141)" d="m358.79 470.17c1.5 1.005 2.812 1.804 4.616 2.123 5.94 1.05 12.612 0.766 18.676 1.103 15.135 0.839 30.604 1.342 45.624 3.308l-21.668 2.364c-9.296 0.568-19.534 0.809-28.41 3.827-8.813 2.996-15.003 9.735-20.987 16.518-8.673 9.832-17.523 20.958-30.388 25.218l-0.95 0.321c-6.049 2.001-12.688 0.367-18.744-0.791-1.198-2.126-2.047-4.515-2.996-6.766 2.62-1.898 6.582-2.625 9.565-3.984 2.454-1.118 5.051-2.751 7.089-4.516 10.237-8.866 18.887-19.813 28.429-29.437 2.838-2.862 8.822-5.816 10.144-9.288z" fill="url(#a)"/> <path transform="scale(1.6141)" d="m584.68 600.14c3.458-7.869 5.66-17.229 7.388-25.645 4.65-22.648 5.111-44.12 3.809-67.077 1.799 4.556 2.838 9.752 4.158 14.494 5.78 23.251 7.902 46.886 4.258 70.756-3.889 25.479-15.086 51.156-28.331 73.106-9.057 15.009-19.408 30.566-31.39 43.392l-13.602 14.061c-0.823 0.818-3.671 3.041-3.945 3.872-0.343 1.04 0.715 5.543 0.853 6.867 1.202 11.478 0.66 26.611-6.109 36.387-1.941 2.805-5.187 6.128-8.544 7.007-3.529 0.924-8.456-0.921-11.433-2.799l-4.708-3.675c-0.997 7.672-1.797 18.004-8.447 23.055-1.7 1.291-3.049 1.505-5.178 1.198-4.897-0.705-8.573-5.14-11.22-8.982l-4.731-7.483c-1.255 3.703-3.54 12.223-7.269 13.862-1.473 0.648-6.534 0.344-7.894-0.47-3.63-2.176-6.732-7.423-8.825-10.958 2.79 1.122 5.438 2.324 8.454 2.645l-0.137-1.083-0.646 0.038c-2.195-0.025-3.473-1.951-4.831-3.438-1.871-3.66-4.531-6.959-5.904-10.86-0.961-2.989-1.114-5.878-1.3-8.989l0.147-11.17c-1.609 0.014-1.863 0.259-3.077-0.881l0.387-4.031-0.678-0.557-2.689 1.329c-5.097 2.559-8.791 2.063-14.301 1.472l-0.3-1.272 0.178-0.288c-0.033-2.883 0.015-4.864 1.545-7.366 0.28-0.289 0.126-0.096 0.391-0.69 2.433-5.46 5.001-9.99 8.406-14.898 5.43-6.325 11.905-11.743 18.494-16.809l-0.252-0.414c-0.294-1.033-0.305-0.947-1.096-1.748 2.771-0.342 5.592-2.763 7.568-4.631 10.374-4.594 23.865-6.791 34.763-2.523 6.466 2.532 10.823 6.066 14.812 11.772 8.635-7.648 16.576-16.464 24.327-24.998 12.893-14.195 25.698-29.198 35.894-45.481l13.51-22.282c2.589-4.591 4.272-9.611 7.495-13.815z" fill="#4F4E4C"/> <path transform="scale(1.6141)" d="m584.68 600.14c3.458-7.869 5.66-17.229 7.388-25.645 4.65-22.648 5.111-44.12 3.809-67.077 1.799 4.556 2.838 9.752 4.158 14.494 0.161 11.125 0.539 22.74-0.529 33.808-5.805 60.149-36.41 113.63-77.954 156.38l-10.124 10.173c4.001 10.049 6.873 22.431 4.984 33.227-0.734 4.196-1.967 8.419-5.813 10.925-2.157 1.406-6.509 1.508-8.885 0.89-3.135-0.816-6.492-3.183-9.15-5.015-0.054 3.956 0.088 7.846-1.16 11.642-1.349 4.108-2.633 8.364-6.719 10.587-1.847 1.004-4.255 1.648-6.332 1.037-6.986-2.053-9.406-9.905-13.655-15.014-2.317 4.568-4.961 11.367-10.341 13.07-0.859 0.272-1.505 0.251-2.383 0.134l-0.137-1.083-0.646 0.038c-2.195-0.025-3.473-1.951-4.831-3.438 1.876-0.135 3.771-0.159 5.392-1.237 2.92-1.941 4.09-4.875 4.787-8.158 1.419-6.682 0.795-13.603 2.38-20.247l0.185-0.744c1.135-2.705 2.323-6.113 4.643-7.984l0.812 0.531-0.284 4.167c1.008 9.774 1.97 17.852 6.872 26.604 1.872 2.492 3.66 4.565 6.288 6.289 1.109 0.121 1.403 0.349 2.425-0.234 6.469-3.693 4.044-14.776 3.995-20.885-0.027-3.307 0.243-6.848 0.982-10.08l0.123-0.499 0.975-2.622 0.937-0.148c2.311 2.869 3.371 6.113 5.138 9.283 1.473 2.642 3.955 4.923 6.076 7.052 2.569-0.176 4.795-0.303 6.769-2.184 8.265-7.878 2.309-29.388-1.345-38.393l-4.15-9.135c-1.322-2.584-2.997-4.861-2.953-7.847-6.613-5.923-14.994-6.989-23.618-6.438l-3.417 0.506c-7.666 1.401-15.093 3.109-21.713 7.393l-0.252-0.414c-0.294-1.033-0.305-0.947-1.096-1.748 2.771-0.342 5.592-2.763 7.568-4.631 10.374-4.594 23.865-6.791 34.763-2.523 6.466 2.532 10.823 6.066 14.812 11.772 8.635-7.648 16.576-16.464 24.327-24.998 12.893-14.195 25.698-29.198 35.894-45.481l13.51-22.282c2.589-4.591 4.272-9.611 7.495-13.815z" fill="#1D1C1C"/> <path transform="scale(1.6141)" d="m470.87 777.14c-2.728-3.158-5.504-8.382-6.599-12.397-1.55-5.69-3.058-13.83 7e-3 -19.144 1.008 9.774 1.97 17.852 6.872 26.604l-0.28 4.937z" fill="#5F3420"/> <path transform="scale(1.6141)" d="m459.11 748.88c1.457 5.462 1.19 11.968 1.497 17.617 0.086 1.571 0.61 4.326 0.311 5.802-0.145 0.716-1.106 2.094-1.495 2.765-1.755 3.022-3.846 4.887-6.641 6.913l-0.584 0.434-0.355 0.255-0.646 0.038c-2.195-0.025-3.473-1.951-4.831-3.438 1.876-0.135 3.771-0.159 5.392-1.237 2.92-1.941 4.09-4.875 4.787-8.158 1.419-6.682 0.795-13.603 2.38-20.247l0.185-0.744z" fill="#8B5437"/> <path transform="scale(1.6141)" d="m484.96 746.79c3.47 8.105 6.16 20.953 2.557 29.334-0.956 2.225-2.989 5.613-5.475 6.344-1.308 0.385-4.947 0.444-6.027-0.27-2.025-1.339-3.935-2.911-5.148-5.062l0.28-4.937c1.872 2.492 3.66 4.565 6.288 6.289 1.109 0.121 1.403 0.349 2.425-0.234 6.469-3.693 4.044-14.776 3.995-20.885-0.027-3.307 0.243-6.848 0.982-10.08l0.123-0.499z" fill="#784E3E"/> <path transform="scale(1.6141)" d="m496.41 702.8c10.486 9.504 16.801 30.008 17.507 43.965 0.265 5.231 0.022 11.534-3.791 15.578-1.297 1.375-3.187 2.208-5.087 2.213-2.664 6e-3 -5.105-2.531-6.95-4.197 2.569-0.176 4.795-0.303 6.769-2.184 8.265-7.878 2.309-29.388-1.345-38.393l-4.15-9.135c-1.322-2.584-2.997-4.861-2.953-7.847z" fill="#784E3E"/> <path transform="scale(1.6141)" d="m584.68 600.14c-1.313 9.422-6.171 19.084-10.337 27.559-16.609 33.789-38.974 62.863-64.386 90.499l-6.503-11.482c8.635-7.648 16.576-16.464 24.327-24.998 12.893-14.195 25.698-29.198 35.894-45.481l13.51-22.282c2.589-4.591 4.272-9.611 7.495-13.815z" fill="#4F4E4C"/> <path transform="scale(1.6141)" d="m447.66 704.26c6.62-4.284 14.047-5.992 21.713-7.393l3.417-0.506c8.624-0.551 17.005 0.515 23.618 6.438-0.044 2.986 1.631 5.263 2.953 7.847l4.15 9.135c3.654 9.005 9.61 30.515 1.345 38.393-1.974 1.881-4.2 2.008-6.769 2.184-2.121-2.129-4.603-4.41-6.076-7.052-1.767-3.17-2.827-6.414-5.138-9.283l-0.937 0.148-0.975 2.622-0.123 0.499c-0.739 3.232-1.009 6.773-0.982 10.08 0.049 6.109 2.474 17.192-3.995 20.885-1.022 0.583-1.316 0.355-2.425 0.234-2.628-1.724-4.416-3.797-6.288-6.289-4.902-8.752-5.864-16.83-6.872-26.604l0.284-4.167-0.812-0.531c-2.32 1.871-3.508 5.279-4.643 7.984l-0.185 0.744c-1.585 6.644-0.961 13.565-2.38 20.247-0.697 3.283-1.867 6.217-4.787 8.158-1.621 1.078-3.516 1.102-5.392 1.237-1.871-3.66-4.531-6.959-5.904-10.86-0.961-2.989-1.114-5.878-1.3-8.989l0.147-11.17c-1.609 0.014-1.863 0.259-3.077-0.881l0.387-4.031-0.678-0.557-2.689 1.329c-5.097 2.559-8.791 2.063-14.301 1.472l-0.3-1.272 0.178-0.288c-0.033-2.883 0.015-4.864 1.545-7.366 0.28-0.289 0.126-0.096 0.391-0.69 2.433-5.46 5.001-9.99 8.406-14.898 5.43-6.325 11.905-11.743 18.494-16.809z" fill="#CB885E"/> <path transform="scale(1.6141)" d="m440.55 730.37 4.14-4.595c1.349 0.462 1.531 0.45 2.351 1.592-3.897 7.261-6.029 12.712-7.733 20.886-1.609 0.014-1.863 0.259-3.077-0.881l0.387-4.031-0.678-0.557-2.689 1.329c-5.097 2.559-8.791 2.063-14.301 1.472l-0.3-1.272 0.178-0.288c-0.033-2.883 0.015-4.864 1.545-7.366 1.537 2.098 1.918 2.811 4.258 3.836 6.368-0.415 11.332-6.161 15.919-10.125z" fill="#1D1C1C"/> <path transform="scale(1.6141)" d="m440.55 730.37c-1.968 5.277-5.097 10.202-10.455 12.532-3.278 1.425-7.743 1.271-11.267 1.123-0.033-2.883 0.015-4.864 1.545-7.366 1.537 2.098 1.918 2.811 4.258 3.836 6.368-0.415 11.332-6.161 15.919-10.125z" fill="#5F3420"/> </svg>