<?xml version='1.0' encoding='utf-8'?>
<svg xmlns:xlink="http://www.w3.org/1999/xlink" xmlns="http://www.w3.org/2000/svg" width="66.715mm" height="53.577mm" version="1.1" viewBox="0 0 66.715 53.577"><defs><linearGradient id="a"><stop stop-color="#334e91" offset="0"/><stop stop-color="#578ec6" stop-opacity="0" offset="1"/></linearGradient><filter id="s" x="-.058402" y="-2.3219" width="1.1168" height="5.6485" color-interpolation-filters="sRGB"><feGaussianBlur stdDeviation="0.28085703"/></filter><filter id="r" x="-.087342" y="-.10392" width="1.1747" height="1.2078" color-interpolation-filters="sRGB"><feFlood flood-color="rgb(9,0,83)" flood-opacity=".99216" in="SourceGraphic" result="flood"/><feGaussianBlur in="SourceGraphic" result="blur" stdDeviation="3.500000"/><feOffset dx="0.000000" dy="0.000000" in="blur" result="offset"/><feComposite in="flood" in2="offset" operator="out" result="comp1"/><feComposite in="comp1" in2="SourceGraphic" operator="atop" result="comp2"/></filter><filter id="q" x="-.057803" y="-.18702" width="1.1156" height="1.374" color-interpolation-filters="sRGB"><feGaussianBlur stdDeviation="0.42291352"/></filter><filter id="p" x="-.15606" y="-.36039" width="1.3121" height="1.7208" color-interpolation-filters="sRGB"><feFlood flood-color="rgb(9,0,83)" flood-opacity=".99216" in="SourceGraphic" result="flood"/><feGaussianBlur in="SourceGraphic" result="blur" stdDeviation="3.500000"/><feOffset dx="0.000000" dy="0.000000" in="blur" result="offset"/><feComposite in="flood" in2="offset" operator="out" result="comp1"/><feComposite in="comp1" in2="SourceGraphic" operator="atop" result="comp2"/></filter><filter id="b" x="-.097787" y="-.11447" width="1.1956" height="1.2289" color-interpolation-filters="sRGB"><feFlood flood-color="rgb(3,3,4)" flood-opacity=".99216" in="SourceGraphic" result="flood"/><feGaussianBlur in="SourceGraphic" result="blur" stdDeviation="1.000000"/><feOffset dx="0.000000" dy="0.000000" in="blur" result="offset"/><feComposite in="flood" in2="offset" operator="out" result="comp1"/><feComposite in="comp1" in2="SourceGraphic" operator="atop" result="comp2"/></filter><filter id="o" x="-.19856" y="-.19856" width="1.3971" height="1.3971" color-interpolation-filters="sRGB"><feGaussianBlur stdDeviation="0.17007681"/></filter><linearGradient id="j" x1="129.18" x2="94.292" y1="50.885" y2="113.82" gradientUnits="userSpaceOnUse"><stop stop-color="#ffd62a" offset="0"/><stop stop-color="#d40000" offset=".80955"/><stop stop-color="#900000" offset=".96272"/><stop stop-color="#540000" offset="1"/></linearGradient><linearGradient id="i" x1="135.77" x2="133.09" y1="70.108" y2="78.575" gradientTransform="matrix(1.0771 0 0 1.0771 -10.036 -5.1863)" gradientUnits="userSpaceOnUse"><stop stop-color="#670000" offset="0"/><stop stop-color="#e65a12" offset=".47807"/></linearGradient><linearGradient id="h" x1="107.58" x2="125.76" y1="66.462" y2="65.942" gradientUnits="userSpaceOnUse"><stop stop-color="#a00" stop-opacity=".2053" offset="0"/><stop stop-color="#3e0000" stop-opacity=".99669" offset="1"/></linearGradient><radialGradient id="c" cx="122.52" cy="63.049" r="5.1401" gradientTransform="matrix(.79325 .03421 -.031877 .73916 26.727 12.957)" gradientUnits="userSpaceOnUse"><stop stop-color="#b3b3b3" offset="0"/><stop offset="1"/></radialGradient><linearGradient id="g" x1="132.51" x2="119.63" y1="82.662" y2="105.92" gradientUnits="userSpaceOnUse"><stop stop-color="#ffaf00" offset="0"/><stop stop-color="#ea6f16" offset="1"/></linearGradient><linearGradient id="f" x1="138.24" x2="139.55" y1="69.996" y2="64.154" gradientUnits="userSpaceOnUse"><stop stop-color="#8e3900" offset="0"/><stop stop-color="#e65a12" offset=".47807"/></linearGradient><linearGradient id="e" x1="138.64" x2="141.89" y1="61.535" y2="73.018" gradientUnits="userSpaceOnUse"><stop stop-color="#5a2400" offset="0"/><stop stop-color="#e65a12" offset=".47807"/></linearGradient><linearGradient id="d" x1="94.24" x2="95.175" y1="81.779" y2="85.05" gradientTransform="matrix(.95677 -.079187 .069903 .8446 -1.4699 18.268)" gradientUnits="userSpaceOnUse" xlink:href="#a"/><linearGradient id="n" x1="94.24" x2="95.175" y1="81.779" y2="85.05" gradientTransform="matrix(1.2933 -.099501 .072043 .93644 -35.666 16.586)" gradientUnits="userSpaceOnUse" xlink:href="#a"/><linearGradient id="m" x1="94.24" x2="95.175" y1="81.779" y2="85.05" gradientTransform="matrix(1.3569 0 0 1.076 -34.586 -.55981)" gradientUnits="userSpaceOnUse" xlink:href="#a"/><linearGradient id="l" x1="94.24" x2="95.175" y1="81.779" y2="85.05" gradientTransform="matrix(1.3569 0 0 1.076 -33.183 3.0974)" gradientUnits="userSpaceOnUse" xlink:href="#a"/><linearGradient id="k" x1="94.24" x2="95.175" y1="81.779" y2="85.05" gradientTransform="matrix(.75923 .045148 -.035801 .60205 30.53 43.57)" gradientUnits="userSpaceOnUse" xlink:href="#a"/></defs><g transform="translate(-64.137 -105.06)"><g transform="matrix(.57174 0 0 .51619 44.158 87.788)" stroke-width="1.8408"><path transform="rotate(-.56904 99.358 850.46)" d="m109.95 109.55c0.69281-0.9528 2.2318-2.4735 3.5279-0.18033l13.304 12.745 6.6363-0.21662c0.63358-0.0203 1.3142-0.88777 2.0719-0.34516 0.77412 0.55436 1.5388 2.4877 1.5207 2.8177-0.0532 0.17684-1.0061-1.5336-2.8921-0.94719-0.5137 0.2329-0.71912 0.0446-0.97596-0.0921-1.7459-0.17466-2.58 3e-3 -4.1869-0.0497-0.115-0.13261 2.1156 0.57056 6.3816 0.93997 2.1445 0.1857 2.2718 1.5679 2.5171 3.3103-1.6039-1.5507-2.5295-0.11573-3.1604-1.0236-0.48148-0.6928-2.1764-2.2856-6.6908-1.9186 0 0 0.47819 0.74262 2.5927 1.5507 1.0564 0.34984 1.1498 0.32991 1.8127 0.42983 0.84718 0.1277 1.1808 1.1493 1.5192 2.5631-1.145-0.64202-1.7414-1.1165-2.9302-0.63664-1.2294 0.49625-1.5279-1.336-2.9174-1.7392-4.497-0.46183-12.408-4.1649-14.692-0.44244 0 0-0.38833-2.7802 0.57981-3.451 0.51503-0.35685 1.3573-0.21651 1.901 0.0984 3.2858 1.9034 6.7149 0.0829 6.75-0.7251z" fill="#803300" filter="url(#b)"/><path d="m97.062 109.15c0.69281-0.9528 1.2772-2.3266 3.0139 0.77426l9.9998 17.298 6.6363-0.21662c0.63358-0.0203 1.3142-0.88777 2.0719-0.34516 0.77412 0.55436 1.5388 2.4877 1.5207 2.8177-0.0532 0.17684-1.0061-1.5336-2.8921-0.94719-0.5137 0.2329-0.71912 0.0446-0.97596-0.0921-1.7459-0.17466-2.58 3e-3 -4.1869-0.0497-0.115-0.13261 2.1156 0.57056 6.3816 0.93997 2.1445 0.1857 2.2718 1.5679 2.5171 3.3103-1.6039-1.5507-2.5295-0.11573-3.1604-1.0236-0.48148-0.6928-2.1764-2.2856-6.6908-1.9186 0 0 0.47819 0.74262 2.5927 1.5507 1.0564 0.34984 1.1498 0.32991 1.8127 0.42983 0.84718 0.1277 1.1808 1.1493 1.5192 2.5631-1.145-0.64202-1.7414-1.1165-2.9302-0.63664-1.2294 0.49625-1.5279-1.336-2.9174-1.7392-4.497-0.46183-12.408-4.1649-14.692-0.44244 0 0-0.38832-2.7802 0.57982-3.451 0.51503-0.35685 1.3573-0.21651 1.901 0.0984 3.2858 1.9034 6.7149 0.0829 6.75-0.7251z" fill="#803300" filter="url(#b)"/><g stroke-width="1.8408"><path d="m121.29 48.484c-0.66787 0.01111-1.2938 0.02826-1.8696 0.0124-14.767-0.081671-22.319 12.844-26.896 26.065-11.988 0.83925-18.652 17.493-18.589 22.327 2.9697 4.1845 6.0515 7.5035 9.1664 10.155-0.79086-0.22527-3.9488-1.5798-3.9488-1.5798 1.7589 0.94147 2.6007 2.5124 5.5616 2.899 0.98456 0.76157 1.9706 1.4513 2.9569 2.0846-2.678-0.55854-4.0587-1.1522-6.742-1.8732 2.2022 1.3567 4.5858 2.244 7.9538 2.6293 17.437 10.323 34.456 1.8966 37.707-0.0248 7.6127-5.1649 11.146-11.736 11.979-19.239l-0.47801 5.7094c0.89619-3.251 0.75586-6.5617 0.66809-9.9371l0.33775 5.7844c0.68478-2.7755-0.0136-7.3005-0.4149-7.7504 0.69899 0.48127 0.8638 3.7971 0.8638 3.7971-0.0237-2.1411-0.022-3.5019-1.1572-6.7434-0.27652-2.0986-1.2247-6.4322-1.2247-6.4322 2.1518-3.7367 2.5496-9.3043 2.4516-14.353-6.0384-13.697-13.651-13.608-18.327-13.53z" fill="url(#j)"/><g stroke-width="1.8408"><path d="m81.838 104.66c11.095 0.75802 18.617-2.9102 25.521-7.7885" fill="none" filter="url(#q)" opacity=".46005" stroke="#000" stroke-linecap="round" stroke-linejoin="round" stroke-width=".92038" style="mix-blend-mode:normal"/><path d="m130.85 66.877c1.8911-1.8109 7.4443-4.7136 8.6715-4.9017-0.11952-4.7977-1.1739-8.1787-3.0891-10.864-0.0534-0.30434-0.56072-2.499-1.0174-2.7206 0.23541 0.29048 0.74717 1.7035 0.69956 2.2337-0.0472-0.06275-0.0753-0.09904-0.14285-0.18675-0.0624-0.5453-1.7687-4.3468-1.9488-4.1788-0.0149-0.15336 1.6919 3.4417 1.3468 3.4554-0.11035-0.12407-0.22259-0.24593-0.33667-0.36562-0.9843-2.065-2.5969-4.3468-4.9913-5.0665 0.40758 0.08619 3.7711 2.3597 2.9401 3.2755-1.6167-1.1777-3.4737-2.0726-5.5028-2.7651-3.1175-2.3938-7.1121-2.64-10.868-2.9372 2.3764 0.97479 5.3485 1.4925 6.7556 4.4058-4.1018-2.6988-8.3663-3.3676-11.969-3.8184 0.4032 0.18739 2.5068 1.1015 5.5073 5.1401-5.2871-4.8041-12.19-2.8479-13.615-2.2567 2.8663 0.18298 8.8275 1.148 10.237 2.8441-8.6644-2.7524-13.339 0.80789-16.265 2.8638 0.40526-0.40526 11.67-0.69241 9.6561-0.36715-5.6642-0.29081-9.6218 5.5395-9.2522 5.5807l6.7556-2.2029c-1.2242 0.70453-1.7589 1.0085-2.8025 2.0441-2.4021 0.799-5.8232 3.7658-5.7783 4.1703 0.04247 0.38259 3.8222-2.0992 3.5738-1.7963-3.5343 4.3104-4.1069 3.389-7.0147 8.848-8.5357 2.9691-18.07 19.364-19.011 25.522-0.12854 0.84116-20.11 15.782-26.563 24.417 7.6898-2.6444 26.819-21.679 27.049-21.497l-30.527 26.937c11.077-6.46 16.267-10.325 28.911-21.062 0 0-21.922 17.454-22.165 19.445 1.6905 0.0177 20.073-14.671 20.213-14.177 0.12614 0.44468-10.552 7.9303-10.238 8.2851 0.44296 0.50017 19.859-11.131 20.621-10.808 7.8064 3.3099 38.153-7.7064 26.303-16.514-23.036-17.122 26.039-52.484 23.858-20.981z" fill="#5f9dd3" filter="url(#r)"/></g></g><path transform="matrix(.99402 .15252 -.1129 1.1795 9.9684 -27.589)" d="m108.53 76.294c4.663 1.0474 5.7626 5.187 5.9479 10.28-1.1041 9.1315-13.144 12.357-22.984 12.336-3.6853-0.0078-12.934 0.5628-12.487 0.0501 0.62919-0.72062 7.3464-2.1796 7.3464-2.1796-8.0987 0.49438-16.41 1.8304-23.917 2.4995-0.3272 0.02917 10.242-2.8381 10.038-3.0869-0.35753-0.43554-12.389 1.3538-11.802 1.1079 2.5964-1.0871 9.1172-3.6005 10.113-4.1186l1.5394-0.80111c0.51039-0.26562-8.2306 1.8595-7.4057 1.2542 1.4464-1.0612 10.236-4.9541 11.888-5.9604 0.70108-0.42718-7.7711 2.4307-6.9446 2.0019 1.5365-0.79711 9.2467-4.2662 9.7349-4.572 14.966-9.3715 20.361-9.6871 28.932-8.8116z" fill="#578ec6" filter="url(#p)"/><path d="m131.77 67.366c-0.11997 0.18663 7.5298 2.4265 7.8617 2.5816 0.28493 0.13312-0.0545 1.1039-0.1141 1.4802 1.2747 3.5567 3.0052 3.0785 2.5234 3.1823-0.25724 0.05539-2.2711 0.24176-2.6999-1.8796-0.0847-0.41853-0.2589 0.06117-0.38075 0.5622-0.0214 0.088 0.44756 3.0446 1.3134 3.0326-0.14837 0.48068-1.8476-0.17264-1.7024-0.75326 0 0-0.0982 1.6639 0.71 2.7-1.0138-0.40437-1.1138-1.7859-1.146-1.6698-0.6173 2.2283 0.42176 2.88 1.1915 4.4186-1.0895-0.2405-2.2522-3.2935-2.6571-4.1012-0.12244-0.24424-0.78713 4.4572-0.9051 4.2294-0.14512-0.28019-0.54306-5.9944-0.57092-5.7429-0.3052 2.7545-1.6496 3.8356-1.8776 4.0379-0.60695 0.53856 0.89125-2.6409 1.0677-4.7503 0.0268-0.32087-3.5132 2.8171-4.4388 2.8725-0.36679 0.02193 1.1887-1.3626 2.657-3.9566-2.2944 1.6539-4.8048 1.6488-5.7317 2.1123-1.03 0.51499 4.3499-3.0845 4.3499-3.0845s-8.0794 2.3191-4.9826 1.1072c1.5863-0.62072 3.0039-1.5566 3.8306-2.7716-0.0642 0.40776-2.9229 0.25957-2.4214-0.0051 1.9096-0.06235 2.8926-0.85165 3.3462-2.5349-0.19966 0.4456-1.323 0.42974-1.3627 0.24218 0.84397 0.02055 0.83943-1.3172 1.2914-1.8867z" fill="url(#i)"/><path d="m125.95 65.466c0 3.3255-2.1247 5.3463-5.4501 5.3463-3.3255 2e-6 -12.927-3.942-13.446-4.204-0.0101-0.13177 0.50924-0.3215 0.47551-0.45053 0.029 0.21382-1.6635 0.34004-1.398-0.33261 0.59891 0.6932 2.4293-0.16276 2.5932-0.43153-0.36034 0.28888-3.0698 0.90341-2.4008 0.03589-0.1045 0.35438 1.3985 0.42226 3.4635-0.65837-0.37934 0.21376-3.3392 1.123-3.0315 0.39301 0.20628 0.41547 3.0358-0.53714 3.2797-0.69262 2.4818-1.054 2.1724-1.3489 9.53-4.1441 3.3255-2e-6 6.3848 1.8131 6.3848 5.1386z" fill="url(#h)" stroke-linecap="round" stroke-linejoin="round" stroke-width=".92038"/><circle cx="120.87" cy="65.206" r="5.1401" fill="url(#c)"/><path d="m124.48 84.044c0.5284 0.21743 0.67755-1.2334 1.2462-1.177 0.9125 0.09041 0.54241 4.0917 1.0763 3.3461 0.97192-1.3573 1.4535-2.3148 2.3811-3.344 1.1163-1.2385-0.93928 6.1599-0.24548 4.9846 0.72805-1.2333 0.7694-2.398 2.3224-4.3615 0.35415-0.44776-0.12167 3.4595 0.7091 2.8364 0.83077-0.62308 1.5251-3.4552 1.7328-1.5859 0.2077 1.8692-0.44176 2.799 1.1349 2.6726 1.1381-0.0912 2.2036-5.2465 2.4462-4.1308 2.9453 13.545-6.5659 25.324-14.954 28.454-4.0345 1.5054 9.882-5.5413 6.73-8.4754-1.5814 1.8021-5.7286 6.2567-9.2223 6.8139-1.6135 0.25731 4.3615-3.9462 2.9077-3.9462-1.4538 0-2.7312 1.7312-8.681 3.6694-2.6215 0.85395 5.139-3.8108 4.1117-6.3694-0.88231-2.1976-7.1664 5.0213-6.1195 2.8972 1.9853-4.028 4.2548-4.9559 5.4965-7.8819 0.56857-1.3398-4.3774 2.9901-3.7007 1.7015 1.2768-2.4313 4.5866-4.6411 4.116-6.8938-0.18404-0.88098-6.0231 3.7385-2.4923-1.0385s4.6244-11.901 8.9308-10.385c0.69629 0.24517-0.60922 1.9324 0.0734 2.2133z" fill="url(#g)" opacity=".61743"/><path d="m130.85 66.877 20.704-0.28112c-0.12882 2.1901-16.932 6.4624-20.704 0.28112z" fill="url(#f)"/><path d="m107.16 106.8c-3.7082 1.6755-6.0269 1.2936-8.4321 0.1774 2.426 1.5326 5.1096 2.795 8.54 0.94065 0.83255-0.45004 0.40936-1.3518-0.10795-1.118z" fill="#500" opacity=".61743"/><path d="m102.82 109.69c-4.0667 0.14296-6.067-1.0903-7.8686-3.0358 1.663 2.3386 3.6667 4.525 7.5442 4.1111 0.94107-0.10043 0.89174-1.0953 0.32442-1.0754z" fill="#500" opacity=".61743"/><path d="m105.1 105.59c-2.9991 0.67105-4.6554 0.0334-6.2631-1.1606 1.5594 1.5051 3.3506 2.8498 6.1717 2.004 0.68467-0.20529 0.50984-0.93701 0.0914-0.84339z" fill="#500" opacity=".61743"/><path d="m130.85 66.825h0.46731" fill="#a40" fill-opacity=".45503"/><path d="m131.08 66.871c4.9347 0.53467 14.439 0.32121 19.421-0.17614" fill="none" filter="url(#s)" stroke="#784421" stroke-linecap="round" stroke-linejoin="round" stroke-width=".92038"/><path d="m151.55 66.596c-1.4944-1.641-8.0502-3.171-12.033-4.6206-4.349 0.58585-7.267 1.7358-8.6715 4.9017 5.2678 0.47766 15.436 0.26447 20.704-0.28112z" fill="url(#e)"/><path d="m78.414 85.899c-0.14736-0.07672 14.157-7.1961 27.472-8.0779 0.79579-0.0527 3.123 2.8955 1.8125 3.0971-13.597 2.0915-29.285 4.9808-29.285 4.9808z" fill="url(#d)" opacity=".46005"/><path d="m75.864 87.917c-0.19686-0.08334 13.793-5.4059 31.786-6.5462 1.0754-0.06815 4.1383 3.1753 2.3644 3.4149-18.406 2.4863-34.15 3.1313-34.15 3.1313z" fill="url(#n)" opacity=".46005"/><path d="m72.027 92.29c-0.19863-0.11251 18.807-6.5323 37.666-6.2536 1.1271 0.01666 4.0615 3.9907 2.1921 4.1086-19.397 1.2225-39.858 2.1451-39.858 2.1451z" fill="url(#m)" opacity=".46005"/><path d="m72.028 96.778c-0.19863-0.11251 20.209-7.3631 39.067-7.0844 1.1271 0.01666 4.0615 3.9907 2.1921 4.1086-19.397 1.2225-41.26 2.9759-41.26 2.9759z" fill="url(#l)" opacity=".46005"/><path d="m85.953 99.613c-0.10739-0.0696 11.881-3.5737 22.423-2.7903 0.63008 0.04678 2.1397 2.368 1.0898 2.3718-10.894 0.03862-23.513 0.41853-23.513 0.41853z" fill="url(#k)" opacity=".46005"/><circle cx="123.12" cy="63.504" r="1.0278" fill="#fff" filter="url(#o)" style="mix-blend-mode:normal"/></g></g></svg>