<?xml version="1.0" encoding="UTF-8"?>
<svg id="_Ñëîé_1" data-name="Ñëîé_1" xmlns="http://www.w3.org/2000/svg" xmlns:xlink="http://www.w3.org/1999/xlink" viewBox="0 0 614.88 602.66">
  <defs>
    <style>
      .cls-1 {
        fill: #020202;
      }

      .cls-1, .cls-2, .cls-3, .cls-4, .cls-5, .cls-6, .cls-7, .cls-8, .cls-9, .cls-10, .cls-11, .cls-12, .cls-13, .cls-14, .cls-15, .cls-16, .cls-17, .cls-18, .cls-19, .cls-20, .cls-21, .cls-22, .cls-23, .cls-24, .cls-25, .cls-26, .cls-27, .cls-28, .cls-29, .cls-30, .cls-31 {
        fill-rule: evenodd;
      }

      .cls-2 {
        fill: #120201;
      }

      .cls-3 {
        fill: url(#Earthtone_16);
      }

      .cls-4 {
        opacity: .8;
      }

      .cls-4, .cls-32, .cls-11, .cls-31 {
        fill: #fff;
      }

      .cls-5 {
        fill: #22130d;
      }

      .cls-6 {
        fill: #683c2a;
      }

      .cls-7 {
        fill: #020201;
      }

      .cls-8 {
        fill: #19100b;
      }

      .cls-9 {
        fill: #fefefe;
      }

      .cls-10 {
        fill: #26120c;
      }

      .cls-12 {
        fill: #c66;
      }

      .cls-13 {
        fill: #492d1f;
      }

      .cls-14 {
        fill: #a0b3b3;
      }

      .cls-15 {
        fill: #bbb7b8;
      }

      .cls-16 {
        fill: #663c2a;
      }

      .cls-17 {
        fill: #030202;
      }

      .cls-18 {
        fill: #e0ac97;
      }

      .cls-19 {
        fill: #0c181a;
      }

      .cls-20 {
        fill: #e9eae5;
      }

      .cls-21 {
        fill: #d69277;
      }

      .cls-22 {
        fill: url(#Earthtone_17);
      }

      .cls-23 {
        fill: #43271a;
      }

      .cls-24 {
        fill: #42271a;
      }

      .cls-25 {
        fill: #dbdced;
      }

      .cls-27 {
        fill: #583020;
      }

      .cls-28 {
        fill: #884d2f;
      }

      .cls-29 {
        fill: url(#Earthtone_17-2);
      }

      .cls-30 {
        fill: #23150e;
      }

      .cls-31 {
        opacity: .5;
      }
    </style>
    <linearGradient id="Earthtone_17" data-name="Earthtone 17" x1="54.21" y1="349.8" x2="247.07" y2="349.8" gradientUnits="userSpaceOnUse">
      <stop offset="0" stop-color="#b78e70"/>
      <stop offset=".5" stop-color="#955d3c"/>
      <stop offset="1" stop-color="#834729"/>
    </linearGradient>
    <linearGradient id="Earthtone_17-2" data-name="Earthtone 17" x1="168.81" y1="145.48" x2="362.18" y2="145.48" xlink:href="#Earthtone_17"/>
    <linearGradient id="Earthtone_16" data-name="Earthtone 16" x1="219.85" y1="473.82" x2="297.43" y2="473.82" gradientUnits="userSpaceOnUse">
      <stop offset="0" stop-color="#ceb08e"/>
      <stop offset=".5" stop-color="#ae7f4d"/>
      <stop offset="1" stop-color="#99622c"/>
    </linearGradient>
  </defs>
  <g>
    <path class="cls-26" d="M267.99,586.65c3.64,2.13,7.29,4.24,10.92,6.39.82.49,1.62,1.03,2.34,1.66,2.86,2.5,1.19,6.61-1.58,7.42-.94.28-1.88.35-2.84.37-3.65.07-7.29.14-10.94.15-6.53.02-13.06.02-19.58,0-1.34,0-2.69-.04-4.02-.2-1.98-.24-3.33-1.32-3.99-3.25-.67-1.97-.09-3.59,1.37-4.94.7-.65,1.45-1.26,2.25-1.79,2.78-1.88,5.59-3.71,8.38-5.58.64-.43.58-.94-.14-1.24-.89-.36-1.79-.68-2.69-1-9.38-3.28-16.78-9.1-22.35-17.3-2.77-4.07-4.88-8.46-6.63-13.04-.31-.81-.57-1.63-.87-2.44-.81-2.2-2.39-3.36-4.73-3.61-2.86-.31-5.71-.7-8.57-1.06-11.04-1.41-21.96-3.51-32.77-6.12-7.82-1.89-15.57-4.05-23.24-6.52-1.74-.56-3.45-1.17-5.06-2.03-2.19-1.18-4.28-1.21-6.6-.23-16.07,6.76-32.16,13.48-48.26,20.15-2.53,1.05-4.32,2.66-5.57,5.1-1.71,3.34-3.9,6.38-6.44,9.16-5.9,6.47-13.2,10.55-21.78,11.95-11.12,1.82-22.18,1.31-33-2.12-3.03-.96-5.9-2.26-8.58-3.96-7.06-4.48-11.31-10.93-12.69-19.06-1.87-11.01,4.74-19.78,12.34-22.69,3.81-1.46,7.67-1.54,11.6-.75.37.08.73.23,1.11.31,2.21.48,2.22.27,2.99-1.58.93-2.23,2.11-4.3,3.69-6.14,4.59-5.36,11.12-6.96,17.73-4.67,2.56.89,4.82,2.34,6.89,4.09,1.24,1.06,2.49,2.11,3.76,3.13,1.87,1.5,3.84,1.65,5.84.28,1.5-1.03,3.01-2.07,4.42-3.21,6.21-4.99,12.38-10.02,18.57-15.04,1.34-1.09,2.67-2.2,4-3.29.5-.41.7-.81.28-1.45-.75-1.11-1.42-2.28-2.14-3.41-8.73-13.79-16.8-27.93-23.58-42.79-6.5-14.26-11.67-28.97-14.98-44.31-1.98-9.21-3.28-18.5-3.9-27.9-.53-7.97-.44-15.93.25-23.87,1.41-16.27,5.3-31.93,11.71-46.96,3.16-7.41,6.84-14.58,10.57-21.71,10.84-20.73,21.75-41.42,32.62-62.13,2.23-4.24,4.39-8.52,6.26-12.94.28-.67.61-1.32.8-2.25-1.45.19-2.51.85-3.62,1.32-4.52,1.92-9.19,3.28-14.06,3.98-10.49,1.5-20.69.38-30.47-3.7-14.09-5.88-24.37-15.73-30.34-29.88-1.88-4.45-3-9.09-3.2-13.94-.28-6.78,1.27-13.13,4.32-19.15,2.61-5.16,5.85-9.9,9.51-14.37,3.97-4.84,8.39-9.23,13.06-13.39,9.74-8.69,19.78-17.04,29.87-25.32,12.96-10.62,24.86-22.29,35.27-35.45,3.58-4.52,7.48-8.76,11.46-12.92,9.17-9.6,20.28-15.63,33.32-18.04,1.74-.32,2.93-1.19,4.05-2.47,6.06-6.94,13.19-12.55,21.36-16.82,7.01-3.66,14.43-6.17,22.15-7.82,5.64-1.2,11.35-1.88,17.09-2.37,4.87-.42,9.74-.99,14.61-1.45,4.78-.46,9.55-.9,14.33-1.29,3.73-.31,7.47-.49,11.2-.8,18.54-1.54,36.04,2.19,52.69,10.28,2.24,1.09,4.43,2.28,6.62,3.46,3.33,1.79,6.77,2.41,10.54,1.56,6.05-1.35,12.01-.97,17.76,1.52,2.21.96,4.3,2.13,6.2,3.61,2.88,2.24,5.7,4.58,8.12,7.31,10.04,11.31,21.29,21.31,32.92,30.91,6.44,5.31,13.09,10.37,19.36,15.89,11.15,9.8,21.21,20.57,29.41,33,4.71,7.15,8.81,14.61,11.7,22.7,3.17,8.86,4.85,17.97,4.25,27.39-.92,14.52-6.24,27.19-16.53,37.6-6.54,6.61-14.59,10.45-23.64,12.27-4.24.86-8.54,1.26-12.87,1.18-1.05-.02-2.1,0-3.14,0-.43,1.16.31,1.95.65,2.78,3.99,9.76,8.12,19.46,12.05,29.24,9.45,23.59,17.91,47.52,24.8,71.99,3.9,13.85,7.3,27.82,9.95,41.96,1.51,8.01,2.7,16.08,3.67,24.18.66,5.52,1.37,11.04,1.97,16.57.48,4.4.46,8.82.39,13.23-.24,15.14-3.55,29.65-8.97,43.73-.41,1.07-.86,2.14-1.23,3.22-.73,2.11-.43,2.49,1.91,2.43.38,0,.77-.03,1.15-.06,9.18-.75,18.38-1.35,27.54-2.31,12.79-1.34,25.46-3.45,37.89-6.8,16.92-4.55,32.23-12.18,45.43-23.82,4.55-4.01,8.7-8.39,12.53-13.09,6.54-8.04,12.79-16.31,19.13-24.51,1.11-1.44,2.23-2.89,3.47-4.22,2.88-3.09,5.54-1.97,7,1.18.7,1.5,1.02,3.07,1.08,4.73.12,3.1-.39,6.13-.96,9.14-3.01,16.05-10.56,29.67-22.06,41.2-11.5,11.54-24.7,20.66-39.35,27.68-16.52,7.92-33.47,14.77-51.05,20.01-11.13,3.32-22.43,5.9-33.9,7.68-7.12,1.1-14.28,1.75-21.46,2.22-.86.05-1.72.16-2.58.26-.26.03-.59,0-.7.36-.1.32.03.54.27.73.99.76,1.95,1.55,2.97,2.27,9.36,6.6,19.36,12.04,29.81,16.69,5.6,2.5,11.33,4.67,17.09,6.79,2.15.79,4.23,1.03,6.45.27,1.16-.4,2.44-.51,3.67-.67,3.07-.38,5.68.58,7.81,2.81.86.9,1.67,1.85,2.49,2.79.63.71,1.08,1.59,2.06,2.08.29-.36.61-.71.88-1.1,5.83-8.27,19.55-8.92,25.29,2.04,1.49,2.84,2.34,5.91,2.67,9.06.94,8.85-.63,17.21-5.34,24.85-4.69,7.6-11.68,11.42-20.46,12.1-12.01.94-23.74-.49-35.12-4.54-.9-.32-1.79-.68-2.67-1.05-6.15-2.64-10.79-6.85-13.55-13.03-3.63-8.12-9.75-13.64-17.94-16.93-1.77-.71-3.6-1.3-5.44-1.83-4.42-1.27-8.86-2.45-13.29-3.7-11.34-3.21-22.68-6.4-34-9.68-1.87-.54-3.49-.46-5.25.39-16.27,7.88-33.31,13.62-50.77,18.21-9.73,2.56-19.57,4.69-29.43,6.68-3.28.66-6.63,1.02-9.96,1.41-1.06.12-1.76.44-2.26,1.42-1.4,2.73-2.83,5.44-4.35,8.11-1.56,2.75-3.2,5.46-4.87,8.15-3.04,4.89-7.34,8.27-12.57,10.58-2.73,1.21-5.56,2.08-8.42,2.89-.31.21-.9.24-.58.87Z"/>
    <path class="cls-14" d="M267.99,586.65c-.29-.04-.49-.24-.43-.5.13-.6.61-.42,1.01-.37-.19.29-.39.58-.58.87Z"/>
    <path class="cls-22" d="M190.33,412.8c.13.07.25.14.37.21.25.1.43.28.55.51,2.16,1.9,4.25,3.85,6.06,6.12,5.01,6.3,2.27,13.26-2.16,16.86-2.67,2.17-7.65,2.98-11.14-.16-2.3-2.07-4.28-4.4-6.03-6.93-.91-1.32-1.85-2.63-2.78-3.95-.75.5-.39,1.11-.45,1.62-.06.47-.02.96-.03,1.44-.02,3.41-1.18,6.38-3.41,8.94-5.24,6.03-15.07,4.34-18.35-2.05-1.3-2.54-1.4-5.14-.4-7.78.55-1.44,1.3-2.77,2.28-3.98,1.45-1.79,2.88-3.59,4.31-5.4.48-.6.94-1.21,1.37-1.85,3.95-5.75,4.07-11.62.37-17.52-3.78-6.02-8.05-11.69-12.56-17.18-3.83-4.67-7.94-9.13-11.13-14.3-.15-.25-.32-.48-.46-.73-4.9-8.93-9.49-18-11.86-27.99-.86-3.64-1.44-7.33-1.6-11.08-.1-2.3-.41-4.6-.37-6.89.1-5.75.5-11.49,1.4-17.18.28-1.8.47-3.61.67-5.42.02-.22-.14-.59-.31-.67-.3-.14-.55.15-.62.42-.25.93-.49,1.86-.66,2.8-1.11,6.03-2.06,12.08-2.51,18.21-.25,3.45-.44,6.9-.32,10.35.4,11.72,2.66,23.02,7.83,33.64,3,6.16,6.86,11.75,11.21,17.03,4.64,5.62,9.27,11.26,13.58,17.14,1.13,1.54,2.17,3.16,3.17,4.8,2.27,3.73,2.21,7.47-.24,11.09-1.23,1.83-2.6,3.56-3.9,5.34-1.25,1.7-2.64,3.32-3.7,5.13-2.67,4.54-3.1,9.29-.44,13.96,3.15,5.54,8.1,8.7,14.39,9.33,3.89.39,7.31-1.21,10.18-3.9,1.35-1.26,2.33-2.79,3.34-4.31.62-.92.99-.97,1.81-.17,1.67,1.61,3.48,3,5.54,4.09,3.84,2.04,7.69,2.12,11.59.18,1.9-.95,3.66-2.1,5.21-3.56,2.87-2.71,4.26-6.08,4.44-9.98.13-2.8-.24-5.55-.93-8.26-.19-.74-.29-1.5-.47-2.45,1.85-.27,3.61-.54,5.38-.79,2.29-.32,4.52-.89,6.61-1.88,2.48-1.17,4.5-2.91,6.07-5.16.18-.25.44-.37.73-.21.14.08.25.27.32.43.07.17.09.37.1.56.48,7.37.91,14.75.24,22.13-.06.67-.06,1.34-.08,2.01-.11,5.76-.55,11.49-1.14,17.21-.5,4.86-.85,9.74-1.35,14.6-.45,4.38-1.04,8.75-1.52,13.13-.47,4.29-.87,8.58-1.32,12.87-.49,4.67-1,9.34-1.52,14-.24,2.19-.36,4.39-.59,6.59-.62,5.92-.97,11.85-.79,17.81.09,3.07.08,6.14.08,9.21,0,1.44-.25,1.63-1.69,1.69-3.09.13-6.14-.33-9.16-.8-13.64-2.12-27.13-5-40.49-8.51-4.26-1.12-8.5-2.37-12.63-3.92-.63-.24-1.24-.51-1.84-.8-.35-.17-.34-.74.03-.94,1.01-.54,2.02-1.11,3.08-1.56,4.69-1.96,9.39-3.9,14.09-5.82.9-.37,1.82-.64,2.34-1.55.08-.15.11-.4.04-.54-.07-.13-.33-.25-.47-.22-.56.12-1.11.28-1.66.45-13.43,4.29-26.84,8.61-40.29,12.85-5.5,1.74-10.73,4.16-16.05,6.33-6.75,2.75-13.46,5.59-20.2,8.37-.96.4-1.91.88-3,.9-.55-.26-.46-.78-.49-1.23-.29-5.11-2.67-9.11-6.49-12.37-1.83-1.56-3.78-2.94-5.88-4.13-.83-.47-.87-.87-.17-1.56,1.02-1.02,2.07-2.01,3.15-2.96,5.47-4.82,10.96-9.62,16.44-14.43,2.38-2.09,4.56-4.4,6.71-6.73,3.05-3.32,6.07-6.67,9.13-9.99,4.61-5.01,9.24-10.01,13.86-15.02.26-.28.52-.57.73-.89.08-.12.1-.39.02-.48-.11-.12-.35-.19-.52-.17-1.02.11-1.74.76-2.43,1.43-.9.87-1.76,1.77-2.67,2.63-5.88,5.52-11.76,11.03-17.65,16.54-.35.33-.69.67-1.07.96-.43.33-.88.29-1.31-.05-.76-.62-1.24-1.45-1.75-2.26-4.01-6.32-7.87-12.73-11.55-19.25-3.73-6.6-7.2-13.34-10.43-20.2-6.35-13.48-11.51-27.39-14.92-41.93-1.73-7.38-3.03-14.82-3.92-22.35-.91-7.74-1.23-15.49-1.01-23.26.2-7,.94-13.95,2.11-20.86,1.45-8.53,3.69-16.85,6.57-24.99,2.56-7.25,5.9-14.16,9.35-21.02,7.2-14.32,14.64-28.5,22.19-42.64,4.7-8.8,9.3-17.66,13.96-26.48,4.21-7.97,8.47-15.92,12.67-23.9.95-1.81,2.2-3.29,3.8-4.61,6.24-5.13,11.85-10.9,17.03-17.11,8.15-9.77,14.86-20.49,20.91-31.65.58-1.08,1.05-2.25,2.01-3.12.81.41,1.09,1.14,1.47,1.76,8.29,13.49,16.59,26.97,24.83,40.48,10.15,16.63,20.14,33.34,29.27,50.56,9.62,18.16,18.31,36.74,25.26,56.11.39,1.08.77,2.17,1.12,3.26.44,1.37.37,1.54-1.04,2.12-2.31.94-4.64,1.81-6.95,2.77-5.08,2.11-9.87,4.79-13.99,8.44-7.1,6.29-11.89,13.97-13.46,23.48-.65,3.92-.58,7.81-.1,11.74.83,6.69,2.75,13.12,4.49,19.6,1.22,4.53,2.59,9.03,3.4,13.66.55,3.11,1.01,6.24,1.51,9.36.17,1.03.33,2.06.5,3.09-.84.14-1.07-.48-1.37-.9-3.35-4.83-8.26-7.34-13.64-9.02-3.19-1-6.52-1.52-9.68-2.72-10.27-3.89-17.06-11.1-20.75-21.35-1.6-4.44-2.46-9.04-2.97-13.73-.41-3.73-.54-7.46-.45-11.2.17-7.61,1.41-15.06,3.16-22.45.97-4.11,2.02-8.19,3.45-12.17.3-.83.46-1.67.36-2.54-.02-.16-.15-.38-.27-.43-.13-.04-.41.04-.49.16-.27.39-.5.81-.7,1.25-3.02,6.76-5.47,13.72-7.01,20.97-1.16,5.44-1.97,10.94-2.05,16.53-.08,5.38-.1,10.75.66,16.09.71,4.95,1.69,9.85,3.62,14.47,2.75,6.56,7.27,11.68,13.26,15.52,3.84,2.46,8.04,4.02,12.45,5.11,3.26.8,6.51,1.62,9.64,2.86,2.88,1.14,5.12,2.96,6.58,5.72,2.18,4.13.97,8.26-3.14,10.53-2.39,1.32-4.99,1.97-7.7,2.16-3.76.27-7.47-.05-11.09-1.17-.36-.3-.85-.22-1.24-.44-.17-.03-.34-.06-.5-.11-.31-.29-.69-.35-1.04-.16-.31.17-.25.44.03.64Z"/>
    <path class="cls-28" d="M411.88,474.03c1.44,1.67,2.83,3.38,4.34,4.99,6.83,7.28,13.93,14.31,21.45,20.88,3.68,3.22,7.41,6.39,11.22,9.46,1.63,1.32,3.47,2.4,5.29,3.47,10.28,6.04,20.97,11.21,32.19,15.27,1.35.49,2.69,1.01,4.01,1.58.92.4,1.09.72.83,1.54-.67,2.09-1.39,4.17-2.09,6.25-.99.12-1.53-.47-2.15-.86-1.78-1.13-3.6-2.17-5.56-2.99-4.97-2.07-10.24.35-12.77,3.89-1.01,1.41-1.85,2.91-2.51,4.52-.37.89-.73,1.78-1.14,2.64-.33.71-.68.8-1.35.33-1.89-1.32-3.78-2.62-5.81-3.73-4.99-2.76-10.3-4.69-15.77-6.17-8.51-2.29-17.08-4.36-25.52-6.93-7.88-2.4-16-3.96-24.03-5.78-9.82-2.22-19.58-4.63-29.26-7.4-.46-.13-.93-.24-1.4-.31-.15-.02-.39.09-.47.21-.08.14-.07.38-.02.55.19.59.65.95,1.19,1.17.88.37,1.78.72,2.68,1.03,6.17,2.11,12.34,4.21,18.51,6.32.53.18,1.16.2,1.4.89-.56.69-1.41.91-2.18,1.24-13.82,6.04-28.06,10.85-42.62,14.77-12.5,3.37-25.18,5.89-37.87,8.39-.46.09-.95.11-1.43.1-.47,0-.68-.35-.62-.77.18-1.23.39-2.46.6-3.69.73-4.35,1.39-8.7,1.58-13.12.12-2.87.49-5.73.37-8.62-.19-4.79-.46-9.57-.87-14.35-.46-5.35-1.23-10.66-1.97-15.97-.58-4.17-1.35-8.32-1.96-12.49-.72-4.93-1.4-9.87-2.03-14.81-.56-4.47-1.06-8.94-1.52-13.42-.29-2.77-.56-5.54-.65-8.31-.23-7.57-.92-15.14-.57-22.73.23-4.98.28-9.97.9-14.93.19-1.52.13-3.06.18-4.59.61-1.14-.15-2.48.52-3.62.82-1.69.69-3.57.99-5.35,1.9-11.48,4.8-22.68,8.67-33.64,1.28-3.62,2.58-7.22,3.85-10.84,1.08-3.09,1.76-6.29,1.96-9.55.44-6.95-1.74-13.04-6.35-18.24-2.75-3.1-5.79-5.87-9.21-8.22-1.26-.87-2.55-1.71-3.8-2.6-1.18-.83-1.21-.97-.53-2.36,1.64-3.36,3.35-6.69,4.93-10.08,2.11-4.52,3.76-9.23,5.43-13.93.34-.97.44-2.08,1.34-2.86.79,1.49.94,3.14,1.36,4.7.7,2.6,1.5,5.15,2.87,7.5,2.09,3.59,5.07,5.9,9.22,6.7,2.07.4,4.06.06,5.95-.54,5.72-1.81,10.18-5.28,13.03-10.64,2.14-4.04,3.19-8.39,3.54-12.94.6-7.76-1.1-15.04-4.28-22.07-1.86-4.1-3.66-8.24-5.36-12.41-2.18-5.36-3.52-10.91-3.83-16.73-.35-6.44.65-12.61,3.15-18.52,2.5-5.92,5.12-11.79,7.74-17.65,1.88-4.2,3.81-8.38,5.78-12.54,3.38-7.14,7.52-13.81,12.45-19.99,2.51-3.15,4.99-6.32,7.49-9.49.3-.38.55-.8.9-1.12,1.37-1.24,1.91-1.75,2.58.57,2.24,7.83,4.63,15.62,7.06,23.4,1.37,4.39,2.91,8.73,4.79,12.94,2.61,5.84,6.05,11.09,10.67,15.56,4.72,4.56,10.24,7.71,16.45,9.72.46.15.91.3,1.37.43,1.4.38,2.31,1.28,2.87,2.61.86,2.03,1.78,4.03,2.64,6.07,8.08,19.18,15.8,38.5,22.76,58.11,5.06,14.28,9.68,28.7,13.79,43.29,3.33,11.81,6.14,23.74,8.54,35.78,1.42,7.14,2.65,14.32,3.76,21.51.82,5.3,1.27,10.66,2,15.97.5,3.63.43,7.27.65,10.91.26,4.42.04,8.83-.29,13.21-.65,8.81-2.27,17.47-4.74,25.97-3.2,11.02-7.82,21.42-13.34,31.45-3.05,5.55-6.04,11.13-9.07,16.69-.54,1-1.14,1.96-1.82,3.14-1.44-1.28-2.75-2.39-4.01-3.55-5.45-4.98-10.9-9.97-16.35-14.96-.98-.21-1.63-.9-2.28-1.58.63.69,1.35,1.32,1.57,2.29Z"/>
    <path class="cls-29" d="M294.76,283.15c-1-.55-1.66-1.51-2.46-2.32-3.05-3.11-6.42-5.79-10.43-7.55-4.64-2.03-9.46-3.03-14.57-2.28-1.99.29-3.98.5-5.93,1.08-5.98,1.79-10.54,5.35-13.7,10.72-.05.08-.09.17-.15.25-.61.73-.75,1.78-1.62,2.33-1.18-.52-1.39-1.71-1.81-2.72-4.77-11.74-10.15-23.2-15.98-34.45-6.09-11.76-12.52-23.33-19.36-34.67-10.41-17.25-20.9-34.45-31.35-51.67-2.24-3.69-4.5-7.37-6.74-11.06-.7-1.15-1.44-2.3-1.7-3.63-.37-1.93-.04-3.78.75-5.61,2.38-5.55,4.74-11.11,7-16.72,4.08-10.15,7.58-20.5,10.27-31.11,1.58-6.23,2.9-12.53,3.63-18.9.54-4.74,1.05-9.54.31-14.35-.3-1.98-.13-4.01-.48-6.01-1.36-7.89-5.79-13.41-12.8-17.03-.85-.44-1.71-.86-2.54-1.35-.54-.32-.64-1.01-.29-1.51.16-.23.35-.45.55-.66,5.42-5.75,11.19-11.05,18.23-14.82,3.92-2.1,8.04-3.6,12.32-4.73,7.23-1.91,14.56-3.4,21.95-4.49,3.79-.56,7.61-.9,11.42-1.36,4.19-.5,8.37-1.02,12.55-1.52,2.09-.25,4.2-.39,6.3-.58,8.61-.78,17.25-1.05,25.88-.62,11.51.58,22.55,3.29,33.07,8.01,2.97,1.33,5.9,2.79,8.83,4.22,1.03.5,2.07,1,3,1.88-.38,1.3-1.33,2.26-2.12,3.32-1.89,2.56-3.45,5.28-4.31,8.39-1.16,4.22-.97,8.34.63,12.4,1.76,4.48,4.17,8.64,6.61,12.77,1.56,2.64,3.27,5.2,5.1,7.66,7.01,9.48,12.42,19.81,16.66,30.78,3.95,10.22,6.85,20.74,9.2,31.43.45,2.06.77,4.15,1.3,6.19.54,2.09-.09,3.72-1.47,5.26-2.44,2.71-4.86,5.44-7.2,8.23-5.5,6.56-10.23,13.67-14.48,21.09-4.93,8.59-8.89,17.63-12.35,26.91-4.99,13.39-10.08,26.74-15.07,40.13-3.18,8.54-6.32,17.09-9.38,25.67-2.51,7.05-4.36,14.3-6.43,21.48-.16.56-.25,1.13-.85,1.54Z"/>
    <path class="cls-6" d="M86.13,214.84c-8.39-.26-15.35-1.68-22.04-4.59-7.27-3.16-13.4-7.81-18.56-13.75-5.25-6.05-8.66-13.06-10.2-20.95-1.26-6.44-.18-12.56,2.58-18.44.12-.26.24-.53.4-.77,3.16-4.8,6.2-9.69,9.85-14.15,3.28-4.01,6.63-7.97,10.46-11.46,4.46-4.06,8.84-8.22,13.52-12.04,6.09-4.97,12.07-10.05,18.13-15.05,3.18-2.62,6.22-5.4,9.32-8.11,5.14-4.49,9.9-9.35,14.63-14.26,4.52-4.69,8.77-9.63,12.76-14.79,1.46-1.89,3.07-3.68,4.67-5.46,1.98-2.21,3.98-4.41,6.06-6.54,6.07-6.22,13.25-10.66,21.47-13.48,1.74-.6,3.53-.87,5.31-1.22,1.92-.38,3.85.04,5.69.52,6.61,1.73,11.51,5.45,13.83,12.15.76,2.2,1.03,4.47,1.49,6.71.33,1.59.38,3.23.68,4.83.29,1.55.11,3.07-.13,4.56-.89,5.57-1.78,11.14-2.85,16.67-.65,3.38-1.56,6.71-2.48,10.03-1.77,6.37-3.7,12.69-5.89,18.93-2.52,7.14-5.15,14.23-8.28,21.14-1.74,3.84-3.38,7.73-5.27,11.5-3.19,6.34-6.56,12.58-10.24,18.65-3.58,5.91-7.6,11.51-11.89,16.92-3.7,4.67-7.97,8.81-12.19,13.01-4.09,4.08-8.59,7.64-13.47,10.73-6.22,3.94-12.93,6.72-20.21,7.87-2.72.43-5.48,1.03-7.15.8Z"/>
    <path class="cls-3" d="M220.19,368.09c1.53,1,2.65,1.73,3.77,2.45,5.84,3.78,12.07,6.71,18.86,8.33,9.45,2.26,18.84,1.83,28.16-.84,7.9-2.27,15.18-5.89,22.16-10.16.88-.54,1.67-1.28,2.73-1.5.53.93.1,1.73-.13,2.53-1.8,6.17-3.33,12.41-4.48,18.74-1.23,6.8-2.11,13.64-2.67,20.53-.83,10.07-.77,20.14-.44,30.21.21,6.52.83,13.02,1.48,19.51.96,9.64,2.48,19.22,3.74,28.82.85,6.47,1.81,12.92,2.61,19.39.92,7.43,1.63,14.88,1.42,22.39-.3,10.76-2.34,21.14-6.43,31.1-1.76,4.29-4.09,8.25-7.26,11.67-4.04,4.36-9.08,7.01-14.72,8.6-10.46,2.96-20.14,1.27-28.93-5.15-8.95-6.54-14.67-15.29-17.61-25.92-1.36-4.92-2.06-9.94-2.38-15.03-.58-9.13.07-18.22,1.04-27.29.67-6.3,1.29-12.6,1.96-18.89.67-6.39,1.39-12.78,2.06-19.17.47-4.49.9-8.97,1.32-13.46.54-5.83,1.13-11.65,1.52-17.49.44-6.51.79-13.02.46-19.56-.27-5.37-.6-10.72-1.25-16.06-1.14-9.45-3.07-18.73-5.58-27.9-.3-1.11-.61-2.22-.89-3.33-.16-.64-.27-1.29-.51-2.51Z"/>
    <path class="cls-6" d="M464.97,153.04c.13,7.38-.92,14.06-3.32,20.51-2.65,7.11-6.54,13.36-12.2,18.55-6.51,5.96-14.14,9.46-22.7,10.98-2.71.48-5.49.87-8.29.68-8.25-.56-16.06-2.48-22.97-7.29-3.35-2.33-6.1-5.22-8.49-8.49-3.6-4.91-6.18-10.36-8.44-15.98-2.65-6.6-4.46-13.45-6.18-20.32-1.44-5.76-2.85-11.52-4.24-17.29-1.81-7.54-3.52-15.1-5.42-22.61-1.9-7.53-4.39-14.88-7.47-22.02-3.96-9.19-8.58-18.02-14.39-26.16-4.47-6.27-8.1-13.01-11.79-19.73-3.69-6.73-1.3-14.79,4.26-19.09,3-2.33,6.54-3.69,10.32-4.06,2.85-.27,5.72-.3,8.59.26,3.7.72,6.75,2.65,9.73,4.77,3.46,2.47,6.31,5.58,9.1,8.75,2.98,3.39,6.24,6.51,9.52,9.6.77.72,1.61,1.36,2.37,2.09,4.89,4.74,10.02,9.21,15.26,13.55,6.05,5.01,12.04,10.09,18.14,15.04,5.96,4.84,11.71,9.91,17.01,15.47,5.1,5.35,9.85,10.98,14.1,17.03,3.75,5.34,7.2,10.87,10.06,16.75,2.52,5.18,4.67,10.52,5.99,16.14,1.04,4.39,1.75,8.84,1.44,12.87Z"/>
    <path class="cls-16" d="M608.84,390.44c.47,2.92-.17,5.7-.72,8.49-1.48,7.6-4.32,14.7-8.13,21.4-2.04,3.59-4.46,6.91-7.09,10.11-2.51,3.05-5.24,5.87-8.11,8.55-6.6,6.17-13.74,11.63-21.47,16.33-8.05,4.9-16.62,8.73-25.18,12.63-11.26,5.13-22.81,9.52-34.62,13.2-8.68,2.71-17.46,5.04-26.42,6.68-3.86.7-7.7,1.44-11.57,2.11-1.69.29-3.42.45-5.12.61-2.76.26-5.52.58-8.28.84-3.45.33-6.88.42-10.33.43-.57,0-1.13-.06-1.65-.08-.22-.48-.12-.84.06-1.19,1.1-2.13,2.21-4.26,3.33-6.38.36-.68.77-1.33,1.13-2,2.73-5.06,5.5-10.11,8.16-15.21.9-1.74,2.3-2.59,4.09-2.74,2.29-.19,4.59-.44,6.84-.76,2.94-.42,5.92-.32,8.85-.86,2.62-.49,5.33-.48,8-.74,2.95-.29,5.89-.62,8.84-.94.38-.04.76-.13,1.14-.15,3.54-.15,7.04-.7,10.55-1.11,2.75-.32,5.49-.72,8.24-1.1,5.04-.7,9.97-1.88,14.87-3.17,5.55-1.46,11.09-2.96,16.48-5.02,6.47-2.47,12.67-5.47,18.62-8.99,4.96-2.93,9.65-6.29,13.99-10.05,3.61-3.13,7.15-6.34,10.33-9.97,5.94-6.78,11.46-13.88,16.95-21.03,2.22-2.89,4.47-5.75,6.74-8.59.39-.48.62-1.19,1.47-1.32Z"/>
    <path class="cls-18" d="M255.34,374.91c-7.13-.23-13.72-1.28-19.95-4.05-4.79-2.13-9.04-5.04-12.68-8.8-3.13-3.23-5.37-6.96-6.25-11.44-.7-3.56-.47-7.07.56-10.52,2.76-9.21,8.13-16.41,16.52-21.24,3.99-2.3,8.23-4.11,12.39-6.05,2.86-1.33,5.6-.93,8.08,1.06.3.24.6.48.89.72,6.58,5.54,13.97,6.21,21.88,3.57,1.73-.58,3.35-1.42,4.86-2.46.47-.33.93-.67,1.42-.98,2.6-1.68,4.14-1.62,6.49.39,2.7,2.31,5.38,4.63,7.99,7.04,1.41,1.29,2.73,2.7,3.97,4.16,2.9,3.39,4.08,7.37,3.48,11.77-1.22,8.99-5.36,16.5-11.92,22.7-3.74,3.53-8.09,6.15-12.8,8.14-6.74,2.85-13.71,4.89-21,5.72-1.43.16-2.87.22-3.94.29Z"/>
    <path class="cls-16" d="M32.89,532.72c.46-1.87,1.17-3.63,2.32-5.2,2.16-2.95,4.93-4.62,8.71-4.68,3.3-.06,6.18.88,8.85,2.75,2.54,1.79,3.75,4.18,3.84,7.27.07,2.35-.68,4.51-1.28,6.71-.2.42-.15.91-.35,1.32.36-.19.59-.56.98-.71,1.35-1.61,2.61-3.3,3.96-4.92,2.13-2.56,4.84-3.15,7.78-2.46,4.09.96,7.63,3.01,10.27,6.42,2.36,3.05,2.61,6.49,1.95,10.11-.29,1.61-.84,3.17-1.58,4.61-1.88,3.66-3.68,7.43-6.64,10.37-3.22,3.19-6.94,5.71-11.14,7.5-3.19,1.36-6.51,2.42-9.92,2.77-3.58.37-7.15.9-10.86.36-4.06-.6-8.18-.98-12.16-1.97-5.06-1.26-9.69-3.54-13.95-6.59-2.67-1.92-4.38-4.55-5.81-7.38-1.72-3.4-2.46-7.06-2.02-10.88.67-5.84,3.7-10.06,9.21-12.15,5.3-2.01,10.19-.9,14.42,2.86.85.75,1.51,1.72,2.25,2.58.35.18.57.5.79.79.21-.47-.01-.97.14-1.43.15-2.69-.29-5.38.24-8.05Z"/>
    <path class="cls-16" d="M494.43,551.18c-.17-2.29-.56-4.54-.98-6.78-.48-2.62-.41-5.2.44-7.66,1.42-4.12,4.22-6.82,8.71-7.36,2.09-.25,3.95.65,5.73,1.59,2.37,1.25,3.95,3.3,5.21,5.62,1.2,2.19,2.26,4.45,2.8,6.91.03.15.22.34.37.37.35.07.52-.23.54-.5.08-2.13.59-4.17,1.25-6.18.6-1.85,1.61-3.43,2.91-4.89,3.63-4.08,9.89-3.52,13.42-.18,2.48,2.33,3.66,5.39,4.34,8.6,1.69,7.96.26,15.47-3.93,22.38-3.72,6.13-9.16,9.93-16.33,11.12-4.86.81-9.71.74-14.59.11-4.75-.62-9.48-1.32-14.12-2.46-3.72-.91-7.29-2.26-10.69-4.12-4.36-2.38-7.11-5.94-8.86-10.52-1.88-4.92-1.36-9.57.95-14.16.44-.87,1.01-1.63,1.67-2.33,2.38-2.53,5.02-3.33,8.58-1.82,1.87.8,3.54,1.91,5.01,3.32,2.5,2.39,4.96,4.82,6.72,7.84.24.4.57.76.85,1.13Z"/>
    <path class="cls-12" d="M304.78,274.78c-.09-3.54.74-6.7,1.52-9.86.82-3.35,1.93-6.62,3.11-9.86,2.16-5.94,4.28-11.9,6.43-17.84.95-2.61,1.94-5.21,2.93-7.8.16-.44.34-1.03.83-1.06.67-.03.88.64,1.12,1.15.12.26.19.54.29.81,3.51,9.43,7.03,18.85,10.52,28.29,1.37,3.69,2.51,7.46,2.95,11.38.82,7.17-.77,13.72-5.3,19.43-1.82,2.3-4.16,3.94-6.87,5.06-2.28.94-4.64,1.22-7.05.77-2.49-.46-4.36-1.9-5.68-4.05-2.03-3.3-3.33-6.89-4.16-10.66-.43-1.97-.74-3.96-.64-5.75Z"/>
    <path class="cls-21" d="M259.73,598.18c-4.5.07-9,.16-13.5.21-.56,0-1.15-.05-1.69-.21-.72-.21-1.01-1.4-.48-1.92.33-.34.74-.61,1.14-.87,3.69-2.4,7.42-4.76,11.08-7.21,1.35-.91,2.54-.98,3.99-.21,4.73,2.51,9.52,4.93,14.28,7.38.25.13.53.25.73.44.27.26.49.59.4,1.02-.09.41-.37.74-.73.8-.75.13-1.52.18-2.28.19-4.31.1-8.62.17-12.93.26,0,.04,0,.07,0,.11Z"/>
    <path class="cls-8" d="M32.36,543.07c-.22-.55-.43-1.1-.65-1.65.63-.45.63-1.11.63-1.78,0-1.7,0-3.4,0-5.1,0-.66-.04-1.34.54-1.82.04,3.07.08,6.14.11,9.2.22.62.44,1.24-.64,1.14Z"/>
    <path class="cls-5" d="M411.88,474.03c-2.49-2.21-3.66-4.09-2.96-3.93,1.74.4,2.56,2.01,3.68,3.22-.24.23-.47.47-.71.71Z"/>
    <path class="cls-30" d="M55.96,540.19c-.38.84-.96,1.53-1.58,2.14-.34-.22-.35-.37-.26-.58.33-.77.57-1.58,1.22-2.16.21.2.42.41.63.61Z"/>
    <path class="cls-26" d="M295.01,397.93c-.01,1.23.18,2.49-.52,3.62-.01-.81-.04-1.63-.04-2.44,0-.47.17-.88.56-1.18Z"/>
    <path class="cls-27" d="M190.33,412.8c-.31-.17-.64-.31-.93-.52-.11-.08-.18-.33-.15-.48.02-.1.27-.25.39-.22.61.14,1.3.11,1.7.74-.37.1-.79.07-1.01.49Z"/>
    <path class="cls-27" d="M191.84,412.42c.5-.11.93,0,1.24.44-.5.09-.92-.02-1.24-.44Z"/>
    <path class="cls-27" d="M191.25,413.53c-.18-.17-.37-.34-.55-.51.33.01.5.2.55.51Z"/>
    <path class="cls-26" d="M333.65,430.26c-.04,1.81-.51,3.58-.13,5.43.68,3.32,2.65,5.43,5.95,6.2,4.49,1.04,8.34-.02,11.58-3.32,1.62-1.65,3.08-3.39,4.01-5.57,1.29-3.04,1.38-6.18.79-9.33-.63-3.39-1.5-6.73-2.29-10.09-.48-2.05-.97-4.09-.97-6.23.01-3.6,1.1-6.79,3.3-9.61,3.1-3.97,6.88-7.22,11.02-10.04,4.94-3.36,9.49-7.18,13.54-11.57,1.1-1.2,2.17-2.44,3.18-3.72,2.79-3.54,5.61-7.07,8.27-10.7,5.72-7.78,9.08-16.62,11.36-25.92,1.46-5.96,2.6-11.99,3.54-18.05.06-.37.16-.74.27-1.11.02-.07.15-.15.22-.14.17,0,.4.01.49.12.45.54.61,1.17.53,1.87-1.42,13.3-3.76,26.37-9,38.78-4.24,10.04-10.14,18.94-18.29,26.23-3.21,2.88-6.7,5.45-10.04,8.18-2.67,2.19-5.33,4.39-7.97,6.62-1.03.87-2,1.8-2.74,2.94-1.89,2.89-2.35,6.04-1.6,9.37.75,3.37,1.79,6.68,2.33,10.08,1.31,8.28-.2,15.89-6.23,22.12-4.01,4.14-8.91,5.76-14.66,4.85-2.11-.33-4.13-.83-5.99-1.89-2.07-1.17-3.59-2.86-4.61-5-.29-.6-.48-1.25-.79-1.85-.18-.34-.51-.57-.95-.45-.55.15-1.1.32-1.66.47-6.74,1.83-14-1.13-17.38-7.02-1.82-3.18-2.51-6.62-1.92-10.26.2-1.23.54-2.43.78-3.65.09-.43-.16-.76-.57-.84-.56-.11-1.14-.11-1.72-.18-4.62-.54-7.55-3-8.77-7.5-1.45-5.33-.96-10.45,1.86-15.27,1.93-3.31,4.59-5.89,7.95-7.73,3.37-1.85,6.89-3.38,10.49-4.72,2.7-1,5.42-1.93,8.13-2.9,7.54-2.7,14.12-6.87,19.53-12.83,4.24-4.68,7.4-10.04,9.78-15.84,3.44-8.37,5.73-17.07,7.09-26.02,1.2-7.89,1.87-15.8,1.72-23.78-.01-.66-.12-1.35.25-1.97.09-.15.25-.33.41-.36.11-.02.33.16.38.29.17.45.33.91.41,1.38.45,2.74,1.06,5.47,1.28,8.23.42,5.27.46,10.57-.03,15.82-.51,5.54-1.55,11.01-3.04,16.38-1.97,7.14-4.68,13.99-7.9,20.66-2.52,5.21-6.19,9.46-10.5,13.2-5.65,4.9-12.09,8.43-19.21,10.74-5.2,1.69-10.26,3.77-15.18,6.16-4.91,2.39-7.56,6.33-8.43,11.59-.32,1.93-.03,3.84.56,5.68.7,2.17,2.39,3.17,4.53,3.46,1.24.17,2.47.05,3.71-.25,2.9-.7,5.67-1.79,8.49-2.71.53-.17,1.04-.48,1.64-.35.08.89-.64,1.17-1.06,1.61-1.6,1.66-3.19,3.33-4.39,5.32-1.67,2.76-2.56,5.71-2.72,8.97-.26,5.08,5.14,11.42,12.61,9.06,1.83-.58,3.59-1.35,5.17-2.48.94-.67,1.91-1.28,2.87-1.92,1.07-.01,1.08.56.75,1.33Z"/>
    <path class="cls-10" d="M333.65,430.26c-.09-.53-.2-1.06-.75-1.33.37-.56.77-1.07,1.67-1.24-.16.96-.27,1.85-.92,2.57Z"/>
    <path class="cls-26" d="M307.57,66.6c7.79-.06,14.88,2.14,21.31,6.25,6.65,4.25,11.04,10.24,12.93,18,1.43,5.88,1.62,11.78.16,17.65-1.77,7.16-5.9,12.83-11.62,17.38-2.18,1.73-4.47,3.3-7.1,4.31-4.09,1.58-8.29,2.09-12.67,1.8-4.44-.29-8.75-1.02-12.93-2.5-7.28-2.58-13.57-6.67-18.8-12.37-2.31-2.52-3.95-5.41-4.76-8.75-.18-.74-.34-1.5-.37-2.26-.28-6.89.52-13.61,3.42-19.94,4.66-10.17,12.36-16.61,23.38-19,2.38-.51,4.76-.51,7.07-.59Z"/>
    <path class="cls-26" d="M226.05,69.98c8.15-.14,15.23,2.73,21.43,7.83,5.62,4.62,9.6,10.42,11.67,17.44,2.99,10.12,1.08,19.37-5.2,27.72-5.74,7.63-13.51,12.11-22.81,13.88-7.47,1.42-14.77.66-21.55-2.87-8.62-4.49-13.83-11.58-15.5-21.25-.73-4.24-.42-8.4.29-12.58.32-1.89.61-3.8,1.14-5.63,3.59-12.67,11.44-21.03,24.53-24.02.56-.13,1.13-.26,1.7-.3,1.44-.1,2.87-.15,4.31-.23Z"/>
    <path class="cls-7" d="M253.86,368.49c-3.22.1-5.07-1.4-5.52-4.4-.31-2.06-.04-4.03,1.28-5.73,2.12-2.73,4.32-5.39,6.85-7.76,4.24-3.98,9.37-5.92,15.03-6.53,2.43-.26,4.77.41,6.84,1.78,1.66,1.1,2.81,2.65,3.29,4.58.98,3.89.52,7.62-1.57,11.09-1.34,2.24-3.25,3.69-5.85,4.29-4.59,1.05-9.24,1.69-13.92,2.16-2.19.22-4.4.37-6.43.54Z"/>
    <path class="cls-1" d="M225.74,337.71c-.08-1.88.44-3.6,1.42-5.19,1.79-2.92,4.23-5.18,7.27-6.75,2.6-1.35,5.32-1.46,8.06-.48,4.31,1.53,6.42,5.55,5,9.88-1.87,5.71-5.78,9.35-11.66,10.77-1.22.29-2.49.32-3.71.07-3.19-.66-5.36-2.34-6.21-6.29-.14-.65-.11-1.33-.16-2Z"/>
    <path class="cls-17" d="M278.8,341.02c-2.56.06-4.93-.61-7.1-1.94-1.75-1.07-3.14-2.5-3.99-4.39-1.03-2.29-.43-4.11,1.76-5.34.5-.28,1.04-.48,1.57-.69,4.28-1.65,8.55-3.3,12.85-4.91,1.16-.44,2.35-.79,3.62-.75,2.18.07,3.58,1.04,4.27,3.15.61,1.87.54,3.78.05,5.66-1.29,4.9-5.74,8.56-11.03,9.11-.66.07-1.34.07-2,.11Z"/>
    <path class="cls-13" d="M32.36,543.07c.49-.22.55-.69.64-1.14.41.33.52.78.5,1.27-.01.28-.02.6-.39.61-.15,0-.35-.13-.47-.25-.13-.13-.19-.32-.28-.49Z"/>
    <path class="cls-24" d="M277.71,99.32c.33-6.17,2.12-11.87,5.88-16.8,4.42-5.79,10.33-9.19,17.45-10.72,2.27-.49,4.61-.12,6.8-.9,4.44.58,8.98.74,13.11,2.76,1.72.84,3.47,1.66,5.11,2.64,2.83,1.7,5.03,4.14,7.16,6.61,1.74,2.03,3.37,4.16,4.37,6.71,1.02,2.6,1.87,5.23,1.79,8.07,0,.29,0,.58-.05.86-.1.52-.42.87-.96.91-.86.06-1.72.06-2.59.1-2.39.1-4.8-.21-7.15.5-.44.13-.95.06-1.43.07-2.48.08-4.98-.12-7.44.51-.81.21-1.72.05-2.58.08-1.91.06-3.83-.12-5.71.47-.53.17-1.14.07-1.72.09-2.39.09-4.79-.14-7.15.51-.72.2-1.53.06-2.29.08-1.34.04-2.66,0-3.99.38-.9.25-1.9.14-2.86.18-2.29.1-4.6-.16-6.86.5-.62.18-1.34.07-2.01.09-1.53.05-3.04.02-4.56.42-1.75.46-2.26-.04-2.32-1.81-.03-.77,0-1.54,0-2.3Z"/>
    <path class="cls-25" d="M311.52,127.66c-12.09-.81-22.52-5.1-30.38-14.67-1.28-1.56-2.38-3.25-2.89-5.25-.5-1.97-.37-2.18,1.57-2.33,2.1-.16,4.21-.33,6.31-.48,6.41-.45,12.82-.91,19.24-1.35,7.28-.5,14.55-.99,21.82-1.48,3.45-.23,6.89-.45,10.34-.65.81-.05,1.14.26,1.05.95-.73,5.71-2.51,11.02-6.17,15.57-4.22,5.24-9.67,8.34-16.33,9.32-.95.14-1.9.27-2.85.36-.57.05-1.15,0-1.73,0Z"/>
    <path class="cls-23" d="M216.65,106.46c-4.7.02-9.4.03-14.1.05-.96,0-1.89.08-2.84.32-1.33.33-1.95-.26-2-1.67-.01-.38-.04-.78.03-1.15.71-3.65,1.18-7.35,2.51-10.87.99-2.61,2.06-5.2,3.78-7.39,4.43-5.67,9.87-9.72,17.2-11.04,6.03-1.08,11.56.11,17.01,2.49,3.29,1.44,6.16,3.52,8.79,5.89,1.48,1.33,2.67,2.99,3.95,4.54,3.53,4.27,5.14,9.33,5.95,14.71.07.47.04.96,0,1.43-.05.53-.39.93-.92.93-2.3,0-4.52.77-6.85.63-1.91-.12-3.84,0-5.75.01-1.43.02-2.87-.05-4.28.4-.62.2-1.33.11-2,.12-1.82.03-3.65.04-5.47.06-3.36,1.47-6.86.78-10.29.52-1.59-.12-3.15-.45-4.72.02Z"/>
    <path class="cls-25" d="M238.8,106.55c4.4-.08,8.8-.16,13.2-.25.57-.01,1.15-.14,1.72-.11,2.82.15,3.15-.33,2.12,2.78-.48,1.45-1,2.89-1.54,4.33-2.88,7.64-8.09,13.13-15.49,16.51-5.75,2.62-11.76,3.94-18.14,3.27-10.25-1.08-19.16-8.65-21.74-18.62-.5-1.94-.9-3.91-.79-5.95.52-.57,1.24-.42,1.89-.45,6.03-.32,12.05-.61,18.08-.91.86-.04,1.72-.1,2.58-.15,3.45-1.05,6.97-.49,10.46-.37,2.56.09,5.11.3,7.66-.07Z"/>
    <path class="cls-19" d="M238.8,106.55c-.27.08-.54.23-.81.23-5.77.2-11.53.4-17.31.21,0-.17,0-.34,0-.51,3.66-.54,7.32-.32,10.98-.12,2.38.06,4.75.12,7.13.18Z"/>
    <path class="cls-2" d="M231.67,106.37c-3.66.04-7.32.08-10.98.12-1.35,0-2.69-.02-4.04-.03.59-.66,1.39-.53,2.14-.53,4.29,0,8.58,0,12.87,0,0,.15,0,.3.01.44Z"/>
    <path class="cls-11" d="M279.68,353.96c-.14,4.49-2.53,9.71-9.37,10.54-5.04.61-10.08,1.13-15.13,1.61-3.6.35-4.75-1.05-3.88-4.61.34-1.41.99-2.71,1.85-3.86,4.02-5.43,9.31-9.01,15.82-10.77,1.3-.35,2.65-.35,4-.25,4.41.33,6.77,2.91,6.72,7.33Z"/>
    <path class="cls-9" d="M239.44,327.04c4.17-.05,7.11,3.67,5.74,7.57-1.68,4.77-5.13,7.78-10.07,8.92-2.6.6-5.28-.72-6.62-3.01-1.11-1.89-1.23-3.81.07-5.67,2.24-3.21,5.1-5.68,8.66-7.34.72-.34,1.46-.43,2.23-.45Z"/>
    <path class="cls-9" d="M278.74,339.26c-1.31-.06-2.06-.09-2.79-.39-2.16-.89-4.01-2.23-5.57-3.95-1.2-1.33-.92-2.73.73-3.49,3.64-1.68,7.18-3.59,11.01-4.82,1.36-.44,2.78-.7,4.18-.97.55-.11,1.15-.07,1.71,0,1.03.15,1.7.71,1.99,1.78.47,1.76.2,3.41-.52,5.02-.19.43-.43.86-.71,1.24-2.62,3.56-6.35,5.02-10.03,5.56Z"/>
  </g>
  <g>
    <path class="cls-20" d="M199.02,99.09c.34,0,.71,0,1.07,0,6.86.06,13.73.19,20.59.15,6.77-.04,13.54-.37,20.28-.87,5.1-.38,10.2-.82,15.3-1.24.82-.07.87-.06,1.09.64,1.36,4.4,2.19,8.86,1.77,13.42-.65,7.15-3.87,13.31-10.25,18.09-7.64,5.73-16.59,7.63-26.45,5.53-10.07-2.15-17.42-7.29-21.69-15.39-1.39-2.64-2.03-5.46-2.34-8.33-.42-3.79-.14-7.57.39-11.33.02-.13.05-.26.09-.39.02-.07.08-.14.15-.27Z"/>
    <path class="cls-15" d="M198.68,108.74c0-3.06.39-5.85,1.03-8.62.05-.21.11-.41.18-.61.09-.28.33-.51.66-.44.27.05.56.23.7.43.13.18.1.45.12.69.39,4.18,1.14,8.3,2.97,12.23,2.13,4.59,5.3,8.56,10.02,11.54,4.83,3.05,10.24,4.67,16.31,4.55,3.18-.06,6.2-.69,9.08-1.84,5.03-2.02,9.42-4.79,13.19-8.24,1.79-1.64,3.39-3.42,5.07-5.14.14-.14.25-.3.39-.44.22-.22.49-.34.82-.19.33.15.38.41.27.68-.2.52-.41,1.05-.64,1.56-1.3,2.87-2.73,5.7-4.55,8.37-1.42,2.08-3.04,4.03-5.01,5.77-3.85,3.39-8.57,5.43-13.98,6.33-6.46,1.08-12.77.63-18.73-1.81-7.91-3.25-13.16-8.55-16.12-15.51-1.3-3.08-1.83-6.27-1.77-9.29Z"/>
    <ellipse class="cls-32" cx="227.36" cy="111.91" rx="13.69" ry="11.18"/>
    <path class="cls-26" d="M243.21,96.97c-2.29.11-4.59.14-6.89.07-3,.2-6.02.28-9.1.15-3.84,2.13-6.36,5.72-6.36,9.78,0,6.54,6.52,11.84,14.56,11.84s14.56-5.3,14.56-11.84c0-4.21-2.71-7.9-6.78-10Z"/>
    <path class="cls-31" d="M251.15,101.22c0,2.63-2.52,4.77-5.63,4.77s-5.63-2.13-5.63-4.77,2.52-4.77,5.63-4.77,5.63,2.14,5.63,4.77Z"/>
    <path class="cls-4" d="M230.95,112.89c0,1.82-1.83,3.29-4.08,3.29s-4.08-1.47-4.08-3.29,1.83-3.29,4.08-3.29,4.08,1.47,4.08,3.29Z"/>
    <path class="cls-26" d="M197.92,100.82c-.38-.09-.77-.17-1.15-.28-1.09-.31-2.18-.61-3.25-.95-.49-.16-.96-.38-1.39-.63-1.91-1.07-1.93-2.54-.07-3.69.87-.54,1.86-.83,2.89-1.05,2.45-.54,4.96-.74,7.48-.74,4.31,0,8.63.05,12.94.2,4.93.17,9.86.45,14.79.7,5.39.28,10.78.58,16.17.89,3.72.21,7.43.44,11.15.66,1.1.06,1.47.31,1.7,1.25,1.11,4.6,1.69,9.23,1.28,13.95-.97,11.28-9.73,20.85-22.25,24.19-6.07,1.61-12.13,1.38-18.15-.21-12.11-3.19-20.74-11.9-22.45-22.55-.6-3.74-.36-7.45.31-11.15.02-.13.04-.26.06-.39,0-.02-.01-.05-.05-.18ZM200.64,101.26c-.71,3.66-.98,7.2-.44,10.79,1.45,9.54,8.93,17.45,19.66,20.62,5.4,1.6,10.91,2.01,16.49.74,11.51-2.62,20.07-11.25,21.31-21.39.47-3.82.27-7.62-.45-11.4-.17-.88-.37-1.75-.57-2.69-.6.04-1.12.06-1.64.1-7.33.61-14.65,1.24-21.98,1.82-6.89.55-13.79,1.06-20.7,1.54-3.5.24-7.01.28-10.51-.06-.36-.04-.73-.05-1.19-.08Z"/>
  </g>
  <g>
    <path class="cls-20" d="M338.05,92.03c-.35.02-.74.05-1.12.08-7.18.53-14.35,1.14-21.53,1.58-7.08.43-14.18.58-21.27.56-5.36-.02-10.72-.09-16.08-.14-.86,0-.92,0-1.1.7-1.14,4.38-1.71,8.78-.98,13.2,1.14,6.92,4.92,12.7,11.9,16.92,8.36,5.05,17.84,6.28,28.03,3.54,10.39-2.79,17.75-8.32,21.68-16.51,1.28-2.67,1.76-5.46,1.91-8.28.19-3.72-.34-7.38-1.14-11.02-.03-.13-.07-.25-.12-.37-.03-.07-.09-.13-.18-.25Z"/>
    <path class="cls-15" d="M339.03,101.41c-.21-2.98-.78-5.67-1.64-8.33-.06-.2-.14-.39-.22-.58-.12-.27-.37-.47-.72-.39-.27.07-.57.27-.71.47-.13.18-.08.45-.08.68-.13,4.1-.66,8.17-2.31,12.13-1.93,4.63-4.99,8.71-9.73,11.94-4.85,3.31-10.41,5.26-16.77,5.57-3.33.16-6.54-.24-9.61-1.16-5.39-1.61-10.16-4.02-14.33-7.11-1.98-1.47-3.77-3.1-5.64-4.66-.15-.13-.28-.28-.43-.41-.24-.2-.53-.3-.87-.13-.33.17-.37.43-.24.69.24.5.5.99.77,1.48,1.55,2.71,3.22,5.36,5.3,7.84,1.62,1.93,3.44,3.72,5.62,5.27,4.25,3.03,9.32,4.69,15.04,5.2,6.83.6,13.4-.28,19.47-3.08,8.06-3.72,13.21-9.25,15.85-16.24,1.16-3.09,1.51-6.24,1.25-9.18Z"/>
    <path class="cls-11" d="M294.92,107.46c.4,6.02,7.14,10.47,15.05,9.94,7.91-.53,13.99-5.83,13.59-11.85-.4-6.02-7.14-10.47-15.04-9.94-7.91.53-13.99,5.83-13.59,11.85Z"/>
    <path class="cls-26" d="M291.7,93.06c2.4-.06,4.81-.19,7.21-.41,3.15-.02,6.31-.14,9.53-.49,4.15,1.81,7.02,5.13,7.29,9.09.42,6.37-6.05,11.99-14.46,12.55-8.41.56-15.58-4.15-16-10.52-.27-4.1,2.32-7.89,6.44-10.22Z"/>
    <path class="cls-31" d="M283.67,97.75c.17,2.57,2.95,4.47,6.2,4.25,3.25-.22,5.75-2.47,5.58-5.04-.17-2.57-2.95-4.47-6.2-4.25-3.25.22-5.75,2.47-5.58,5.04Z"/>
    <path class="cls-4" d="M305.55,107.72c.12,1.77,2.12,3.08,4.48,2.92,2.36-.16,4.17-1.72,4.05-3.49-.12-1.77-2.12-3.08-4.48-2.92-2.36.16-4.17,1.72-4.05,3.49Z"/>
    <path class="cls-26" d="M339.27,93.83c.03.13.05.25.09.38.95,3.56,1.44,7.16,1.05,10.85-1.09,10.5-9.56,19.58-22.02,23.54-6.19,1.97-12.51,2.62-18.97,1.47-13.32-2.37-23.11-11.09-24.85-22.02-.73-4.57-.43-9.12.44-13.68.18-.93.54-1.19,1.69-1.33,3.87-.47,7.75-.95,11.62-1.42,5.62-.67,11.24-1.34,16.86-1.99,5.14-.59,10.27-1.21,15.42-1.72,4.5-.44,9.01-.8,13.53-1.09,2.63-.17,5.27-.15,7.87.2,1.09.15,2.15.36,3.09.83,2.02.99,2.09,2.42.16,3.6-.44.27-.92.52-1.42.71-1.1.41-2.22.78-3.34,1.16-.39.13-.79.24-1.19.35-.03.13-.05.16-.04.18ZM335.26,94.42c-3.64.58-7.32.78-10.99.79-7.25.02-14.5,0-21.75-.06-7.7-.05-15.4-.16-23.1-.24-.54,0-1.09,0-1.72.01-.15.93-.3,1.8-.42,2.66-.51,3.74-.46,7.45.27,11.14,1.96,9.8,11.48,17.62,23.69,19.36,5.93.85,11.66.06,17.2-1.88,11.01-3.84,18.33-12.07,19.23-21.47.33-3.53-.18-6.97-1.16-10.48-.48.06-.86.1-1.24.16Z"/>
  </g>
</svg>