<?xml version="1.0" encoding="UTF-8"?>
<svg id="Layer_1" xmlns="http://www.w3.org/2000/svg" viewBox="0 0 564.2 566.13">
  <defs>
    <style>
      .cls-1 {
        fill: #676b6d;
        stroke: #1d1d1b;
      }

      .cls-1, .cls-2 {
        stroke-miterlimit: 10;
        stroke-width: .93px;
      }

      .cls-3, .cls-4, .cls-2 {
        fill: #1d1d1b;
      }

      .cls-4 {
        opacity: .36;
      }

      .cls-5 {
        fill: #fff;
      }

      .cls-6 {
        fill: #f0a334;
      }

      .cls-2 {
        stroke: #94989e;
      }
    </style>
  </defs>
  <ellipse class="cls-4" cx="265.5" cy="507.13" rx="175.5" ry="59"/>
  <g>
    <path class="cls-3" d="M180.41,50.44c11.13-5.36,26.53-11.38,45.57-14.88,15.48-2.84,29.15-3.25,39.99-2.79-.07,11.27-1.67,30.23-11.16,51.15-6.9,15.22-15.62,26.28-22.32,33.48"/>
    <path class="cls-1" d="M183.66,55.39c9.92-4.78,23.65-10.15,40.61-13.26,13.8-2.53,25.99-2.89,35.64-2.49-.06,10.05-1.49,26.95-9.95,45.59-6.15,13.56-13.93,23.42-19.89,29.84"/>
    <path class="cls-3" d="M110.38,37.76c-10.47-10.75-28.88-26.28-55.66-33.92-6.99-1.99-13.6-3.18-19.66-3.84-1.75,15.86-2.07,37.81,4.31,62.6,2.4,9.31,5.38,17.62,8.51,24.89"/>
    <path class="cls-1" d="M99.11,38.91c-8.11-8.33-22.37-20.36-43.12-26.28-5.41-1.54-10.54-2.46-15.23-2.98-1.36,12.28-1.61,29.29,3.34,48.5,1.86,7.21,4.17,13.65,6.59,19.28"/>
    <path class="cls-3" d="M223.5,342.83c6.1,14.06,18.12,21.44,26.71,26.71,32.64,20.04,59.28,7.96,67.65,24.03,5.02,9.64,1.81,26.08-3.07,35.82-2.32,4.63-6.4,10.51-8.37,20.46-1,5.04-1.11,9.34-1.03,12.27,3.26,1.54,8.83,3.61,15.9,3.54,13.48-.13,22.59-7.92,25.11-10.23,3.42-9.69,7.33-24.14,7.44-40.92.1-15.07-2.91-24.94-3.78-27.65-.74-2.29-1.68-5.57-3.72-9.31-5.98-10.93-9.12-7.48-17.8-20.47-12.59-18.85-13.54-37.38-15.13-50.74-3.6-30.12-16.88-87.3-35.61-89.91-17.56-2.44-36.57,43.59-45.4,64.98-9.45,22.9-17.17,42.38-8.9,61.42Z"/>
    <path class="cls-3" d="M137.63,38.35c-11.82-.97-52.3-4.28-75.33,20.46-1.95,2.1-2.36,4.09-13.71,22.56-9.8,15.95-12.56,20.04-17.91,22.08-2.69,1.02-10.86,3.36-24.18-4.65,3.41,6.2,6.82,12.4,10.23,18.6L0,111.81c2.9,7.21,7.75,17.33,15.81,27.9,28.42,37.25,71.4,46.71,95.78,52.08,79.44,17.48,150.48-13.19,176.69-26.04-8.37-.62-16.74-1.24-25.11-1.86,10.23-5.89,20.46-11.78,30.69-17.67-7.01,1.79-18.76,3.7-30.69-.93-28.15-10.94-23.82-45.34-53.94-75.33-26.64-26.53-61.31-30.78-71.61-31.62Z"/>
    <path class="cls-6" d="M146.93,120.18c2.5-4.78,7.04-11.43,14.88-15.81,14.89-8.32,35.49-5,52.08,8.37-3.03,4.32-8.64,10.84-17.67,14.88-23.75,10.62-47.82-6.37-49.29-7.44Z"/>
    <path class="cls-6" d="M109.73,115.72c1.15-11.56-4.99-22.75-15.81-28.77-11.15-6.2-25.38-5.87-36.27.85.59,3.67,2.66,12.89,11.16,20.31,10.32,9.01,26.02,11.8,40.92,7.61Z"/>
    <path class="cls-3" d="M101.83,172.72c-24.61,13.89-23.73,55.04-23.25,77.19.32,14.89,1.4,45.76,22.32,75.33,9.42,13.32,20.72,29.27,39.06,33.48,34.21,7.84,79.65-28.25,88.35-70.68,10.9-53.21-39.78-97.98-77.19-112.52-10.81-4.2-32.1-12.49-49.29-2.79Z"/>
    <path class="cls-3" d="M153.91,287.11c-6.72,10.85,11.97,26.82,19.53,64.17,1.6,7.92,1.04,8.59,2.79,34.41,4.27,63.23,10.64,103.94-1.86,108.8-4.15,1.61-8.35-1.5-13.02,1.86-5.08,3.65-5.81,11.42-5.58,17.67,8.83,4.52,21.54,8.96,33.48,4.65,7.11-2.57,23.24-11.6,31.62-68.82,1.96-13.38,21.32-145.53-29.76-167.39-13.6-5.82-32-3.75-37.2,4.65Z"/>
    <path class="cls-3" d="M86.02,269.44c-3.62,2.11-2.52,11.34,7.44,45.57,23.61,81.12,35.54,91.56,33.48,123.68-1.02,15.95-6.41,51.43-18.6,60.45-1.37,1.02-8.09,5.58-9.3,13.02-.56,3.46.24,6.47.93,8.37,4.52,2.15,21.21,9.51,33.48,1.86,5.57-3.47,8.17-8.76,12.09-18.6,8.2-20.59,12.3-30.89,14.88-45.57,1.39-7.9,5.87-36.27-.93-77.19-6.54-39.36-25.39-64.98-30.69-72.54-13.31-18.95-35.74-43.15-42.78-39.06Z"/>
    <path class="cls-3" d="M158.56,192.25c7.8-3.71,12.76,9.36,34.41,14.88,38.67,9.85,58.24-22.82,98.57-19.53,25.3,2.06,54.96,17.92,66.03,44.64,15.12,36.51-6.76,78.24-32.55,93.92-27.22,16.55-73.46,13.02-73.47,13.02-12.61,2.17-33.19,3.56-53.01-6.51-33.28-16.91-62.93-129.52-39.99-140.42Z"/>
    <path class="cls-3" d="M279.45,348.48c6.38,14.69,18.93,22.4,27.9,27.9,33.9,20.81,57.29,6.88,70.68,25.11,10.22,13.92,9.61,39.77,0,48.36-1.91,1.71-6.08,4.44-9.3,10.23-2.69,4.85-3.49,9.64-3.72,13.02,2.64,2.65,7.61,6.78,14.88,8.37,9.52,2.09,21.73-.45,26.97-8.37,2.89-4.37,2.81-9.09,2.79-11.16-.59-49.27,8.36-58.53-1.86-77.19-6.25-11.41-9.53-7.82-18.6-21.39-13.16-19.69-14.14-39.05-15.81-53.01-3.76-31.47-17.63-91.2-37.2-93.92-18.35-2.55-38.2,45.53-47.43,67.89-9.88,23.93-17.93,44.28-9.3,64.17Z"/>
    <path class="cls-3" d="M286.62,216.17c-.75-3.58,9.68-9.18,16.68-11.74,27.49-10.08,72.95.73,91.47,30.69,18.97,30.68-4.84,57.92,15.97,80.19,14.79,15.83,43.58,19.99,55,9.6,11.25-10.24-.67-28.89,10.27-53.02,7.23-15.96,20.54-25.66,30.7-31.37-4.33,6.28-8.65,12.56-12.98,18.84,6.09-3.73,17.33-9.52,32.59-11.39,17.27-2.11,30.98,1.86,37.89,4.38-2.13-.57-18.88-4.73-31.81,5.86-5.24,4.29-7.94,9.43-9.31,12.78,8.46-2.26,16.91-4.51,25.37-6.77-6.4,3.59-14.99,9.62-21.52,19.51-14.8,22.43-3.33,40.95-13.66,63.82-9.08,20.12-31.18,35.07-52.26,37.73-33.35,4.21-66.93-22-80.21-50.71-18.64-40.29,8.66-72.61-14.03-94-14.97-14.11-46.68-18.74-50.81-19.35-15.18-2.22-28.53-1.19-29.34-5.06Z"/>
    <path class="cls-3" d="M174.37,108.56c0,7.19,2.08,13.02,4.65,13.02s4.65-5.83,4.65-13.02-2.08-13.02-4.65-13.02-4.65,5.83-4.65,13.02Z"/>
    <path class="cls-3" d="M84.16,93.68c0,7.19,2.08,13.02,4.65,13.02s4.65-5.83,4.65-13.02-2.08-13.02-4.65-13.02-4.65,5.83-4.65,13.02Z"/>
    <polygon class="cls-5" points="102.76 148.55 102.76 159.74 96.37 148.55 102.76 148.55"/>
    <polygon class="cls-5" points="135.31 152.26 135.31 163.46 141.7 152.26 135.31 152.26"/>
    <path class="cls-2" d="M87.77,131.29c-1.12,8.38,3.35,16.34,10.61,19.39,6.01,2.52,13.12,1.33,18.38-3.01,1.63,2.17,5.26,6.33,11.21,8.09,10.84,3.22,24.82-2.07,26.07-9.49.24-1.4.2-3.93-2.45-7.48,2.48.31,4.96.62,7.44.93"/>
    <path class="cls-1" d="M118.1,142.5c-7.6-2.11-12.81-9.96-11.16-13.02,2.85-5.3,28.31-.18,28.83,5.58.32,3.58-8.74,9.92-17.67,7.44Z"/>
  </g>
</svg>